<svg width="181" height="30" viewBox="0 0 181 30" fill="none" xmlns="http://www.w3.org/2000/svg">
<path d="M64.0579 4V29.176H59.4603L48.5073 13.3304H48.3229V29.176H43V4H47.6713L58.5383 19.8334H58.7596V4H64.0579Z" fill="#273F4F"/>
<path d="M76.9624 29.5448C75.0201 29.5448 73.3483 29.1514 71.9469 28.3647C70.5537 27.5697 69.4801 26.447 68.7261 24.9964C67.9722 23.5376 67.5952 21.8125 67.5952 19.8211C67.5952 17.8788 67.9722 16.1741 68.7261 14.7072C69.4801 13.2402 70.5414 12.097 71.91 11.2774C73.2868 10.4579 74.9013 10.0481 76.7535 10.0481C77.9991 10.0481 79.1588 10.2489 80.2324 10.6505C81.3142 11.0439 82.2566 11.638 83.0597 12.433C83.8711 13.2279 84.5021 14.2278 84.9529 15.4325C85.4036 16.629 85.629 18.0304 85.629 19.6367V21.075H69.685V17.8296H80.6995C80.6995 17.0756 80.5356 16.4077 80.2078 15.8258C79.88 15.244 79.4251 14.7891 78.8433 14.4613C78.2696 14.1253 77.6017 13.9573 76.8395 13.9573C76.0446 13.9573 75.3398 14.1417 74.7251 14.5105C74.1187 14.8711 73.6433 15.3587 73.2991 15.9734C72.9549 16.5798 72.7787 17.2559 72.7705 18.0017V21.0872C72.7705 22.0215 72.9426 22.8287 73.2868 23.509C73.6392 24.1892 74.135 24.7137 74.7743 25.0825C75.4135 25.4513 76.1716 25.6356 77.0485 25.6356C77.6304 25.6356 78.163 25.5537 78.6466 25.3898C79.1301 25.2259 79.544 24.98 79.8882 24.6522C80.2324 24.3244 80.4946 23.9228 80.6749 23.4475L85.5183 23.7671C85.2725 24.9309 84.7685 25.9471 84.0063 26.8158C83.2523 27.6763 82.2771 28.3483 81.0806 28.8318C79.8923 29.3072 78.5195 29.5448 76.9624 29.5448Z" fill="#273F4F"/>
<path d="M93.0847 10.294L96.5513 16.8953L100.104 10.294H105.476L100.006 19.735L105.624 29.176H100.276L96.5513 22.6485L92.888 29.176H87.4791L93.0847 19.735L87.6758 10.294H93.0847Z" fill="#273F4F"/>
<path d="M116.441 29.5448C114.507 29.5448 112.844 29.135 111.45 28.3155C110.065 27.4878 109 26.3404 108.254 24.8735C107.517 23.4065 107.148 21.7183 107.148 19.8088C107.148 17.8747 107.521 16.1782 108.267 14.7195C109.02 13.2525 110.09 12.1093 111.475 11.2897C112.86 10.462 114.507 10.0481 116.417 10.0481C118.064 10.0481 119.506 10.3473 120.744 10.9455C121.981 11.5438 122.961 12.3838 123.682 13.4656C124.403 14.5474 124.801 15.8177 124.874 17.2764H119.933C119.793 16.334 119.424 15.5759 118.826 15.0022C118.236 14.4204 117.462 14.1294 116.503 14.1294C115.691 14.1294 114.983 14.3507 114.376 14.7932C113.778 15.2276 113.311 15.8627 112.975 16.6987C112.639 17.5346 112.471 18.5467 112.471 19.735C112.471 20.9397 112.635 21.9641 112.962 22.8083C113.298 23.6524 113.77 24.2957 114.376 24.7383C114.983 25.1808 115.691 25.4021 116.503 25.4021C117.101 25.4021 117.638 25.2791 118.113 25.0333C118.597 24.7874 118.994 24.4309 119.306 23.9638C119.625 23.4885 119.834 22.9189 119.933 22.2551H124.874C124.792 23.6975 124.399 24.9677 123.694 26.0659C122.998 27.1559 122.035 28.0082 120.805 28.6228C119.576 29.2375 118.121 29.5448 116.441 29.5448Z" fill="#273F4F"/>
<path d="M136.832 29.5448C134.89 29.5448 133.218 29.1514 131.817 28.3647C130.424 27.5697 129.35 26.447 128.596 24.9964C127.842 23.5376 127.465 21.8125 127.465 19.8211C127.465 17.8788 127.842 16.1741 128.596 14.7072C129.35 13.2402 130.411 12.097 131.78 11.2774C133.157 10.4579 134.771 10.0481 136.623 10.0481C137.869 10.0481 139.029 10.2489 140.102 10.6505C141.184 11.0439 142.126 11.638 142.93 12.433C143.741 13.2279 144.372 14.2278 144.823 15.4325C145.274 16.629 145.499 18.0304 145.499 19.6367V21.075H129.555V17.8296H140.569C140.569 17.0756 140.405 16.4077 140.078 15.8258C139.75 15.244 139.295 14.7891 138.713 14.4613C138.139 14.1253 137.472 13.9573 136.709 13.9573C135.914 13.9573 135.21 14.1417 134.595 14.5105C133.989 14.8711 133.513 15.3587 133.169 15.9734C132.825 16.5798 132.649 17.2559 132.64 18.0017V21.0872C132.64 22.0215 132.813 22.8287 133.157 23.509C133.509 24.1892 134.005 24.7137 134.644 25.0825C135.283 25.4513 136.041 25.6356 136.918 25.6356C137.5 25.6356 138.033 25.5537 138.516 25.3898C139 25.2259 139.414 24.98 139.758 24.6522C140.102 24.3244 140.365 23.9228 140.545 23.4475L145.388 23.7671C145.142 24.9309 144.638 25.9471 143.876 26.8158C143.122 27.6763 142.147 28.3483 140.95 28.8318C139.762 29.3072 138.389 29.5448 136.832 29.5448Z" fill="#273F4F"/>
<path d="M154.153 18.2599V29.176H148.916V10.294H153.907V13.6254H154.129C154.547 12.5272 155.247 11.6585 156.231 11.0193C157.214 10.3719 158.406 10.0481 159.808 10.0481C161.119 10.0481 162.262 10.335 163.238 10.9087C164.213 11.4823 164.971 12.3019 165.512 13.3673C166.053 14.4244 166.323 15.6865 166.323 17.1535V29.176H161.086V18.0878C161.095 16.9322 160.8 16.0307 160.201 15.3833C159.603 14.7277 158.779 14.3999 157.73 14.3999C157.026 14.3999 156.403 14.5515 155.862 14.8547C155.329 15.1579 154.911 15.6005 154.608 16.1823C154.313 16.756 154.161 17.4485 154.153 18.2599Z" fill="#273F4F"/>
<path d="M180.494 10.294V14.2278H169.123V10.294H180.494ZM171.704 5.77019H176.941V23.3737C176.941 23.8573 177.015 24.2342 177.163 24.5047C177.31 24.7669 177.515 24.9513 177.777 25.0579C178.048 25.1644 178.359 25.2177 178.711 25.2177C178.957 25.2177 179.203 25.1972 179.449 25.1562C179.695 25.107 179.883 25.0702 180.014 25.0456L180.838 28.9425C180.576 29.0244 180.207 29.1187 179.732 29.2252C179.256 29.3399 178.679 29.4096 177.998 29.4342C176.736 29.4834 175.63 29.3153 174.679 28.9302C173.737 28.545 173.003 27.9467 172.479 27.1354C171.954 26.3241 171.696 25.2996 171.704 24.0621V5.77019Z" fill="#273F4F"/>
<path d="M23.2259 16.2378L16.561 27.6527L9.89611 16.2378H23.2259ZM25.0114 15.2176H8.10339L16.561 29.6717L25.0114 15.2176Z" fill="#273F4F"/>
<path d="M34.8137 2.0404L41.4786 13.4552H28.1488L34.8137 2.0404ZM34.8137 0L26.3561 14.454H43.2713L34.8137 0Z" fill="#273F4F"/>
<path d="M0 0L7.09143 12.7846L14.8406 0.321025L0 0Z" fill="#FE7743"/>
<path d="M16.5612 1.11996L23.9997 13.8333H9.1084L16.5612 1.11996Z" fill="#FE7743"/>
<path d="M25.9152 16.6088L33.3608 29.6717H18.1154L25.6838 16.6088H25.9152Z" fill="#FE7743"/>
<path d="M27.5271 15.8169L34.8137 28.68L42.2014 15.8169H27.5271Z" fill="#FE7743"/>
</svg>
