<svg width="177" height="210" viewBox="0 0 177 210" fill="none" xmlns="http://www.w3.org/2000/svg">
<path d="M142.812 188.175C134.176 181.93 131.986 169.976 132.078 159.178C132.078 157.375 131.87 155.48 132.622 153.881C133.374 152.282 135.186 151.151 136.68 151.874C137.92 152.47 138.492 154.008 139.207 155.282C140.167 156.977 141.539 158.339 143.167 159.214C144.233 159.779 145.542 160.11 146.57 159.458C147.977 158.562 148.097 156.402 148.046 154.62C147.954 151.285 147.86 147.947 147.765 144.606C147.714 142.813 147.668 140.985 148.143 139.273C148.618 137.562 149.71 135.947 151.264 135.433C152.818 134.919 154.769 135.845 155.138 137.587C155.219 138.328 155.251 139.073 155.234 139.818C155.299 140.562 155.636 141.377 156.286 141.565C156.936 141.754 157.595 141.234 158.075 140.694C159.73 138.84 160.841 136.482 161.851 134.134C162.861 131.786 163.866 129.392 165.36 127.375C166.854 125.358 168.952 123.744 171.299 123.535C173.646 123.326 176.196 124.849 176.832 127.35C177.469 129.851 176.187 132.443 174.762 134.542C172.647 137.644 170.133 140.389 167.302 142.691C166.752 143.044 166.316 143.578 166.057 144.219C165.729 145.421 166.794 146.582 167.901 146.944C169.137 147.357 170.46 147.183 171.747 147.316C173.033 147.448 174.435 148.024 174.947 149.353C175.661 151.166 174.296 153.122 172.945 154.416C170.226 157.015 167.124 159.083 163.774 160.528C162.575 161.037 161.316 161.501 160.362 162.448C159.407 163.396 158.854 165.025 159.472 166.273C160.09 167.521 161.607 167.883 162.87 167.598C164.134 167.312 165.245 166.528 166.439 165.998C168.68 165.01 171.599 165.102 173.093 167.19C174.075 168.565 174.2 170.511 173.757 172.192C173.24 173.851 172.426 175.379 171.364 176.684C167.875 181.479 163.3 185.169 158.103 187.38C152.911 189.499 148.069 190.161 142.817 188.226" fill="#F0F0F0"/>
<path d="M174.416 124.956C174.416 124.956 174.366 125.017 174.26 125.129L173.798 125.613C173.374 126.036 172.752 126.662 171.954 127.497C169.744 129.837 167.699 132.359 165.835 135.041C164.646 136.732 163.414 138.647 162.146 140.725C160.878 142.803 159.509 145.044 158.162 147.453C156.739 149.96 155.441 152.552 154.275 155.216C153.671 156.606 153.136 158.053 152.592 159.53C152.048 161.007 151.504 162.504 150.946 164.017C148.827 169.698 147 175.507 145.473 181.416C144.247 186.244 143.441 191.19 143.066 196.187C142.821 199.558 142.848 202.946 143.144 206.312C143.26 207.499 143.366 208.426 143.458 209.048C143.499 209.348 143.527 209.587 143.55 209.756C143.573 209.924 143.578 210 143.578 210C143.578 210 143.306 208.706 143.048 206.323C142.717 202.951 142.665 199.553 142.891 196.171C143.245 191.157 144.037 186.191 145.256 181.345C146.77 175.422 148.593 169.6 150.716 163.91C151.275 162.399 151.824 160.903 152.362 159.423C152.906 157.951 153.445 156.489 154.054 155.098C155.225 152.426 156.53 149.827 157.964 147.316C159.32 144.907 160.685 142.676 161.976 140.593C163.267 138.509 164.512 136.61 165.711 134.919C167.592 132.241 169.663 129.732 171.903 127.416C172.692 126.596 173.328 125.98 173.748 125.567L174.241 125.104C174.356 125.002 174.416 124.956 174.416 124.956Z" fill="white"/>
<path d="M154.1 155.078C154.024 154.829 153.969 154.574 153.934 154.314C153.842 153.805 153.722 153.102 153.593 152.216C153.326 150.433 153.03 147.968 152.708 145.243C152.385 142.518 152.057 140.063 151.753 138.295C151.606 137.409 151.477 136.696 151.384 136.202C151.322 135.95 151.282 135.693 151.264 135.433C151.355 135.673 151.426 135.922 151.476 136.177C151.601 136.686 151.753 137.373 151.938 138.255C152.283 140.017 152.648 142.482 152.966 145.207C153.284 147.932 153.561 150.351 153.777 152.185C153.883 153.041 153.971 153.749 154.04 154.294C154.083 154.552 154.104 154.815 154.1 155.078Z" fill="white"/>
<path d="M175.131 150.214C175.061 150.242 174.988 150.257 174.914 150.26L174.292 150.336C173.748 150.397 172.964 150.484 171.986 150.632C170.054 150.902 167.398 151.39 164.493 152.063C161.588 152.735 158.983 153.489 157.116 154.1C156.194 154.396 155.428 154.655 154.907 154.834L154.308 155.032C154.238 155.061 154.165 155.08 154.091 155.088C154.091 155.088 154.155 155.042 154.289 154.981L154.875 154.732C155.387 154.523 156.134 154.222 157.065 153.917C158.909 153.27 161.533 152.496 164.443 151.808C167.352 151.121 170.022 150.677 171.963 150.453C172.936 150.331 173.725 150.27 174.269 150.239L174.896 150.214C174.974 150.202 175.053 150.202 175.131 150.214Z" fill="white"/>
<path d="M145.473 180.912C145.417 180.824 145.37 180.73 145.33 180.632C145.233 180.418 145.109 180.122 144.952 179.806C144.629 179.088 144.186 178.034 143.652 176.75C142.577 174.138 141.194 170.475 139.718 166.416C138.243 162.357 136.883 158.689 135.854 156.056L134.619 152.949C134.485 152.603 134.374 152.323 134.287 152.104C134.242 152.006 134.208 151.904 134.185 151.798C134.246 151.883 134.295 151.978 134.333 152.078L134.706 152.903C135.029 153.621 135.476 154.676 136.011 155.959C137.086 158.572 138.464 162.234 139.944 166.294C141.424 170.353 142.776 174.02 143.808 176.649C144.32 177.942 144.731 178.997 145.04 179.761C145.178 180.107 145.289 180.387 145.372 180.606C145.416 180.703 145.45 180.806 145.473 180.912Z" fill="white"/>
<path d="M173.319 170.307C173.231 170.361 173.139 170.404 173.042 170.435L172.231 170.745L169.247 171.881C166.725 172.839 163.253 174.209 159.435 175.737C155.617 177.265 152.131 178.61 149.595 179.521C148.327 179.98 147.29 180.336 146.584 180.57L145.759 180.835C145.664 180.875 145.565 180.901 145.464 180.912C145.554 180.86 145.648 180.817 145.745 180.784L146.552 180.469L149.54 179.338C152.057 178.38 155.534 177.005 159.352 175.482C163.17 173.959 166.656 172.61 169.192 171.698C170.46 171.239 171.498 170.883 172.203 170.649L173.028 170.384C173.122 170.345 173.22 170.319 173.319 170.307Z" fill="white"/>
<path d="M28.2148 110.048L36.0351 135.285H71.4385L71.1757 133.986L56.8631 133.497L50.2647 110.037L28.2148 110.048Z" fill="#E6E6E6"/>
<path d="M43.9061 121.905C44.1367 122.924 43.7355 123.942 43.007 124.166C42.2784 124.39 41.4991 123.718 41.2686 122.684C41.038 121.65 41.4346 120.647 42.1631 120.418C42.8917 120.188 43.6709 120.871 43.9061 121.905Z" fill="white"/>
<path d="M106.879 164.649L118.641 209.256H120.057L111.029 164.496L106.879 164.649Z" fill="#EBEBEB"/>
<path d="M85.2669 164.873L76.1602 209.241H77.774L89.9655 164.857L85.2669 164.873Z" fill="#EBEBEB"/>
<path d="M95.923 163.849L97.3201 209.241H99.2291L100.068 164.027L95.923 163.849Z" fill="#EBEBEB"/>
<path d="M84.8427 182.837L112.158 181.89L112.343 185.017L82.7954 186.265L84.8427 182.837Z" fill="#EBEBEB"/>
<path d="M85.2531 164.857L84.8335 167.155H89.3523L89.9194 164.857H85.2531Z" fill="white"/>
<path d="M95.9138 163.976L96.0106 167.155H100.018L100.068 164.531L95.9138 163.976Z" fill="white"/>
<path d="M96.4901 182.435L96.5916 185.684L94.4705 185.771L93.7789 182.526L96.4901 182.435Z" fill="white"/>
<path d="M99.7317 182.261L99.6671 185.562L101.327 185.491L101.71 182.261H99.7317Z" fill="white"/>
<path d="M106.699 163.976L107.303 166.273H111.384L110.936 164.042L106.699 163.976Z" fill="white"/>
<path d="M76.2063 161.725C80.0933 159.621 95.7939 160.752 95.7939 160.752C95.7939 160.752 91.3581 99.9677 97.0896 99.4839C102.821 99 115.806 94.4363 118.143 103.63C120.606 113.307 117.281 164.934 113.994 164.435C106.505 163.294 83.4041 166.248 76.4506 164.435C74.6616 163.997 76.2063 161.725 76.2063 161.725Z" fill="#F0F0F0"/>
<path d="M113.196 104.679C113.223 104.679 113.334 104.832 113.523 105.188C113.62 105.357 113.721 105.57 113.841 105.825C113.961 106.08 114.09 106.385 114.224 106.727C114.951 108.69 115.408 110.762 115.58 112.874C115.827 115.98 115.904 119.1 115.81 122.216C115.755 125.73 115.561 129.591 115.275 133.625C114.99 137.659 114.634 141.504 114.307 144.988C113.98 148.472 113.657 151.609 113.214 154.248C112.885 156.324 112.405 158.368 111.78 160.36C111.583 161.102 111.299 161.812 110.936 162.474C111.071 161.72 111.255 160.978 111.485 160.253C111.987 158.244 112.376 156.203 112.652 154.141C113.021 151.533 113.283 148.401 113.574 144.912C113.864 141.423 114.192 137.582 114.496 133.559C114.8 129.535 114.999 125.694 115.091 122.195C115.219 119.108 115.2 116.015 115.036 112.93C114.914 110.86 114.552 108.816 113.957 106.849C113.5 105.423 113.145 104.715 113.196 104.679Z" fill="white"/>
<path d="M110.272 162.367C110.226 162.621 106.657 162 102.231 161.608C97.8043 161.216 94.1892 161.175 94.18 160.915C94.1708 160.655 97.8135 160.314 102.295 160.727C106.777 161.139 110.319 162.143 110.272 162.367Z" fill="white"/>
<path d="M134.937 134.913H9.42029V139.457H134.937V134.913Z" fill="#E6E6E6"/>
<path d="M19.2325 139.457L9.42029 209.2L14.3264 209.297L31.1705 139.457H19.2325Z" fill="#EBEBEB"/>
<path d="M125.798 138.703L131.534 209.256H126.964L114.584 141.626L113.938 136.604L125.798 138.703Z" fill="#EBEBEB"/>
<path d="M114.302 139.457L114.759 142.594L126.074 142.126L125.858 139.457H114.302Z" fill="white"/>
<path d="M19.2325 139.457L18.7714 142.671L30.465 142.309L31.1704 139.457H19.2325Z" fill="white"/>
<path d="M13.9852 135.545V130.105L16.4659 129.499L13.9852 127.803V122.659H40.4478V125.745H41.9464C41.702 126.051 42.4075 126.423 42.1078 126.55C41.5729 126.769 40.2634 127.11 40.2634 127.11L40.5908 129.255L39.106 129.621L41.0888 131.149L41.4208 135.224L13.9622 135.846" fill="white"/>
<path d="M11.569 135.545V130.105L14.059 129.499L11.5783 127.803V122.659H38.0363V125.745H39.5302C39.2859 126.051 40.0144 126.423 39.6916 126.55C39.1567 126.769 37.8472 127.11 37.8472 127.11L38.1792 129.255L36.6898 129.621L38.6726 131.149L39.0046 135.224L11.569 135.825" fill="#F0F0F0"/>
<path d="M135.416 127.834C134.805 127.333 134.049 127.094 133.291 127.161C133.291 126.708 133.291 126.428 133.291 126.428H121.685C121.685 126.428 121.32 134.883 127.181 135.183C129.805 135.316 131.308 134.017 132.166 132.382C132.596 132.495 133.037 132.555 133.48 132.56C134.134 132.593 134.78 132.393 135.324 131.99C135.618 131.733 135.851 131.402 136.003 131.024C136.155 130.646 136.221 130.233 136.196 129.82C136.21 129.445 136.147 129.072 136.012 128.728C135.877 128.384 135.673 128.078 135.416 127.834ZM134.623 130.976C134.13 131.384 133.24 131.323 132.664 131.211C132.957 130.313 133.147 129.379 133.231 128.43C133.737 128.36 134.25 128.49 134.679 128.796C134.803 128.926 134.9 129.084 134.961 129.261C135.023 129.437 135.047 129.627 135.034 129.815C135.052 130.027 135.024 130.24 134.953 130.438C134.881 130.635 134.768 130.811 134.623 130.951V130.976Z" fill="#F0F0F0"/>
<path d="M53.142 68.7097L47.3505 62.5314H16.7979V42.326L59.8925 41.3073V62.129H52.3304L53.142 68.7097ZM17.259 62.0221H47.535L52.5057 67.3243L51.8002 61.6197H59.4314V41.8472L17.259 42.8251V62.0221Z" fill="white"/>
<path d="M36.8789 47.4142H22.4787V49.2784H36.8789V47.4142Z" fill="white"/>
<path d="M54.5714 51.6774H22.4787V53.5416H54.5714V51.6774Z" fill="white"/>
<path d="M54.5714 55.3752H22.4787V57.2394H54.5714V55.3752Z" fill="white"/>
<path d="M37.6259 1.93548L38.502 28.1919H74.3895L107.377 15.9779V0L37.6259 1.93548Z" fill="white"/>
<path d="M74.5693 12.6927L74.8598 34.2224H105.357C105.357 34.2224 108.304 49.1918 108.317 48.3718C108.331 47.5518 112.043 34.0187 112.043 34.0187L151.398 33.6112V11.6689L74.5693 12.6927Z" fill="#F0F0F0"/>
<path d="M143.126 19.9864H82.8185V22.0951H143.126V19.9864Z" fill="white"/>
<path d="M143.126 24.9474H82.8185V27.056H143.126V24.9474Z" fill="white"/>
<path d="M154.008 209.363C154.008 209.435 119.531 209.496 77.004 209.496C34.4766 209.496 0 209.435 0 209.363C0 209.292 34.4673 209.231 77.004 209.231C119.541 209.231 154.008 209.287 154.008 209.363Z" fill="#273F4F"/>
<path d="M38.2392 141.535C35.6247 141.998 34.4582 145.543 34.6887 148.452C34.9193 151.36 35.9982 154.212 35.7077 157.11C35.3389 160.798 32.8166 163.915 32.5215 167.613C32.1757 171.973 34.9654 175.839 35.8 180.117C36.2057 182.2 36.1504 184.401 36.8513 186.382C37.449 188.07 38.5581 189.477 39.9896 190.362C41.421 191.248 43.0862 191.558 44.7015 191.24C46.3167 190.921 47.782 189.994 48.8478 188.616C49.9135 187.238 50.5136 185.495 50.546 183.683C50.6059 180.336 48.7339 177.183 48.9644 173.842C49.1304 171.377 50.4399 169.039 50.1587 166.579C49.8267 163.66 47.3921 161.587 46.5114 158.801C45.6307 156.015 46.4745 152.944 46.1794 150.015C45.6445 144.764 43.007 141.107 38.2392 141.53" fill="#FE7743"/>
<path d="M24.8995 166.956C24.4384 171.82 26.4027 177.545 28.6713 181.727C30.963 185.956 34.4165 189.268 38.5297 191.18C38.9908 191.394 39.5625 191.572 39.9499 191.226C40.0882 191.059 40.192 190.861 40.2541 190.646C40.3162 190.43 40.3351 190.202 40.3095 189.978C40.3435 184.813 38.8599 179.774 36.0813 175.62C33.3028 171.465 29.3792 168.418 24.8995 166.935" fill="#FE7743"/>
<path opacity="0.2" d="M24.8995 166.956C24.4384 171.82 26.4027 177.545 28.6713 181.727C30.963 185.956 34.4165 189.268 38.5297 191.18C38.9908 191.394 39.5625 191.572 39.9499 191.226C40.0882 191.059 40.192 190.861 40.2541 190.646C40.3162 190.43 40.3351 190.202 40.3095 189.978C40.3435 184.813 38.8599 179.774 36.0813 175.62C33.3028 171.465 29.3792 168.418 24.8995 166.935" fill="white"/>
<path d="M44.0859 201.372C44.0364 201.287 43.9947 201.196 43.9614 201.102C43.8784 200.893 43.777 200.628 43.6479 200.307C43.3851 199.61 42.9885 198.611 42.4813 197.384C41.1695 194.186 39.7105 191.065 38.1101 188.032C36.502 185.003 34.7568 182.066 32.8812 179.231C32.1572 178.141 31.5624 177.27 31.1474 176.684L30.6863 175.992C30.5803 175.834 30.5249 175.747 30.5342 175.737C30.6028 175.804 30.6661 175.877 30.7232 175.956C30.8569 176.134 31.0275 176.353 31.235 176.618C31.6961 177.194 32.2956 178.049 33.0333 179.124C34.9588 181.93 36.731 184.861 38.3406 187.9C39.9413 190.938 41.3793 194.078 42.6473 197.302C43.1315 198.545 43.5003 199.559 43.7401 200.267C43.8462 200.598 43.9384 200.868 44.0076 201.082C44.0448 201.174 44.0711 201.272 44.0859 201.372Z" fill="#273F4F"/>
<path d="M41.264 154.992C41.2933 155.146 41.3102 155.303 41.3147 155.46C41.3147 155.791 41.3654 156.234 41.4023 156.8C41.4715 157.986 41.5683 159.667 41.6882 161.73C41.928 165.891 42.2599 171.642 42.6657 177.988C43.0715 184.334 43.468 190.085 43.7585 194.246C43.9015 196.284 44.0167 197.98 44.0997 199.171C44.1366 199.732 44.1643 200.19 44.1827 200.511C44.195 200.667 44.195 200.824 44.1827 200.98C44.1487 200.828 44.1271 200.672 44.1182 200.516C44.0859 200.185 44.0444 199.742 43.9891 199.182L43.5695 194.261C43.2329 190.105 42.8041 184.36 42.4029 178.008C42.0017 171.657 41.6928 165.907 41.4807 161.74C41.3931 159.677 41.3239 157.997 41.2732 156.805C41.2547 156.238 41.2409 155.789 41.2317 155.46C41.2333 155.303 41.2441 155.147 41.264 154.992Z" fill="#273F4F"/>
<path d="M37.2017 194.435H48.2312V203.379C48.2318 204.147 48.0954 204.908 47.8296 205.618C47.5639 206.328 47.1741 206.973 46.6825 207.516C46.1909 208.06 45.6071 208.491 44.9646 208.785C44.322 209.079 43.6333 209.231 42.9378 209.231C41.5821 209.232 40.2778 208.658 39.2937 207.628C38.3097 206.598 37.721 205.19 37.649 203.694L37.2017 194.435Z" fill="#273F4F"/>
<path d="M156.304 59.893C155.728 63.5697 154.169 66.9715 151.826 69.66C149.484 72.3484 146.466 74.2004 143.162 74.977C139.859 75.7536 136.42 75.4193 133.289 74.0172C130.159 72.6151 127.481 70.2094 125.599 67.1104L117.586 68.4805L123.013 60.1477C122.554 57.4585 122.635 54.6908 123.251 52.0401C123.866 49.3894 125.002 46.9204 126.576 44.8077C128.151 42.6949 130.126 40.99 132.363 39.8133C134.6 38.6365 137.043 38.0168 139.52 37.9979C141.998 37.9789 144.449 38.5612 146.7 39.7036C148.951 40.846 150.948 42.5206 152.549 44.609C154.15 46.6975 155.316 49.1488 155.965 51.7898C156.614 54.4309 156.73 57.1971 156.304 59.893Z" fill="#FE7743"/>
<path d="M144.675 63.4839C146.059 63.5348 147.064 61.6044 147.147 58.584C147.29 53.4499 144.076 49.5688 139.41 49.416C134.743 49.2632 131.156 52.91 131.013 58.0187C130.879 62.9185 134.135 66.6061 138.686 66.7589C139.912 66.7726 141.123 66.4617 142.218 65.8523L142.49 66.545C141.304 67.2129 139.993 67.562 138.663 67.5637C133.729 67.3956 130.192 63.3565 130.34 58.0136C130.492 52.4516 134.365 48.4941 139.433 48.6621C144.426 48.8302 147.958 53.017 147.802 58.6197C147.705 62.0883 146.418 64.2835 144.574 64.2224C143.536 64.1868 142.729 63.3311 142.729 61.9457L142.757 60.8353C142.367 61.7141 141.75 62.4462 140.985 62.94C140.22 63.4337 139.34 63.6672 138.455 63.6112C137.815 63.6017 137.182 63.4482 136.597 63.1601C136.012 62.8719 135.487 62.4552 135.052 61.9352C134.618 61.4153 134.284 60.803 134.07 60.1358C133.857 59.4686 133.769 58.7603 133.812 58.0543C133.895 54.9423 135.947 52.691 138.704 52.7827C139.574 52.7809 140.424 53.0614 141.151 53.5893C141.877 54.1173 142.447 54.8694 142.789 55.7521L142.863 53.0068L143.633 53.0323L143.393 61.7216C143.366 62.8014 143.947 63.4635 144.675 63.4839ZM134.619 58.0543C134.607 58.9355 134.832 59.8007 135.264 60.5411C135.697 61.2815 136.318 61.8641 137.05 62.2154C137.781 62.5668 138.591 62.6713 139.376 62.5158C140.161 62.3602 140.887 61.9516 141.463 61.3414C142.038 60.7311 142.437 59.9464 142.61 59.0861C142.783 58.2258 142.721 57.3283 142.433 56.5065C142.145 55.6847 141.644 54.9754 140.992 54.4677C140.34 53.9601 139.566 53.6769 138.769 53.6537C138.23 53.623 137.692 53.7145 137.187 53.9224C136.682 54.1303 136.221 54.4503 135.832 54.8626C135.443 55.2749 135.135 55.7708 134.926 56.3197C134.718 56.8687 134.613 57.459 134.619 58.0543Z" fill="white"/>
<path d="M117.396 70.6706C116.571 70.3956 115.091 75.2903 114.86 74.0374C114.63 72.7844 117.295 68.2767 116.424 68.0272C115.289 67.7012 113.832 72.8608 113.68 73.2835C113.528 73.7063 112.965 73.4822 113.117 73.1053C113.343 72.5654 115.58 66.8098 114.468 66.4839C113.851 66.3005 113.657 67.5535 113.657 67.5535C113.657 67.5535 111.923 73.1053 111.402 72.9321C110.881 72.7589 111.794 69.4533 112.172 68.3481C112.55 67.2428 112.237 66.6418 111.67 66.8506C111.282 66.9983 110.042 70.2988 109.691 71.3837C109.341 72.4686 108.414 75.4584 107.782 73.5789C107.151 71.6995 106.016 70.5229 105.509 70.4211C105.391 70.4157 105.274 70.4509 105.175 70.5218C105.076 70.5927 104.999 70.6959 104.955 70.8171C104.911 70.9383 104.902 71.0715 104.93 71.1986C104.957 71.3256 105.019 71.4401 105.108 71.5263C105.498 72.0535 105.819 72.6381 106.063 73.2632C106.276 73.7557 106.413 74.2842 106.468 74.8268C106.588 75.9151 106.611 77.0137 106.538 78.107V78.4126L101.069 93.4177L94.9777 78.6469C93.0272 71.4856 84.9718 71.1901 84.9718 71.1901L76.9855 70.2784C74.099 69.0509 70.8759 69.2598 69.0822 70.3905C67.9569 71.1272 66.9858 72.1192 66.2331 73.3009C65.4804 74.4827 64.9632 75.8274 64.7156 77.2462C62.8712 87.2394 56.4711 123.025 55.9547 138.698C55.6281 140.404 55.3849 142.128 55.2261 143.862C55.0693 146.577 55.2907 146.598 55.5766 146.562C56.3558 146.47 56.0377 141.795 56.6186 142.752C57.1996 143.71 56.4296 148.528 57.2365 148.396C58.3247 148.207 57.8636 143.317 57.8636 142.9C57.8636 142.482 58.3985 142.457 58.3893 142.834C58.3893 143.374 58.3524 149.068 59.3899 148.91C59.9616 148.823 59.7265 147.698 59.7265 147.698C59.7265 147.698 59.3899 142.37 59.8832 142.309C60.3766 142.248 60.6763 145.365 60.704 146.435C60.7317 147.504 61.1974 147.891 61.6262 147.494C61.9029 147.219 61.8798 143.969 61.8291 142.91C61.7784 141.851 61.5847 138.988 62.719 140.317C63.8533 141.647 65.1813 142.202 65.6378 142.075C65.7385 142.032 65.8248 141.957 65.8849 141.858C65.945 141.759 65.976 141.642 65.9734 141.523C65.9709 141.404 65.9351 141.289 65.8708 141.194C65.8066 141.098 65.7171 141.027 65.6147 140.99C65.1191 140.7 64.6615 140.336 64.2545 139.91C63.9263 139.586 63.6476 139.206 63.4291 138.784C63.36 138.647 63.3046 138.52 63.2401 138.392C63.4153 135.413 65.0015 109.813 69.0868 92.2716L69.8523 90.0866C70.6546 93.652 70.175 100.946 68.469 104.098C65.6701 109.324 65.8914 122.165 65.8914 122.165L91.6485 123.25C91.6485 123.25 91.4503 118.528 91.2243 112.497L90.6526 94.7623L90.7171 91.365L90.837 91.0085C92.082 93.2037 93.6405 96.0204 95.5633 99.6112C101.968 111.545 107.372 97.3396 107.372 97.3396L112.845 80.236C114.239 78.0901 115.528 75.8627 116.705 73.5637C117.917 70.8947 117.701 70.7878 117.396 70.6706Z" fill="#E5BAAB"/>
<path d="M77.751 207.188V202.604L69.9445 202.548L69.8799 209.287L70.3641 209.323C72.5174 209.47 81.3245 209.903 82.7677 209.435C84.377 208.885 77.751 207.188 77.751 207.188Z" fill="#FE7743"/>
<path d="M82.9522 208.991C82.9522 209.073 80.0288 209.139 76.4276 209.139C72.8264 209.139 69.9076 209.073 69.9076 208.991C69.9076 208.91 72.8264 208.844 76.4276 208.844C80.0288 208.844 82.9522 208.91 82.9522 208.991Z" fill="#273F4F"/>
<path d="M77.8893 208.131C77.8247 208.09 77.8893 207.84 78.0507 207.621C78.212 207.402 78.4195 207.26 78.4703 207.316C78.521 207.372 78.4149 207.581 78.2628 207.8C78.1106 208.019 77.9538 208.166 77.8893 208.131Z" fill="#273F4F"/>
<path d="M78.3873 208.431C78.3181 208.401 78.355 208.126 78.5072 207.84C78.6593 207.555 78.8668 207.382 78.9222 207.433C78.9775 207.484 78.8807 207.723 78.7377 207.988C78.5948 208.253 78.4564 208.462 78.3873 208.431Z" fill="#273F4F"/>
<path d="M72.2592 208.961C72.227 208.986 72.1117 208.864 71.9411 208.66C71.7328 208.393 71.5012 208.149 71.2494 207.932C71.0024 207.73 70.7141 207.599 70.4102 207.55C70.1751 207.514 70.0229 207.55 70.0091 207.509C69.9952 207.469 70.1382 207.362 70.4148 207.341C70.772 207.329 71.122 207.453 71.4062 207.693C71.6806 207.923 71.9136 208.208 72.0932 208.533C72.227 208.772 72.2869 208.935 72.2592 208.961Z" fill="#273F4F"/>
<path d="M77.9123 207.29C77.9492 207.357 77.8155 207.52 77.5942 207.606C77.3728 207.693 77.1699 207.662 77.1607 207.581C77.1515 207.499 77.3083 207.407 77.5019 207.331C77.6956 207.255 77.8754 207.194 77.9123 207.29Z" fill="#273F4F"/>
<path d="M77.7924 206.817C77.7924 206.898 77.5896 206.969 77.3313 206.975C77.0731 206.98 76.8702 206.913 76.8702 206.832C76.8702 206.75 77.087 206.679 77.3313 206.679C77.5757 206.679 77.7832 206.735 77.7924 206.817Z" fill="#273F4F"/>
<path d="M85.9908 205.559L87.2266 201.158L79.7844 198.555L77.9169 204.968L78.378 205.161C80.3977 206.007 88.6883 209.297 90.1961 209.323C91.8606 209.328 85.9908 205.559 85.9908 205.559Z" fill="#FE7743"/>
<path d="M90.4681 208.976C90.4681 209.058 87.6416 208.166 84.2018 206.985C80.7619 205.803 77.9907 204.789 78.0138 204.713C78.0368 204.637 80.8403 205.528 84.2802 206.705C87.72 207.881 90.4912 208.9 90.4681 208.976Z" fill="#273F4F"/>
<path d="M85.8663 206.501C85.8156 206.44 85.9355 206.226 86.1614 206.048C86.3874 205.869 86.6225 205.823 86.6225 205.895C86.6225 205.966 86.498 206.129 86.2905 206.292C86.083 206.455 85.917 206.557 85.8663 206.501Z" fill="#273F4F"/>
<path d="M86.2629 206.954C86.2029 206.903 86.3136 206.649 86.5349 206.445C86.7562 206.241 86.996 206.124 87.0375 206.19C87.079 206.256 86.9223 206.455 86.7148 206.664C86.5073 206.873 86.3182 207.005 86.2629 206.954Z" fill="#273F4F"/>
<path d="M80.2685 205.452C80.2317 205.452 80.1533 205.314 80.0426 205.059C79.9159 204.738 79.7615 204.431 79.5815 204.143C79.4001 203.867 79.1591 203.647 78.8806 203.501C78.6685 203.389 78.5117 203.374 78.5117 203.328C78.5117 203.282 78.6731 203.231 78.9452 203.302C79.2885 203.412 79.5888 203.645 79.7982 203.964C79.9957 204.273 80.1409 204.618 80.227 204.983C80.287 205.253 80.3008 205.441 80.2685 205.452Z" fill="#273F4F"/>
<path d="M86.1199 205.681C86.1199 205.757 85.9631 205.869 85.728 205.879C85.4928 205.89 85.313 205.793 85.3268 205.711C85.3407 205.63 85.5113 205.594 85.7188 205.584C85.9263 205.574 86.1061 205.599 86.1199 205.681Z" fill="#273F4F"/>
<path d="M86.1245 205.217C86.1245 205.294 85.8894 205.294 85.6634 205.217C85.4375 205.141 85.2023 205.003 85.2531 204.927C85.3038 204.851 85.4974 204.856 85.7372 204.927C85.977 204.998 86.1384 205.136 86.1245 205.217Z" fill="#273F4F"/>
<path d="M84.8196 71.7606C84.6997 70.8031 85.1655 66.82 85.1655 66.82C85.1655 66.82 88.4808 66.5552 88.7851 62.944C89.0894 59.3328 89.1309 50.9898 89.1309 50.9898L83.2242 47.5314L76.446 52.8285L74.6708 57.0356L76.921 66.2037V70.9508L84.8196 71.7606Z" fill="#E5BAAB"/>
<path d="M88.7206 56.5518C88.7436 56.5263 88.7206 56.4092 88.573 56.2717C88.3959 56.0966 88.1724 55.9893 87.9358 55.9654C87.6991 55.9416 87.4617 56.0025 87.2589 56.1392C87.1067 56.2462 87.0468 56.3532 87.0698 56.3837C87.0929 56.4143 87.4618 56.2156 87.909 56.2666C87.9666 56.2714 88.0236 56.2816 88.0796 56.2971C88.015 56.3348 87.9606 56.3906 87.9218 56.459C87.883 56.5274 87.8613 56.6058 87.8587 56.6864C87.8561 56.7671 87.8729 56.847 87.9073 56.9182C87.9416 56.9894 87.9924 57.0493 88.0545 57.0919C88.1165 57.1344 88.1876 57.1582 88.2606 57.1607C88.3336 57.1631 88.4059 57.1443 88.4702 57.1061C88.5345 57.0678 88.5885 57.0115 88.6268 56.9428C88.6651 56.8741 88.6863 56.7954 88.6883 56.7148C88.6975 56.6609 88.6975 56.6056 88.6883 56.5518C88.6883 56.5518 88.7067 56.5671 88.7206 56.5518Z" fill="#273F4F"/>
<path d="M83.7176 56.3786C83.7453 56.3531 83.7176 56.2309 83.5747 56.0985C83.3983 55.922 83.1752 55.8131 82.9383 55.7878C82.7 55.7649 82.4613 55.8255 82.2559 55.9609C82.1084 56.0679 82.0484 56.1749 82.0715 56.2054C82.0945 56.236 82.4588 56.0424 82.9107 56.0883C82.9839 56.0972 83.0564 56.1125 83.1274 56.1341C83.0706 56.1638 83.0206 56.2073 82.9813 56.2614C82.942 56.3156 82.9143 56.3788 82.9003 56.4465C82.8863 56.5141 82.8864 56.5844 82.9006 56.652C82.9148 56.7196 82.9427 56.7828 82.9822 56.8368C83.0217 56.8907 83.0718 56.9341 83.1287 56.9635C83.1856 56.993 83.2478 57.0078 83.3106 57.0069C83.3734 57.0059 83.4352 56.9892 83.4913 56.958C83.5475 56.9268 83.5965 56.882 83.6346 56.8268C83.6759 56.7624 83.7014 56.6873 83.7087 56.6087C83.7159 56.5302 83.7047 56.4509 83.6761 56.3786H83.7176Z" fill="#273F4F"/>
<path d="M85.2208 60.6418C85.4646 60.5838 85.7138 60.5581 85.9632 60.5654C86.0784 60.5654 86.1937 60.5654 86.2168 60.4584C86.2376 60.3201 86.2199 60.178 86.1661 60.0509C86.0784 59.725 85.9862 59.3735 85.8848 59.0323C85.6225 58.1431 85.4191 57.2341 85.2761 56.3124C85.3915 56.5567 85.4812 56.8147 85.5436 57.0815C85.6865 57.5654 85.8709 58.2326 86.0646 58.9762L86.3274 59.9949C86.3886 60.1562 86.4 60.3352 86.3597 60.5043C86.3415 60.5484 86.314 60.5872 86.2795 60.6173C86.245 60.6474 86.2046 60.668 86.1614 60.6774C86.0958 60.6898 86.0288 60.6898 85.9632 60.6774C85.7153 60.7006 85.4659 60.6887 85.2208 60.6418Z" fill="#273F4F"/>
<path d="M83.7176 61.0645C84.0819 61.2122 84.9533 61.9355 85.8755 61.9711C85.7038 62.2185 85.461 62.3941 85.187 62.469C84.9131 62.544 84.6242 62.5139 84.3677 62.3837C83.4179 61.8998 83.7176 61.0645 83.7176 61.0645Z" fill="#EFEDE9"/>
<path d="M85.1654 66.82C83.613 66.6934 82.1254 66.0803 80.8772 65.0526C80.8772 65.0526 81.7994 67.7419 85.0686 67.7063L85.1654 66.82Z" fill="#D78776"/>
<path d="M91.335 45.601C91.0926 45.3485 90.7969 45.1669 90.4748 45.0726C90.1527 44.9783 89.8144 44.9744 89.4906 45.0611C88.8472 45.2404 88.218 45.4771 87.6093 45.7691C86.9951 46.0587 86.309 46.1037 85.6681 45.8964C84.815 45.5399 84.3447 44.5365 83.6115 43.9406C83.2882 43.6799 82.9167 43.5012 82.5236 43.4174C82.1305 43.3336 81.7255 43.3466 81.3375 43.4556C80.9494 43.5646 80.588 43.7668 80.2789 44.0478C79.9698 44.3289 79.7206 44.6818 79.5492 45.0815C79.1804 45.9423 79.0881 47.1188 78.3319 47.511C77.7094 47.8421 76.9855 47.511 76.3261 47.2716C75.7186 47.0374 75.0609 47.0126 74.4402 47.2003C74.1322 47.3037 73.8576 47.5027 73.6492 47.7736C73.4407 48.0445 73.3071 48.3759 73.2644 48.7284C73.2275 49.3701 73.578 49.9813 73.5595 50.6282C73.5319 51.6112 72.6927 52.2988 71.9272 52.798C71.1618 53.2971 70.2995 53.8981 70.1474 54.8659C70.1206 55.2819 70.1855 55.6989 70.3365 56.0812C70.4875 56.4635 70.72 56.7997 71.0143 57.0611C71.6024 57.5803 72.1657 58.1328 72.7019 58.7165C73.186 59.348 73.4765 60.2801 73.1261 61.0187C72.9463 61.3854 72.6235 61.6757 72.5497 62.0832C72.4206 62.7708 73.0108 63.326 73.578 63.6723C74.137 64.0739 74.7648 64.3443 75.4224 64.4669C75.6846 64.4992 75.95 64.4803 76.2063 64.4109C76.6674 65.8625 76.9302 67.0849 76.9302 67.0849C77.4789 68.0679 77.4789 64.8591 77.4789 64.8591C77.4789 64.8591 77.7463 61.7623 77.2991 60.5857C77.2991 60.5857 75.6391 61.2988 75.0858 57.9627C74.8091 56.3175 77.0408 55.3803 77.7602 57.3463L79.1804 57.4024C79.1804 57.4024 79.0144 50.9694 82.2974 52.0798C88.0888 54.0407 91.1921 51.9779 91.5932 46.7827C91.6383 46.5772 91.6384 46.3629 91.5935 46.1573C91.5486 45.9518 91.46 45.7611 91.335 45.601Z" fill="#273F4F"/>
<path d="M77.1792 59.5823C77.1792 59.5823 77.1331 59.6231 77.0547 59.674C76.9414 59.7358 76.8109 59.7468 76.6904 59.7046C76.5045 59.5902 76.3494 59.4234 76.2408 59.2212C76.1323 59.019 76.0742 58.7886 76.0726 58.5535C76.0496 58.2894 76.0812 58.0229 76.1648 57.7742C76.1853 57.6761 76.227 57.585 76.2865 57.5087C76.3459 57.4324 76.4213 57.3732 76.506 57.3362C76.5609 57.3162 76.6204 57.3181 76.6742 57.3413C76.7281 57.3645 76.7729 57.4077 76.8011 57.4635C76.8426 57.5501 76.8288 57.6112 76.8426 57.6163C76.8564 57.6214 76.9025 57.5603 76.8703 57.4329C76.851 57.3582 76.8086 57.2932 76.7504 57.2496C76.711 57.22 76.6666 57.1993 76.6199 57.1888C76.5732 57.1784 76.5251 57.1782 76.4783 57.1885C76.3689 57.2237 76.2693 57.2888 76.1887 57.3778C76.1081 57.4669 76.0491 57.5769 76.0172 57.6978C75.9134 57.973 75.8708 58.2716 75.8927 58.5688C75.8947 58.8441 75.9701 59.1127 76.1095 59.341C76.2489 59.5693 76.4462 59.7472 76.6766 59.8523C76.7559 59.8772 76.8395 59.88 76.9199 59.8605C77.0004 59.8409 77.0752 59.7996 77.1377 59.7402C77.1792 59.6384 77.193 59.5823 77.1792 59.5823Z" fill="#D78776"/>
<path d="M91.4272 116.231L81.1861 115.365L65.6609 113.975L67.3946 206.078L80.8726 205.885C80.8726 205.885 80.8726 204.866 80.8403 203.063L88.7574 205.447C88.7574 205.447 96.4578 176.715 99.0815 164.924C101.258 155.083 91.4272 116.231 91.4272 116.231ZM80.6974 188.74C80.4899 167.48 80.2132 133.487 80.4945 129.066C80.4945 129.066 88.0427 158.735 88.1119 161.246C88.158 162.774 83.9758 177.464 80.6974 188.74Z" fill="#273F4F"/>
<path opacity="0.2" d="M80.6974 188.74L80.8403 203.058L83.0167 203.72L82.4911 182.531L80.6974 188.74Z" fill="#273F4F"/>
<path d="M80.3239 128.964C80.2824 128.939 80.6374 128.338 80.9371 127.253C81.2994 125.83 81.4627 124.355 81.4213 122.878C81.4213 121.146 81.306 119.562 81.3429 118.411C81.3475 117.958 81.3737 117.506 81.4213 117.056C81.4261 116.882 81.4557 116.71 81.5089 116.547C81.5504 116.547 81.5089 117.255 81.5089 118.39C81.5089 119.526 81.6519 121.1 81.6703 122.857C81.7132 124.363 81.5197 125.866 81.0985 127.299C80.962 127.73 80.7859 128.145 80.5729 128.537C80.5121 128.693 80.4279 128.838 80.3239 128.964Z" fill="#455A64"/>
<path d="M78.8991 117.316C78.8991 117.316 78.9498 117.224 79.0974 117.158C79.3142 117.067 79.5537 117.067 79.7706 117.158C79.94 117.218 80.0903 117.33 80.2032 117.482C80.3161 117.634 80.3868 117.818 80.4069 118.014C80.445 118.257 80.4097 118.507 80.3064 118.726C80.2032 118.945 80.0377 119.12 79.8354 119.225C79.6332 119.329 79.4053 119.358 79.187 119.306C78.9686 119.253 78.7719 119.123 78.627 118.935C78.5034 118.792 78.4201 118.613 78.3873 118.418C78.3546 118.224 78.3738 118.023 78.4426 117.84C78.5219 117.601 78.6755 117.401 78.876 117.275C79.019 117.194 79.1112 117.194 79.1158 117.214C78.8846 117.376 78.7105 117.62 78.6224 117.907C78.5803 118.051 78.5747 118.206 78.6064 118.354C78.6381 118.503 78.7058 118.638 78.8023 118.747C78.9114 118.899 79.0635 119.006 79.2341 119.05C79.4048 119.095 79.5841 119.076 79.7435 118.995C79.9029 118.914 80.033 118.776 80.1132 118.604C80.1933 118.431 80.2188 118.234 80.1856 118.044C80.1713 117.894 80.1211 117.75 80.0401 117.629C79.959 117.507 79.8501 117.411 79.7245 117.351C79.4611 117.236 79.1698 117.223 78.8991 117.316Z" fill="#455A64"/>
<path d="M92.4094 120.784C92.1292 121.015 91.7978 121.158 91.4503 121.197C90.6156 121.366 89.7537 121.203 89.0175 120.737C88.2814 120.271 87.7187 119.531 87.4294 118.65C87.285 118.302 87.2293 117.916 87.2681 117.535C87.3142 117.535 87.3557 117.958 87.6047 118.553C87.9311 119.351 88.47 120.019 89.1494 120.469C89.8429 120.894 90.6385 121.072 91.4272 120.978C92.0359 120.917 92.3909 120.739 92.4094 120.784Z" fill="#455A64"/>
<path d="M71.4523 115.253C71.4523 115.253 71.5261 115.385 71.586 115.645C71.667 116.013 71.7027 116.392 71.6921 116.771C71.6778 118.047 71.2138 119.267 70.3985 120.171C69.5831 121.076 68.4808 121.593 67.3254 121.615C66.9812 121.627 66.637 121.59 66.3018 121.503C66.1777 121.481 66.0586 121.432 65.9514 121.36C66.4113 121.403 66.8731 121.419 67.3347 121.406C68.4274 121.334 69.4582 120.821 70.231 119.965C71.0038 119.108 71.4647 117.968 71.5261 116.761C71.5296 116.257 71.505 115.753 71.4523 115.253Z" fill="#455A64"/>
<path d="M80.9464 202.385C80.9464 202.467 77.9308 202.533 74.2143 202.533C70.4978 202.533 67.4822 202.467 67.4822 202.385C67.4822 202.304 70.4932 202.238 74.2143 202.238C77.9354 202.238 80.9464 202.304 80.9464 202.385Z" fill="#455A64"/>
<path d="M69.2482 202.599C69.1745 202.599 68.9624 184.436 68.7871 162.031C68.6119 139.625 68.5151 121.462 68.5889 121.462C68.6626 121.462 68.8701 139.62 69.05 162.031C69.2298 184.441 69.322 202.599 69.2482 202.599Z" fill="#455A64"/>
<path d="M81.1262 192.341C81.1327 192.282 81.145 192.224 81.1631 192.168L81.2876 191.659C81.4121 191.211 81.5827 190.574 81.7994 189.769C82.2605 188.114 82.9245 185.75 83.736 182.837C84.5476 179.924 85.5435 176.43 86.6364 172.569C87.1851 170.638 87.7615 168.611 88.3563 166.508L89.2785 163.304C89.4214 162.764 89.6105 162.204 89.7396 161.674C89.7251 161.113 89.6587 160.555 89.5413 160.009C89.0802 157.732 88.5407 155.531 88.0104 153.413C87.4802 151.294 86.9315 149.251 86.4104 147.301C85.3683 143.414 84.4 139.93 83.5885 137.002C82.7769 134.073 82.1176 131.725 81.6518 130.07C81.4305 129.265 81.2599 128.633 81.1354 128.185L81.0063 127.676C80.9883 127.62 80.9759 127.562 80.9694 127.503C80.9933 127.555 81.0134 127.61 81.0294 127.666C81.0709 127.788 81.1216 127.951 81.1861 128.149C81.3199 128.598 81.5089 129.224 81.7533 130.019C82.2144 131.669 82.9199 134.022 83.7683 136.925C84.6167 139.829 85.6127 143.328 86.6456 147.204C87.1712 149.144 87.7199 151.182 88.2594 153.316C88.7989 155.45 89.3569 157.635 89.7995 159.937C89.8548 160.228 89.9056 160.513 89.9425 160.803C89.9687 160.949 89.9857 161.097 89.9932 161.246C90.0119 161.402 90.0119 161.559 89.9932 161.715C89.8687 162.306 89.6888 162.825 89.5321 163.375L88.6099 166.579C88.0058 168.677 87.4248 170.705 86.8715 172.635L83.9159 182.888C83.0674 185.791 82.3804 188.144 81.9008 189.795L81.3383 191.669C81.2784 191.868 81.2276 192.025 81.1861 192.153C81.1714 192.218 81.1513 192.281 81.1262 192.341Z" fill="#455A64"/>
<path d="M80.8311 199.075C81.2524 199.178 81.6644 199.323 82.0623 199.508L85.147 200.699L88.2318 201.886C88.6679 202.027 89.0909 202.213 89.4952 202.441C89.046 202.371 88.6042 202.252 88.1765 202.085C87.3695 201.83 86.2675 201.443 85.0594 200.98C83.8513 200.516 82.7539 200.058 81.9977 199.706C81.5848 199.555 81.1924 199.342 80.8311 199.075Z" fill="#455A64"/>
<path d="M73.8224 156.708C73.8799 156.636 73.9486 156.575 74.0252 156.53C74.2359 156.381 74.4684 156.274 74.7123 156.214C75.1032 156.113 75.5111 156.123 75.8973 156.244C76.4138 156.418 76.8633 156.776 77.1746 157.263C77.5351 157.866 77.7127 158.579 77.6818 159.301C77.6818 160.054 77.6403 160.829 77.6172 161.674C77.6136 162.554 77.5489 163.433 77.4236 164.302C77.3489 164.774 77.1923 165.225 76.9625 165.632C76.7041 166.058 76.3193 166.371 75.8743 166.518C75.4367 166.632 74.9798 166.618 74.5483 166.479C74.1167 166.34 73.7252 166.08 73.412 165.723C72.8531 165.055 72.4969 164.211 72.3929 163.309C72.2194 161.823 72.323 160.313 72.6973 158.873C72.8187 158.312 73.0128 157.773 73.2736 157.273C73.4787 156.887 73.793 156.587 74.1682 156.418C74.4046 156.31 74.6649 156.283 74.9152 156.341C75.0014 156.356 75.0835 156.393 75.1549 156.448C74.8412 156.354 74.5076 156.381 74.2097 156.525C73.8654 156.698 73.582 156.992 73.4028 157.36C73.1645 157.853 72.9877 158.379 72.8771 158.924C72.5419 160.341 72.4605 161.817 72.6373 163.268C72.7392 164.109 73.0724 164.895 73.5918 165.52C73.8741 165.837 74.2253 166.069 74.612 166.194C74.9987 166.319 75.4079 166.332 75.8005 166.233C76.1797 166.103 76.5059 165.831 76.7227 165.464C76.949 165.094 77.1058 164.679 77.1838 164.241C77.3059 163.387 77.3721 162.524 77.3821 161.659C77.4143 160.829 77.4697 160.029 77.4743 159.301C77.5116 158.632 77.3584 157.968 77.0362 157.401C76.7513 156.946 76.3402 156.607 75.865 156.433C75.5048 156.304 75.121 156.278 74.7492 156.357C74.426 156.422 74.1135 156.54 73.8224 156.708Z" fill="#455A64"/>
<path d="M93.1748 160.966C92.3416 161.184 91.4901 161.305 90.6341 161.328C89.7854 161.447 88.9276 161.468 88.075 161.389C88.9086 161.174 89.7599 161.054 90.6157 161.032C91.4644 160.913 92.322 160.89 93.1748 160.966Z" fill="#455A64"/>
<path d="M92.2941 162.637C90.9787 162.425 89.6956 162.015 88.4808 161.419C89.1451 161.481 89.7992 161.639 90.4266 161.888C91.0763 162.046 91.7042 162.297 92.2941 162.637Z" fill="#455A64"/>
<path d="M98.4406 158.017C98.5157 158.044 98.5859 158.085 98.6481 158.139C98.8335 158.288 98.9837 158.483 99.0861 158.71C99.3904 159.29 99.4642 160.263 99.4458 161.404C99.4734 162.765 99.2523 164.118 98.7956 165.382C98.5041 166.135 98.0683 166.809 97.5184 167.358C97.2293 167.665 96.8808 167.895 96.4993 168.031C96.2875 168.089 96.0657 168.089 95.8538 168.031C95.6361 167.966 95.4424 167.827 95.3005 167.633C95.0596 167.26 94.9088 166.825 94.8624 166.37C94.7894 165.953 94.7386 165.531 94.7103 165.107C94.6635 164.306 94.6944 163.502 94.8025 162.708C94.9883 161.363 95.4046 160.07 96.029 158.898C96.2576 158.426 96.6031 158.036 97.025 157.773C97.1902 157.68 97.3712 157.626 97.5563 157.616C97.7414 157.605 97.9264 157.638 98.0994 157.711C98.3229 157.804 98.5071 157.986 98.6158 158.221C98.6548 158.299 98.6768 158.386 98.6803 158.475C98.6803 158.475 98.6481 158.389 98.5697 158.251C98.4476 158.058 98.2709 157.914 98.0671 157.844C97.9079 157.783 97.7389 157.76 97.5712 157.777C97.4035 157.793 97.2409 157.849 97.0941 157.941C96.701 158.2 96.3815 158.576 96.1719 159.025C95.5859 160.185 95.1982 161.454 95.0284 162.769C94.9291 163.543 94.9043 164.327 94.9546 165.107C94.984 165.519 95.0333 165.929 95.1022 166.334C95.1455 166.741 95.2785 167.129 95.4895 167.465C95.5987 167.611 95.7457 167.716 95.9107 167.766C96.0756 167.816 96.2505 167.809 96.4117 167.745C96.7577 167.625 97.0734 167.418 97.3339 167.139C97.8536 166.618 98.267 165.981 98.5466 165.27C98.9977 164.04 99.2294 162.726 99.229 161.399C99.3228 160.509 99.2329 159.607 98.9662 158.761C98.8419 158.474 98.6625 158.22 98.4406 158.017Z" fill="#455A64"/>
<path d="M106.141 65.2207L109.217 79.9559L116.414 78.2394L113.897 63.1172L106.141 65.2207Z" fill="#273F4F"/>
<path d="M106.994 65.9796L109.35 77.7759L115.594 76.0747L113.362 64.2224L106.994 65.9796Z" fill="white"/>
<path d="M113.385 77.9185C113.386 78.064 113.348 78.2065 113.275 78.3279C113.202 78.4493 113.099 78.5441 112.977 78.6002C112.856 78.6564 112.722 78.6713 112.593 78.6432C112.463 78.6151 112.345 78.5451 112.251 78.4422C112.158 78.3393 112.095 78.2082 112.069 78.0654C112.044 77.9227 112.058 77.7748 112.108 77.6406C112.159 77.5064 112.245 77.3919 112.355 77.3117C112.465 77.2315 112.594 77.1892 112.726 77.1902C112.9 77.1902 113.068 77.2669 113.192 77.4035C113.315 77.5401 113.385 77.7254 113.385 77.9185Z" fill="#455A64"/>
<path d="M111.467 64.3803L108.612 65.0883L108.622 65.1341L111.476 64.4261L111.467 64.3803Z" fill="#455A64"/>
<path d="M113.027 65.2531L107.525 66.6183L108.511 71.4686L114.013 70.1034L113.027 65.2531Z" fill="#F0F0F0"/>
<path d="M108.663 72.0204L109.083 73.747L114.482 72.382L114.1 70.5026L108.663 72.0204Z" fill="white"/>
<path d="M109.263 74.4143L109.756 77.0374L115.091 75.5654L114.579 73.0645L109.263 74.4143Z" fill="#EBEBEB"/>
<path d="M69.6494 91.2275C69.5018 92.1188 69.2851 93.4635 69.0269 95.0424C72.1762 95.1902 75.9434 95.3735 80.0426 95.5823C84.3447 95.8064 88.3424 96.0204 91.5701 96.2037L91.5379 92.3481C88.3102 92.2003 84.4185 92.0119 80.1994 91.7929C76.3077 91.5942 72.7019 91.4007 69.6494 91.2275Z" fill="#FE7743"/>
<path d="M65.2044 74.5976C64.589 75.8344 64.0573 77.1198 63.6136 78.4431C67.0488 78.5756 73.4258 78.871 80.7296 79.2479C87.222 79.579 92.9903 79.8998 96.5962 80.1189C96.1141 78.7497 95.5503 77.4174 94.9085 76.1307C91.3258 75.9779 86.3643 75.7385 80.8864 75.4584C74.5002 75.1324 68.824 74.8166 65.2044 74.5976Z" fill="#FE7743"/>
<path d="M84.8519 71.2156C84.6185 71.5491 84.3525 71.8531 84.0588 72.1222C86.5211 72.2496 88.8312 72.3718 90.9062 72.489C88.944 71.7874 86.9102 71.3597 84.8519 71.2156Z" fill="#FE7743"/>
<path d="M74.1129 115.564L91.7638 118.62V116.414C88.3378 116.256 83.9251 116.048 79.1481 115.798L74.1129 115.564Z" fill="#FE7743"/>
<path d="M92.2526 94.365L93.5944 92.4397L91.5563 92.3481L92.2526 94.365Z" fill="#FE7743"/>
<path d="M66.892 107.46C66.6107 108.861 66.3341 110.2 66.1035 111.29C69.6125 111.443 74.2558 111.667 79.3556 111.932C84.0311 112.171 88.324 112.401 91.7131 112.594L91.6808 108.733C88.324 108.581 84.1003 108.377 79.517 108.143C74.7169 107.883 70.3134 107.649 66.892 107.46Z" fill="#FE7743"/>
<path d="M66.0574 111.494C65.7531 112.91 65.5456 113.847 65.5456 113.847L72.001 115.177C74.2097 115.284 76.612 115.401 79.125 115.533C83.9159 115.778 88.3056 116.012 91.7316 116.211L91.6993 112.818C88.3102 112.66 84.0127 112.457 79.3279 112.212C74.2281 111.952 69.5664 111.698 66.0574 111.494Z" fill="#FE7743"/>
<path d="M67.6667 103.385C67.4499 104.603 67.2055 105.932 66.9381 107.211C70.3595 107.363 74.7446 107.577 79.5262 107.822C84.1095 108.056 88.324 108.285 91.6762 108.474L91.6439 104.613C88.3194 104.46 84.1787 104.261 79.6876 104.032C75.1964 103.803 71.0004 103.589 67.6667 103.385Z" fill="#FE7743"/>
<path d="M62.4055 82.6044C62.0136 84.1885 61.7415 85.5586 61.5525 86.5773C64.1531 86.6537 71.5906 86.9898 80.3654 87.4431C87.0007 87.7793 92.8659 88.1053 96.4579 88.3294L98.3023 85.6503C98.3023 85.6503 98.1824 85.197 97.9703 84.4686C94.6273 84.3413 88.0612 84.0357 80.5083 83.6486C72.4298 83.2105 65.4626 82.8184 62.4055 82.6044Z" fill="#FE7743"/>
<path d="M61.5524 86.6435C61.4095 87.4737 61.3403 87.9728 61.3403 87.9728L69.8523 90.1019C69.8523 90.1019 69.8016 90.4227 69.7093 90.983C72.7618 91.1256 76.3676 91.2988 80.2363 91.4924C85.4698 91.7623 90.2237 92.0017 93.7604 92.2258L96.3841 88.4618C92.7782 88.3141 86.9591 88.039 80.3977 87.7029C71.586 87.2598 64.1392 86.837 61.5524 86.6435Z" fill="#FE7743"/>
<path d="M68.99 95.2869C68.7964 96.4686 68.5888 97.7725 68.3721 99.107C71.5998 99.2547 75.5838 99.4482 79.872 99.6672C84.2663 99.8913 88.324 100.11 91.607 100.299L91.5748 96.4431C88.324 96.2954 84.3401 96.0968 80.0472 95.8778C75.9388 95.6689 72.1578 95.4652 68.99 95.2869Z" fill="#FE7743"/>
<path d="M63.5628 78.5858C63.1017 79.9253 62.7421 81.2598 62.4331 82.4924C65.5087 82.5942 72.4621 82.9151 80.5544 83.3328C88.075 83.7148 94.6134 84.0815 97.961 84.3005C97.6659 83.2818 97.214 81.8302 96.6607 80.2971C93.0549 80.1494 87.2542 79.8744 80.7158 79.5433C73.3797 79.1664 66.9842 78.8099 63.5628 78.5858Z" fill="#FE7743"/>
<path d="M68.3353 99.3412C68.2062 100.136 68.077 100.935 67.9525 101.72C67.8788 102.178 67.7958 102.662 67.7082 103.166C71.0373 103.319 75.1918 103.523 79.6968 103.752C84.2018 103.981 88.324 104.205 91.6439 104.394L91.6117 100.538C88.3194 100.385 84.2571 100.187 79.8582 99.9626C75.5561 99.7436 71.5814 99.5297 68.3353 99.3412Z" fill="#FE7743"/>
<path d="M78.7008 71.8472C78.0381 71.3551 77.4286 70.7809 76.8841 70.1358C76.8841 70.1358 72.3929 67.961 68.8839 70.0645C68.3372 70.3995 67.8358 70.8179 67.3946 71.3073C70.4148 71.4397 74.3388 71.6231 78.7008 71.8472Z" fill="#FE7743"/>
<path d="M67.2148 71.506C66.4656 72.384 65.8196 73.3628 65.292 74.4194C68.9163 74.5722 74.5601 74.837 80.9003 75.163C86.3182 75.438 91.2197 75.708 94.7979 75.9168C94.415 75.1248 93.9039 74.4171 93.2901 73.8285C92.761 73.4012 92.1865 73.0471 91.5794 72.7742C89.2462 72.6672 86.5811 72.5399 83.7407 72.3973C82.1775 73.5433 80.4853 73.0034 79.1712 72.163C74.5279 71.9185 70.3641 71.6944 67.2148 71.506Z" fill="#FE7743"/>
<path d="M65.292 74.4194C65.2601 74.4771 65.2308 74.5366 65.2044 74.5976C68.824 74.8167 74.5002 75.1324 80.8818 75.4584C86.3597 75.7386 91.3212 75.9678 94.9039 76.1307L94.7933 75.9168C91.2151 75.708 86.3136 75.438 80.8957 75.163C74.5601 74.8625 68.9301 74.5722 65.292 74.4194Z" fill="#273F4F"/>
<path d="M90.9062 72.489C88.8312 72.3718 86.5211 72.2496 84.0588 72.1223C83.9481 72.2173 83.8375 72.309 83.7268 72.3973C86.581 72.5399 89.26 72.6672 91.5655 72.7742C91.358 72.6723 91.1321 72.5807 90.9062 72.489Z" fill="#273F4F"/>
<path d="M67.3946 71.2971C67.33 71.3582 67.2747 71.4295 67.2148 71.4958C70.3641 71.6842 74.5278 71.9083 79.1573 72.1528C79.0005 72.0509 78.8483 71.944 78.6962 71.837C74.3388 71.6231 70.4148 71.4397 67.3946 71.2971Z" fill="#273F4F"/>
<path d="M63.6136 78.4279C63.5994 78.4766 63.5825 78.5242 63.5628 78.5705C66.9842 78.7946 73.3797 79.1511 80.7158 79.528C87.2542 79.8591 93.0549 80.1341 96.6607 80.2818C96.6607 80.2258 96.6192 80.1647 96.5962 80.1036C92.9903 79.8846 87.222 79.5637 80.7296 79.2326C73.4258 78.871 67.0488 78.5756 63.6136 78.4279Z" fill="#273F4F"/>
<path d="M62.4332 82.5026L62.4055 82.6146C65.4626 82.8285 72.4298 83.2207 80.5452 83.6333C88.0981 84.0204 94.6642 84.326 98.0071 84.4533C98.0071 84.4075 97.9795 84.3616 97.961 84.3107C94.6134 84.0917 88.075 83.725 80.5544 83.343C72.4621 82.9151 65.5087 82.5942 62.4332 82.5026Z" fill="#273F4F"/>
<path d="M61.5525 86.5772C61.5546 86.6078 61.5546 86.6384 61.5525 86.6689C64.1392 86.8625 71.586 87.2852 80.3746 87.7334C86.9361 88.0696 92.7552 88.3446 96.361 88.4923L96.4763 88.3294C92.8843 88.1053 87.0191 87.7793 80.3838 87.4431C71.6091 86.9643 64.1715 86.6282 61.5525 86.5772Z" fill="#273F4F"/>
<path d="M69.6863 90.983C69.6863 91.0594 69.6863 91.1409 69.6494 91.2275C72.7019 91.4007 76.3215 91.5942 80.1994 91.7929C84.4185 92.0119 88.324 92.2004 91.5379 92.3481L93.576 92.4397L93.7189 92.2309C90.1822 92.0272 85.4191 91.7674 80.1948 91.4975C76.3446 91.2988 72.7388 91.1256 69.6863 90.983Z" fill="#273F4F"/>
<path d="M69.0269 95.0424C69.0269 95.1239 69.0039 95.2054 68.99 95.2869C72.144 95.4652 75.9388 95.6689 80.0288 95.8778C84.3401 96.0968 88.3286 96.2954 91.5563 96.4431V96.2037C88.3286 96.0204 84.3309 95.8065 80.0288 95.5823C75.9665 95.3735 72.1578 95.1902 69.0269 95.0424Z" fill="#273F4F"/>
<path d="M68.3721 99.107C68.3721 99.1834 68.3721 99.2649 68.3352 99.3413C71.5629 99.5297 75.5561 99.7436 79.8628 99.9626C84.2617 100.187 88.324 100.385 91.6163 100.538V100.299C88.3332 100.11 84.2755 99.8913 79.8812 99.6672C75.5838 99.4482 71.6137 99.2547 68.3721 99.107Z" fill="#273F4F"/>
<path d="M67.7082 103.166L67.6667 103.401C71.0004 103.589 75.1642 103.813 79.6876 104.048C84.211 104.282 88.3194 104.475 91.6439 104.628V104.404C88.324 104.216 84.1879 103.992 79.6968 103.762C75.2057 103.533 71.0373 103.319 67.7082 103.166Z" fill="#273F4F"/>
<path d="M66.9381 107.226C66.9381 107.297 66.9058 107.374 66.892 107.45C70.318 107.649 74.7307 107.883 79.517 108.132C84.1003 108.367 88.324 108.57 91.6808 108.723V108.479C88.3286 108.29 84.1141 108.061 79.5308 107.827C74.7446 107.593 70.3595 107.379 66.9381 107.226Z" fill="#273F4F"/>
<path d="M66.1035 111.28C66.1035 111.351 66.0713 111.423 66.0574 111.494C69.5664 111.698 74.2282 111.952 79.3418 112.212C84.0266 112.457 88.324 112.66 91.7131 112.818V112.589C88.324 112.396 84.0312 112.166 79.3556 111.927C74.2558 111.657 69.6125 111.433 66.1035 111.28Z" fill="#273F4F"/>
<path d="M72.0149 115.177L73.8316 115.548H74.1129L79.1297 115.808C83.9205 116.058 88.3194 116.267 91.7454 116.424H91.7731V116.195C88.3471 115.997 83.9343 115.762 79.1665 115.518C76.6259 115.401 74.2235 115.284 72.0149 115.177Z" fill="#273F4F"/>
<path d="M91.6716 96.0815C91.5978 96.0815 91.2797 93.1273 90.9615 89.4601C90.6434 85.7929 90.4451 82.8387 90.5004 82.8387C90.5557 82.8387 90.8924 85.7929 91.2105 89.4601C91.5287 93.1273 91.7454 96.0713 91.6716 96.0815Z" fill="#273F4F"/>
<path d="M91.3719 81.3973C91.4318 81.4431 91.2336 81.8811 90.9108 82.3803C90.588 82.8794 90.3067 83.2513 90.2422 83.2054C90.1776 83.1596 90.3805 82.6961 90.7033 82.2173C91.0261 81.7385 91.3119 81.3514 91.3719 81.3973Z" fill="#273F4F"/>
<path d="M87.1713 97.2734C87.2081 97.3447 83.9804 99.3107 79.9596 101.649C75.9388 103.986 72.6558 105.83 72.6235 105.759C72.5912 105.688 75.8189 103.722 79.8351 101.389C83.8513 99.056 87.139 97.197 87.1713 97.2734Z" fill="#273F4F"/>
<path d="M87.9505 100.778C87.4477 100.942 86.9345 101.065 86.415 101.144L82.7262 101.913L79.0374 102.744C78.5307 102.891 78.0142 102.993 77.4927 103.049C77.9773 102.825 78.4808 102.654 78.9959 102.54C79.9181 102.27 81.2369 101.934 82.6847 101.618C84.1326 101.302 85.4513 101.073 86.4197 100.93C86.9249 100.83 87.4372 100.779 87.9505 100.778Z" fill="#273F4F"/>
<path d="M70.2719 85.1969C70.323 85.6331 70.323 86.0748 70.2719 86.511C70.2442 87.3209 70.1658 88.4363 70.0229 89.6638C69.8799 90.8913 69.6909 91.9966 69.5341 92.7912C69.4711 93.2246 69.3628 93.6485 69.2113 94.0543C69.2117 93.6152 69.2581 93.1777 69.3497 92.7504C69.4603 91.9508 69.6125 90.8506 69.7554 89.6282C69.8984 88.4058 70.009 87.2954 70.0828 86.4957C70.1052 86.0568 70.1686 85.6215 70.2719 85.1969Z" fill="#273F4F"/>
<path d="M84.9165 71.0119C84.8654 71.141 84.7953 71.2597 84.709 71.3633C84.5023 71.6649 84.2741 71.9476 84.0265 72.2088C83.6583 72.6177 83.2058 72.9218 82.7078 73.0951C82.0901 73.2782 81.4396 73.2782 80.8219 73.0951C79.7248 72.7538 78.7083 72.1524 77.8432 71.3328C77.5822 71.0872 77.3386 70.8199 77.1146 70.5331C76.9579 70.3345 76.8841 70.2071 76.8979 70.197C76.9117 70.1868 77.2806 70.6095 77.9538 71.1851C78.8227 71.9415 79.8175 72.5022 80.8818 72.8353C81.4592 73.0159 82.0688 73.0299 82.6525 72.8761C83.1214 72.7222 83.5531 72.4541 83.9159 72.0917C84.5476 71.4448 84.8842 70.9813 84.9165 71.0119Z" fill="#273F4F"/>
</svg>
