<svg width="189" height="185" viewBox="0 0 189 185" fill="none" xmlns="http://www.w3.org/2000/svg">
<path d="M188.472 124.476H116.169V82.6354H188.472V124.476ZM116.61 124.035H188.031V83.0766H116.61V124.035Z" fill="white"/>
<path d="M173.556 104.945H125.852V106.344H173.556V104.945Z" fill="#F0F0F0"/>
<path d="M176.843 110.16H125.852V111.686H176.843V110.16Z" fill="#F0F0F0"/>
<path d="M176.843 115.436H125.852V116.963H176.843V115.436Z" fill="#F0F0F0"/>
<path d="M142.524 97.3705H125.852V101.001H142.524V97.3705Z" fill="#F0F0F0"/>
<path d="M188.251 82.856H116.403V89.5177H188.251V82.856Z" fill="white"/>
<path d="M182.724 88.5206C182.631 88.4324 183.557 87.3163 184.788 86.028C186.019 84.7398 187.1 83.7648 187.188 83.8487C187.276 83.9325 186.354 85.0531 185.124 86.3457C183.893 87.6383 182.812 88.6089 182.724 88.5206Z" fill="white"/>
<path d="M187.197 88.5206C187.109 88.6089 186.032 87.6383 184.797 86.3457C183.562 85.0531 182.64 83.9369 182.732 83.8487C182.825 83.7604 183.897 84.731 185.132 86.028C186.368 87.3251 187.281 88.4324 187.197 88.5206Z" fill="white"/>
<path d="M99.5014 0H27.6525V41.4038H99.5014V0Z" fill="#E6E6E6"/>
<path d="M84.8104 22.0938H37.1068V23.4923H84.8104V22.0938Z" fill="#F0F0F0"/>
<path d="M88.0971 27.3084H37.1068V28.8348H88.0971V27.3084Z" fill="#F0F0F0"/>
<path d="M88.0971 32.5848H37.1068V34.1112H88.0971V32.5848Z" fill="#F0F0F0"/>
<path d="M53.7785 14.5189H37.1068V18.1497H53.7785V14.5189Z" fill="#F0F0F0"/>
<path d="M99.5014 0H27.6525V6.66166H99.5014V0Z" fill="white"/>
<path d="M93.7309 5.63373C93.6382 5.54991 94.5647 4.42934 95.7955 3.14113C97.0264 1.85291 98.1073 0.877928 98.1955 0.966162C98.2837 1.0544 97.3617 2.17055 96.1308 3.45877C94.9 4.74698 93.8191 5.71314 93.7309 5.63373Z" fill="white"/>
<path d="M98.1955 5.63373C98.1072 5.72197 97.0308 4.75139 95.7955 3.45877C94.5602 2.16614 93.6382 1.0544 93.7308 0.966162C93.8235 0.877929 94.8955 1.8485 96.1308 3.14113C97.3661 4.43375 98.2881 5.54991 98.1955 5.63373Z" fill="white"/>
<path d="M72.29 76.9135H0V35.0686H72.29V76.9135ZM0.441169 76.4723H71.8488V35.5097H0.441169V76.4723Z" fill="white"/>
<path d="M57.3785 57.3829H9.67484V58.7814H57.3785V57.3829Z" fill="#F0F0F0"/>
<path d="M60.6652 62.5975H9.67484V64.124H60.6652V62.5975Z" fill="#F0F0F0"/>
<path d="M60.6652 67.8739H9.67484V69.4004H60.6652V67.8739Z" fill="#F0F0F0"/>
<path d="M26.3466 49.808H9.67484V53.4388H26.3466V49.808Z" fill="#F0F0F0"/>
<path d="M72.0694 35.2891H0.220581V41.9508H72.0694V35.2891Z" fill="white"/>
<path d="M155.72 86.5001H70.8827V162.452H155.72V86.5001Z" fill="#E6E6E6"/>
<path d="M75.1488 62.5755H8.69104V131.623H75.1488V62.5755Z" fill="#F0F0F0"/>
<path d="M75.1488 62.5755H8.69104V70.0974H75.1488V62.5755Z" fill="white"/>
<path d="M14.1792 66.2592C14.1671 66.532 14.0752 66.7952 13.9148 67.0162C13.7545 67.2372 13.5327 67.4062 13.2772 67.5023C13.0216 67.5984 12.7435 67.6174 12.4772 67.5568C12.211 67.4963 11.9684 67.3589 11.7796 67.1617C11.5907 66.9645 11.4639 66.7161 11.415 66.4475C11.366 66.1789 11.397 65.9018 11.5041 65.6507C11.6112 65.3995 11.7896 65.1853 12.0174 65.0347C12.2451 64.8841 12.5121 64.8036 12.7851 64.8034C13.1627 64.8126 13.5212 64.9709 13.7824 65.2437C14.0437 65.5165 14.1863 65.8816 14.1792 66.2592Z" fill="white"/>
<path d="M19.8394 66.2592C19.8281 66.5333 19.7365 66.798 19.576 67.0204C19.4155 67.2428 19.1931 67.4131 18.9365 67.5101C18.6799 67.607 18.4005 67.6264 18.133 67.5658C17.8655 67.5052 17.6217 67.3672 17.432 67.1691C17.2423 66.971 17.115 66.7215 17.066 66.4516C17.017 66.1817 17.0485 65.9034 17.1565 65.6512C17.2645 65.3991 17.4443 65.1843 17.6734 65.0335C17.9026 64.8828 18.171 64.8027 18.4453 64.8034C18.8229 64.8126 19.1814 64.9709 19.4426 65.2437C19.7039 65.5165 19.8465 65.8816 19.8394 66.2592Z" fill="white"/>
<path d="M25.4996 66.2592C25.4884 66.5333 25.3968 66.798 25.2362 67.0204C25.0757 67.2428 24.8533 67.4131 24.5967 67.5101C24.3401 67.607 24.0607 67.6264 23.7932 67.5658C23.5257 67.5052 23.2819 67.3672 23.0922 67.1691C22.9025 66.971 22.7752 66.7215 22.7262 66.4516C22.6773 66.1817 22.7087 65.9034 22.8167 65.6512C22.9247 65.3991 23.1045 65.1843 23.3336 65.0335C23.5628 64.8828 23.8312 64.8027 24.1055 64.8034C24.4831 64.8126 24.8416 64.9709 25.1029 65.2437C25.3641 65.5165 25.5067 65.8816 25.4996 66.2592Z" fill="white"/>
<path d="M178.982 15.1012H94.1456V99.6558H178.982V15.1012Z" fill="#F0F0F0"/>
<path d="M178.982 15.1012H94.1456V25.0055H178.982V15.1012Z" fill="white"/>
<path d="M101.372 19.9541C101.356 20.3142 101.235 20.6617 101.024 20.9536C100.813 21.2455 100.52 21.4689 100.183 21.5961C99.8457 21.7232 99.4786 21.7485 99.1271 21.6688C98.7756 21.5891 98.4553 21.4079 98.2059 21.1478C97.9565 20.8876 97.789 20.5599 97.7242 20.2054C97.6595 19.8509 97.7002 19.4851 97.8415 19.1535C97.9828 18.822 98.2183 18.5392 98.5189 18.3404C98.8195 18.1415 99.1718 18.0353 99.5322 18.035C100.03 18.0466 100.504 18.255 100.848 18.6147C101.193 18.9743 101.381 19.456 101.372 19.9541Z" fill="white"/>
<path d="M108.285 18.6571C108.53 18.9227 108.691 19.2544 108.748 19.6108C108.805 19.9673 108.757 20.3328 108.608 20.6617C108.459 20.9906 108.217 21.2685 107.911 21.4607C107.605 21.6529 107.25 21.7508 106.889 21.7424C106.528 21.734 106.177 21.6195 105.881 21.4133C105.585 21.2071 105.355 20.9182 105.222 20.5827C105.089 20.2472 105.057 19.8798 105.131 19.5264C105.205 19.173 105.381 18.8492 105.638 18.5953C105.998 18.2531 106.478 18.0675 106.974 18.0791C107.47 18.0907 107.942 18.2985 108.285 18.6571Z" fill="white"/>
<path d="M116.275 19.9541C116.259 20.3142 116.138 20.6617 115.927 20.9536C115.715 21.2455 115.423 21.4689 115.086 21.5961C114.748 21.7232 114.381 21.7485 114.03 21.6688C113.678 21.5891 113.358 21.4079 113.109 21.1478C112.859 20.8876 112.692 20.5599 112.627 20.2054C112.562 19.8509 112.603 19.4851 112.744 19.1535C112.885 18.822 113.121 18.5392 113.422 18.3404C113.722 18.1415 114.075 18.0353 114.435 18.035C114.933 18.0466 115.406 18.255 115.751 18.6147C116.096 18.9743 116.284 19.456 116.275 19.9541Z" fill="white"/>
<path d="M160.656 184.885C160.656 184.947 130.021 185 92.2441 185C54.4668 185 23.8187 184.947 23.8187 184.885C23.8187 184.824 54.4491 184.771 92.2441 184.771C130.039 184.771 160.656 184.828 160.656 184.885Z" fill="#273F4F"/>
<path d="M130.807 130.877C123.991 126.117 122.447 117.28 122.716 109.335C122.76 108.012 122.614 106.609 123.245 105.448C123.876 104.288 125.349 103.49 126.536 104.045C127.52 104.509 127.948 105.656 128.499 106.604C129.235 107.868 130.314 108.897 131.61 109.573C132.452 110.014 133.498 110.279 134.332 109.82C135.479 109.189 135.611 107.614 135.602 106.291C135.602 103.829 135.588 101.37 135.558 98.9146C135.479 97.5959 135.613 96.273 135.955 94.997C136.365 93.7441 137.279 92.5838 138.527 92.2309C139.776 91.8779 141.333 92.6059 141.615 93.8941C141.664 94.4397 141.677 94.9879 141.655 95.5352C141.69 96.0867 141.946 96.6911 142.462 96.8588C142.979 97.0264 143.517 96.6426 143.914 96.2543C145.273 94.9308 146.199 93.2059 147.059 91.503C147.92 89.8 148.762 88.0486 149.998 86.5971C151.233 85.1457 152.94 83.9942 154.85 83.884C156.761 83.7737 158.75 84.9472 159.227 86.8001C159.703 88.653 158.622 90.5456 157.462 92.05C155.711 94.2831 153.647 96.2518 151.334 97.8955C150.883 98.142 150.522 98.5271 150.306 98.994C150.02 99.8763 150.853 100.759 151.723 101.037C152.706 101.363 153.774 101.262 154.811 101.385C155.848 101.509 156.95 101.959 157.343 102.929C157.881 104.279 156.752 105.691 155.645 106.617C153.421 108.47 150.896 109.928 148.18 110.928C147.209 111.281 146.19 111.594 145.405 112.273C144.62 112.953 144.152 114.139 144.624 115.07C145.096 116.001 146.309 116.297 147.329 116.107C148.348 115.917 149.252 115.37 150.223 115.004C152.036 114.32 154.374 114.444 155.517 116.01C155.871 116.549 156.095 117.164 156.171 117.804C156.248 118.445 156.175 119.095 155.958 119.703C155.516 120.912 154.837 122.021 153.959 122.963C151.07 126.415 147.316 129.038 143.08 130.564C138.876 132.02 134.98 132.417 130.802 130.886" fill="#FE7743"/>
<path d="M157.286 84.9736C157.286 84.9736 157.246 85.0178 157.158 85.0972L156.765 85.4457C156.421 85.7545 155.914 86.2045 155.274 86.8001C153.46 88.4841 151.776 90.3025 150.236 92.2397C149.252 93.4617 148.233 94.847 147.148 96.3514C146.062 97.8558 144.942 99.4793 143.83 101.204C142.645 103.023 141.559 104.905 140.579 106.842C140.067 107.853 139.617 108.907 139.154 109.984L137.786 113.27C135.983 117.41 134.413 121.648 133.083 125.963C132.012 129.493 131.273 133.116 130.877 136.785C130.621 139.26 130.579 141.753 130.754 144.236C130.824 145.118 130.891 145.793 130.952 146.252C130.979 146.473 130.996 146.649 131.014 146.777V146.958C130.995 146.901 130.982 146.841 130.974 146.781C130.952 146.654 130.926 146.481 130.891 146.261C130.811 145.82 130.727 145.123 130.648 144.24C130.435 141.753 130.45 139.252 130.692 136.767C131.063 133.083 131.786 129.443 132.849 125.897C134.168 121.569 135.734 117.321 137.539 113.173L138.942 109.9C139.405 108.828 139.86 107.764 140.376 106.75C141.363 104.807 142.458 102.92 143.654 101.098C144.783 99.3337 145.921 97.7367 146.993 96.2455C148.065 94.7544 149.102 93.3603 150.081 92.1426C151.637 90.2105 153.344 88.4049 155.186 86.7427C155.839 86.156 156.359 85.7148 156.712 85.4192L157.122 85.0883C157.173 85.0446 157.228 85.0061 157.286 84.9736Z" fill="#273F4F"/>
<path d="M140.433 106.741C140.371 106.559 140.328 106.371 140.305 106.181C140.235 105.814 140.155 105.298 140.062 104.628C139.873 103.304 139.679 101.491 139.471 99.4837C139.264 97.4764 139.03 95.6588 138.836 94.3485C138.735 93.6956 138.646 93.1706 138.585 92.8044C138.536 92.617 138.511 92.4244 138.51 92.2309C138.586 92.4076 138.64 92.5927 138.673 92.7823C138.77 93.1441 138.88 93.6647 139.004 94.322C139.255 95.6455 139.502 97.4455 139.71 99.4572C139.917 101.469 140.093 103.234 140.23 104.606C140.296 105.223 140.354 105.748 140.398 106.167C140.432 106.357 140.444 106.549 140.433 106.741Z" fill="#273F4F"/>
<path d="M157.409 103.573C157.195 103.62 156.976 103.647 156.756 103.653C156.315 103.692 155.689 103.745 154.912 103.834C153.359 104.001 151.224 104.31 148.881 104.751C146.539 105.192 144.434 105.691 142.921 106.075C142.167 106.269 141.558 106.445 141.157 106.564C140.942 106.641 140.72 106.694 140.495 106.723C140.699 106.621 140.911 106.537 141.13 106.472C141.545 106.326 142.145 106.123 142.895 105.907C144.399 105.466 146.504 104.941 148.855 104.491C150.847 104.11 152.857 103.83 154.877 103.653C155.658 103.587 156.289 103.56 156.73 103.551C156.956 103.536 157.184 103.543 157.409 103.573Z" fill="#273F4F"/>
<path d="M133.066 125.588C133.018 125.524 132.98 125.454 132.951 125.38L132.66 124.767C132.408 124.233 132.068 123.444 131.663 122.477C130.842 120.536 129.796 117.819 128.685 114.801C127.573 111.784 126.549 109.066 125.773 107.103C125.394 106.15 125.08 105.369 124.847 104.787L124.599 104.156C124.565 104.083 124.541 104.006 124.529 103.926C124.576 103.99 124.614 104.06 124.644 104.134L124.935 104.747C125.182 105.281 125.526 106.07 125.932 107.037C126.752 108.978 127.798 111.695 128.91 114.713C130.021 117.73 131.045 120.448 131.821 122.411C132.201 123.364 132.514 124.145 132.743 124.727C132.845 124.979 132.929 125.169 132.995 125.358C133.029 125.431 133.053 125.508 133.066 125.588Z" fill="#273F4F"/>
<path d="M155.6 118.322C155.53 118.362 155.454 118.393 155.375 118.414L154.723 118.635L152.309 119.416C150.271 120.078 147.456 121.022 144.368 122.063C141.28 123.104 138.452 124.03 136.401 124.648C135.377 124.961 134.543 125.199 133.966 125.358L133.299 125.53C133.222 125.555 133.142 125.571 133.061 125.579C133.132 125.538 133.207 125.507 133.286 125.486L133.939 125.266L136.352 124.485C138.39 123.823 141.205 122.879 144.293 121.838C147.381 120.797 150.205 119.87 152.256 119.253C153.284 118.939 154.114 118.701 154.696 118.542L155.362 118.37C155.44 118.346 155.52 118.329 155.6 118.322Z" fill="#273F4F"/>
<path d="M146.406 11.3072L144.134 12.1189L143.159 9.14985C141.368 3.67494 135.66 0.767634 130.414 2.61613C125.169 4.46463 122.376 10.469 124.167 15.9439L125.142 18.9129L122.861 19.7291C121.992 20.0664 121.285 20.726 120.889 21.5706C120.493 22.4152 120.438 23.38 120.735 24.2643L127.057 43.5831C127.188 44.0209 127.406 44.4278 127.698 44.7798C127.989 45.1317 128.348 45.4214 128.754 45.6317C129.16 45.842 129.604 45.9686 130.06 46.0039C130.515 46.0393 130.973 45.9827 131.407 45.8375L154.952 37.4156C155.833 37.0788 156.549 36.4134 156.95 35.5594C157.351 34.7054 157.405 33.7292 157.1 32.8362L150.774 13.5174C150.639 13.0809 150.418 12.6759 150.124 12.3267C149.829 11.9775 149.467 11.6912 149.06 11.4849C148.652 11.2787 148.207 11.1566 147.751 11.1261C147.295 11.0955 146.838 11.1571 146.406 11.3072ZM128.46 14.3954C127.977 12.9718 128.063 11.4166 128.702 10.0555C129.34 8.69445 130.48 7.63316 131.883 7.094C132.576 6.85693 133.31 6.76187 134.04 6.81447C134.771 6.86708 135.483 7.06629 136.135 7.40021C136.786 7.73412 137.364 8.19591 137.834 8.75802C138.303 9.32012 138.655 9.97102 138.867 10.6719L139.837 13.641L129.43 17.3644L128.46 14.3954ZM141.695 31.5392L143.309 36.4715C143.339 36.5704 143.33 36.6769 143.283 36.7689C143.236 36.8609 143.155 36.9314 143.058 36.9656L140.795 37.7729C140.705 37.7979 140.609 37.787 140.526 37.7426C140.444 37.6982 140.382 37.6237 140.354 37.5347L138.726 32.6245C137.828 32.5756 136.967 32.2536 136.257 31.7017C135.548 31.1498 135.024 30.3943 134.755 29.5363C134.372 28.402 134.441 27.1633 134.951 26.0794C135.46 24.9956 136.368 24.1507 137.486 23.7217C138.038 23.5331 138.622 23.4576 139.204 23.4996C139.786 23.5416 140.353 23.7003 140.872 23.9663C141.391 24.2322 141.852 24.5999 142.226 25.0476C142.6 25.4952 142.88 26.0135 143.049 26.5716C143.333 27.4432 143.357 28.3786 143.117 29.2633C142.877 30.148 142.384 30.9435 141.699 31.5524L141.695 31.5392Z" fill="#FE7743"/>
<path d="M144.033 12.066C144.033 12.1278 139.82 13.7115 134.579 15.5953C129.338 17.4791 125.063 18.9923 125.041 18.9482C125.019 18.9041 129.254 17.3071 134.499 15.4189C139.745 13.5307 144.011 12.0086 144.033 12.066Z" fill="#273F4F"/>
<path d="M149.036 12.8777C149.055 12.916 149.072 12.9559 149.084 12.9969C149.12 13.0851 149.159 13.1998 149.212 13.341C149.327 13.663 149.486 14.1086 149.684 14.6645L151.378 19.5967C152.084 21.6879 152.927 24.1673 153.862 26.9202C154.303 28.301 154.824 29.7392 155.309 31.2524C155.569 32.0322 155.681 32.8536 155.64 33.6745C155.603 34.1014 155.481 34.5167 155.283 34.8965C155.071 35.2751 154.788 35.6091 154.449 35.8803C153.767 36.3778 153.011 36.7636 152.208 37.0229L149.936 37.8391L145.634 39.3788L138.351 41.9729L133.432 43.7022L132.108 44.1434L131.755 44.2581C131.718 44.2749 131.677 44.2853 131.636 44.289C131.636 44.289 131.671 44.289 131.746 44.2361L132.091 44.0993L133.414 43.6008L138.307 41.8008L145.577 39.1538L149.87 37.6009L152.142 36.7803C152.922 36.5315 153.656 36.1575 154.317 35.673C154.632 35.4213 154.895 35.1112 155.093 34.7597C155.28 34.4085 155.393 34.0225 155.424 33.6259C155.465 32.835 155.357 32.0435 155.106 31.2922C154.63 29.7922 154.127 28.3407 153.673 26.9599C152.755 24.2026 151.908 21.7144 151.237 19.6232C150.567 17.5321 150.002 15.8512 149.614 14.6689C149.428 14.091 149.287 13.641 149.173 13.3145L149.067 12.9616C149.053 12.9348 149.043 12.9067 149.036 12.8777Z" fill="#273F4F"/>
<path d="M136.613 6.79401C136.613 6.79401 136.379 6.67931 135.946 6.50284C135.33 6.26605 134.678 6.1348 134.018 6.11461C133.04 6.08107 132.067 6.26489 131.168 6.65284C130.076 7.1359 129.142 7.91726 128.473 8.90721C127.8 9.89434 127.439 11.0609 127.436 12.2557C127.445 13.235 127.594 14.2079 127.877 15.1453C128.107 15.9483 128.345 16.588 128.504 17.0336C128.597 17.2599 128.674 17.4929 128.733 17.7306C128.608 17.519 128.503 17.2959 128.42 17.0644C128.239 16.6233 127.979 15.9968 127.723 15.1895C127.409 14.2422 127.238 13.2534 127.216 12.2557C127.204 11.0157 127.573 9.80215 128.274 8.77927C128.966 7.75316 129.939 6.94764 131.076 6.45872C132.002 6.06865 133.006 5.89659 134.01 5.95579C134.684 5.99015 135.346 6.14712 135.964 6.41902C136.129 6.49523 136.288 6.58371 136.44 6.68372C136.503 6.71129 136.561 6.7485 136.613 6.79401Z" fill="#273F4F"/>
<path d="M136.815 24.057C136.886 24.0143 136.96 23.9774 137.036 23.9467C137.257 23.847 137.486 23.7659 137.72 23.704C138.092 23.5943 138.475 23.5291 138.862 23.5099C139.389 23.4816 139.916 23.5612 140.411 23.7437C141.54 24.1408 142.577 25.2922 143.089 26.8319C143.334 27.6582 143.334 28.538 143.089 29.3642C142.817 30.261 142.329 31.0775 141.668 31.7421L141.695 31.623C142.282 33.2333 142.921 34.9803 143.583 36.8024L143.623 36.9126L143.512 36.9523L142.502 37.2876L140.296 38.0244L140.186 38.0597L140.151 37.9494C139.546 36.123 138.885 34.42 138.386 32.748L138.483 32.823C137.621 32.7514 136.798 32.4276 136.118 31.8921C135.503 31.4184 134.999 30.8162 134.64 30.1275C134.317 29.5167 134.156 28.8331 134.173 28.1422C134.193 27.4361 134.37 26.7432 134.689 26.1132C135.009 25.4832 135.464 24.9317 136.021 24.4981C136.251 24.3118 136.509 24.1629 136.785 24.057C136.535 24.2048 136.294 24.3653 136.061 24.5378C135.448 25.0562 134.979 25.723 134.698 26.4746C134.456 27.0413 134.344 27.6545 134.367 28.27C134.391 28.8856 134.55 29.4883 134.835 30.0348C135.187 30.6974 135.679 31.2754 136.277 31.7289C136.926 32.2379 137.71 32.5448 138.532 32.6112H138.607L138.629 32.6774C139.114 34.3186 139.78 36.0347 140.393 37.87L140.248 37.7994L142.454 37.0626L143.459 36.7229L143.389 36.8729C142.732 35.0509 142.096 33.2995 141.514 31.6892V31.623L141.567 31.5701C142.208 30.933 142.686 30.1506 142.961 29.2892C143.195 28.4989 143.195 27.6576 142.961 26.8672C142.48 25.3849 141.487 24.2599 140.411 23.8629C139.934 23.6791 139.426 23.5936 138.915 23.6114C138.534 23.6201 138.155 23.6719 137.786 23.7658C137.129 23.929 136.82 24.079 136.815 24.057Z" fill="#273F4F"/>
<path d="M123.179 151.44L79.1105 151.237C76.5656 151.223 74.1303 150.2 72.3394 148.392C70.5486 146.583 69.5486 144.138 69.5592 141.593L70.0268 31.1201C70.032 29.8592 70.2857 28.6118 70.7733 27.449C71.2608 26.2863 71.9728 25.231 72.8684 24.3436C73.7641 23.4561 74.8259 22.7539 75.993 22.277C77.1602 21.8001 78.41 21.558 79.6708 21.5644L123.735 21.7673C126.28 21.7801 128.715 22.8025 130.507 24.6099C132.299 26.4173 133.3 28.8619 133.291 31.4068L132.823 141.876C132.818 143.137 132.564 144.385 132.077 145.548C131.589 146.711 130.877 147.767 129.982 148.655C129.086 149.543 128.025 150.247 126.857 150.724C125.69 151.202 124.44 151.445 123.179 151.44Z" fill="#455A64"/>
<path d="M123.669 25.5658H115.128C114.849 25.5709 114.574 25.6309 114.318 25.7424C114.063 25.8538 113.832 26.0145 113.639 26.2153C113.445 26.416 113.293 26.6529 113.191 26.9124C113.09 27.1718 113.04 27.4488 113.045 27.7275V29.276C113.051 29.5545 113.001 29.8312 112.899 30.0905C112.797 30.3497 112.645 30.5863 112.452 30.7867C112.258 30.987 112.027 31.1473 111.772 31.2583C111.516 31.3692 111.241 31.4287 110.963 31.4333L94.3132 31.3583C93.75 31.3433 93.2157 31.1054 92.8277 30.6967C92.4398 30.2881 92.2299 29.7422 92.2441 29.1789V27.6304C92.2584 27.0679 92.0491 26.5227 91.6621 26.1142C91.2751 25.7057 90.7419 25.4672 90.1794 25.4511H87.1751L79.6973 25.4158C77.9186 25.4052 76.2083 26.0998 74.9407 27.3475C73.6731 28.5953 72.9516 30.2944 72.9341 32.073L72.493 139.904C72.4889 140.786 72.6587 141.661 72.9926 142.477C73.3265 143.294 73.818 144.037 74.4391 144.664C75.0601 145.291 75.7985 145.789 76.6122 146.13C77.4258 146.472 78.2987 146.649 79.1811 146.654L123.157 146.856C124.04 146.861 124.915 146.691 125.732 146.357C126.549 146.022 127.293 145.531 127.92 144.909C128.547 144.288 129.046 143.549 129.388 142.735C129.729 141.92 129.907 141.047 129.911 140.164L130.352 32.3333C130.363 30.5497 129.665 28.8349 128.411 27.5659C127.158 26.2969 125.452 25.5774 123.669 25.5658Z" fill="white"/>
<path d="M117.753 132.47L85.0531 132.329C84.7134 132.329 84.4398 131.958 84.4442 131.508L84.4795 122.954C84.4795 122.513 84.7575 122.133 85.0972 122.133L117.797 122.283C117.985 122.316 118.153 122.42 118.267 122.574C118.38 122.727 118.43 122.919 118.405 123.108L118.375 131.654C118.375 132.108 118.092 132.474 117.753 132.47Z" fill="#FE7743"/>
<path d="M96.4257 132.724C96.0029 132.724 95.5963 132.656 95.206 132.52C94.8211 132.379 94.523 132.201 94.3116 131.984L94.5474 131.52C94.7479 131.715 95.0163 131.881 95.3524 132.016C95.6939 132.146 96.0516 132.211 96.4257 132.211C96.7835 132.211 97.0735 132.168 97.2957 132.081C97.5234 131.989 97.6887 131.867 97.7917 131.715C97.9002 131.564 97.9544 131.396 97.9544 131.211C97.9544 130.989 97.8893 130.81 97.7592 130.675C97.6345 130.539 97.4692 130.433 97.2632 130.358C97.0572 130.276 96.8295 130.206 96.5802 130.146C96.3308 130.086 96.0815 130.024 95.8321 129.959C95.5827 129.889 95.3524 129.796 95.1409 129.683C94.935 129.569 94.7669 129.42 94.6368 129.235C94.5121 129.046 94.4498 128.799 94.4498 128.495C94.4498 128.214 94.523 127.956 94.6693 127.723C94.8211 127.484 95.0515 127.295 95.3605 127.154C95.6695 127.007 96.0652 126.934 96.5477 126.934C96.8675 126.934 97.1846 126.98 97.499 127.072C97.8134 127.159 98.0845 127.281 98.3121 127.438L98.1089 127.918C97.8649 127.755 97.6047 127.636 97.3283 127.56C97.0572 127.484 96.7943 127.447 96.5395 127.447C96.198 127.447 95.9161 127.493 95.6939 127.585C95.4716 127.677 95.3063 127.802 95.1979 127.959C95.0949 128.111 95.0434 128.284 95.0434 128.479C95.0434 128.701 95.1057 128.88 95.2304 129.016C95.3605 129.151 95.5285 129.257 95.7345 129.333C95.9459 129.409 96.1763 129.477 96.4257 129.536C96.675 129.596 96.9217 129.661 97.1656 129.731C97.415 129.802 97.6427 129.894 97.8487 130.008C98.0601 130.116 98.2281 130.263 98.3528 130.447C98.4829 130.631 98.548 130.872 98.548 131.171C98.548 131.447 98.4721 131.705 98.3203 131.943C98.1685 132.176 97.9354 132.366 97.621 132.512C97.312 132.653 96.9136 132.724 96.4257 132.724ZM99.859 132.675V126.983H100.461V132.675H99.859ZM102.313 132.675V126.983H102.809L106.736 131.927H106.476V126.983H107.069V132.675H106.573L102.654 127.731H102.914V132.675H102.313ZM97.3527 142.724C96.919 142.724 96.5178 142.653 96.1492 142.512C95.786 142.366 95.4689 142.163 95.1979 141.902C94.9322 141.642 94.7235 141.336 94.5718 140.984C94.4254 140.631 94.3522 140.246 94.3522 139.829C94.3522 139.412 94.4254 139.027 94.5718 138.674C94.7235 138.322 94.935 138.016 95.206 137.755C95.477 137.495 95.7942 137.295 96.1574 137.154C96.526 137.007 96.9271 136.934 97.3608 136.934C97.7945 136.934 98.1902 137.002 98.548 137.138C98.9112 137.273 99.2201 137.479 99.4749 137.755L99.1009 138.138C98.8624 137.899 98.5995 137.728 98.3121 137.625C98.0248 137.522 97.7159 137.471 97.3852 137.471C97.0328 137.471 96.7076 137.531 96.4094 137.65C96.1167 137.764 95.8592 137.929 95.637 138.146C95.4201 138.357 95.2494 138.607 95.1247 138.894C95.0054 139.176 94.9458 139.487 94.9458 139.829C94.9458 140.165 95.0054 140.477 95.1247 140.764C95.2494 141.051 95.4201 141.303 95.637 141.52C95.8592 141.732 96.1167 141.897 96.4094 142.016C96.7076 142.13 97.0301 142.187 97.377 142.187C97.7023 142.187 98.0086 142.138 98.2959 142.041C98.5886 141.943 98.8569 141.778 99.1009 141.545L99.4424 142C99.1714 142.239 98.8542 142.42 98.491 142.545C98.1278 142.664 97.7484 142.724 97.3527 142.724ZM98.8651 141.927V139.829H99.4424V142L98.8651 141.927ZM97.1494 152.724C96.423 152.724 95.8511 152.515 95.4337 152.098C95.0163 151.68 94.8076 151.062 94.8076 150.244V146.983H95.4093V150.219C95.4093 150.891 95.5611 151.387 95.8646 151.707C96.1682 152.027 96.5964 152.187 97.1494 152.187C97.7077 152.187 98.1387 152.027 98.4422 151.707C98.7458 151.387 98.8976 150.891 98.8976 150.219V146.983H99.4831V150.244C99.4831 151.062 99.2743 151.68 98.8569 152.098C98.445 152.515 97.8758 152.724 97.1494 152.724ZM101.296 152.675V146.983H103.427C103.909 146.983 104.324 147.062 104.671 147.219C105.018 147.371 105.283 147.593 105.468 147.886C105.657 148.173 105.752 148.523 105.752 148.935C105.752 149.336 105.657 149.683 105.468 149.975C105.283 150.263 105.018 150.485 104.671 150.642C104.324 150.799 103.909 150.878 103.427 150.878H101.63L101.898 150.593V152.675H101.296ZM101.898 150.642L101.63 150.349H103.41C103.98 150.349 104.411 150.227 104.703 149.983C105.001 149.734 105.15 149.384 105.15 148.935C105.15 148.479 105.001 148.127 104.703 147.877C104.411 147.628 103.98 147.503 103.41 147.503H101.63L101.898 147.219V150.642Z" fill="#E8E8E3"/>
<path d="M91.5753 57.2639L80.2286 57.2124L80.2191 59.2947L91.5659 59.3462L91.5753 57.2639Z" fill="#FE7743"/>
<path opacity="0.1" d="M91.5753 57.2639L80.2286 57.2124L80.2191 59.2947L91.5659 59.3462L91.5753 57.2639Z" fill="#273F4F"/>
<path d="M124.838 70.0489C124.927 70.0399 125.014 70.0191 125.098 69.9871C125.22 69.9394 125.326 69.8582 125.404 69.7528C125.482 69.6475 125.529 69.5222 125.539 69.3915C125.539 68.6901 125.539 67.6666 125.539 66.3519C125.539 65.6945 125.539 64.9578 125.539 64.146C125.539 63.9475 125.539 63.7402 125.539 63.5328C125.568 63.3316 125.524 63.1267 125.416 62.9549C125.355 62.8725 125.276 62.8053 125.185 62.7586C125.094 62.7119 124.993 62.687 124.891 62.6858H124.202H117.828L80.9281 62.549C80.8337 62.5474 80.7402 62.5686 80.6558 62.6109C80.5713 62.6531 80.4982 62.7151 80.4428 62.7916C80.3363 62.9642 80.2956 63.1694 80.3281 63.3696C80.3281 63.8107 80.3281 64.2519 80.3281 64.6931C80.3281 65.5754 80.3281 66.4578 80.3281 67.3401C80.3281 67.7813 80.3281 68.2224 80.3281 68.6636C80.3098 68.8691 80.3098 69.0758 80.3281 69.2812C80.3513 69.3693 80.3944 69.4509 80.454 69.5198C80.5137 69.5886 80.5883 69.6428 80.6722 69.6783C80.7592 69.7129 80.8522 69.7294 80.9458 69.7268H83.1913L92.9897 69.7798L109.578 69.8812L120.761 69.9695L123.801 70.0048H124.591C124.772 70.0048 124.86 70.0048 124.86 70.0048H124.591H123.801H120.761H109.578L92.9897 69.9518L83.1913 69.9121H80.9458C80.8222 69.9171 80.6989 69.8961 80.584 69.8504C80.4678 69.8008 80.3645 69.7253 80.282 69.6298C80.1994 69.5342 80.1397 69.421 80.1075 69.2989C80.082 69.1831 80.0731 69.0643 80.0811 68.946V68.6195C80.0811 68.1783 80.0811 67.7371 80.0811 67.296C80.0811 66.4136 80.0811 65.5313 80.0811 64.649C80.0811 64.2078 80.0811 63.7666 80.0811 63.3255C80.0727 63.208 80.0727 63.09 80.0811 62.9725C80.0976 62.8427 80.1478 62.7196 80.2267 62.6152C80.3028 62.5087 80.4035 62.4222 80.5203 62.363C80.637 62.3039 80.7664 62.2738 80.8972 62.2755L117.797 62.4784L124.172 62.5225H124.86C124.981 62.5226 125.1 62.5519 125.208 62.608C125.316 62.6641 125.408 62.7452 125.477 62.8446C125.602 63.0364 125.652 63.267 125.619 63.4931C125.619 63.7005 125.619 63.9078 125.619 64.1063C125.619 64.9093 125.619 65.646 125.619 66.3122C125.619 67.6357 125.588 68.6504 125.579 69.3562C125.568 69.492 125.519 69.6218 125.437 69.7304C125.355 69.8391 125.243 69.922 125.116 69.9695C125.032 70.0212 124.936 70.0487 124.838 70.0489Z" fill="white"/>
<path d="M104.39 64.7637H83.6369V66.7092H104.39V64.7637Z" fill="#FE7743"/>
<path opacity="0.2" d="M104.39 64.7637H83.6369V66.7092H104.39V64.7637Z" fill="white"/>
<path d="M91.498 76.2601L80.1512 76.2086L80.1418 78.2909L91.4885 78.3424L91.498 76.2601Z" fill="#FE7743"/>
<path opacity="0.1" d="M91.498 76.2601L80.1512 76.2086L80.1418 78.2909L91.4885 78.3424L91.498 76.2601Z" fill="#273F4F"/>
<path d="M124.551 89.0456C124.64 89.0347 124.728 89.0185 124.816 88.9971C124.939 88.9579 125.052 88.8927 125.148 88.8059C125.244 88.7192 125.32 88.6129 125.372 88.4942C125.441 88.3161 125.468 88.1243 125.451 87.9339C125.451 87.7221 125.451 87.4927 125.451 87.2368C125.451 86.7251 125.451 86.1427 125.451 85.4722V82.6707C125.472 82.4679 125.427 82.2637 125.323 82.0884C125.214 81.9086 125.043 81.7751 124.842 81.7134C124.622 81.6742 124.399 81.6623 124.176 81.6781H117.828L81.0561 81.5413C80.8583 81.5418 80.6674 81.6141 80.5189 81.7447C80.3704 81.8754 80.2744 82.0555 80.2487 82.2516C80.2487 82.6707 80.2487 83.134 80.2487 83.5751C80.2487 84.4575 80.2487 85.3398 80.2487 86.2221C80.2487 86.6633 80.2487 87.1045 80.2487 87.5457C80.2323 87.7518 80.2412 87.9593 80.2752 88.1633C80.3303 88.3422 80.4437 88.4975 80.5973 88.6045C80.7602 88.7079 80.9516 88.7573 81.1443 88.7456H81.7575H83.0325L92.7956 88.7942L109.326 88.8956L120.47 88.9839L123.501 89.0192H120.47H109.326L92.7868 89.0015L83.0237 88.9662H81.1046C80.866 88.9804 80.6292 88.9169 80.4296 88.7853C80.2289 88.6463 80.0824 88.4421 80.0149 88.2074C79.9754 87.9832 79.9635 87.7551 79.9796 87.528C79.9796 87.0868 79.9796 86.6457 79.9796 86.2045C79.9796 85.3222 79.9796 84.4398 79.9796 83.5575C79.9796 83.1163 79.9796 82.6751 79.9796 82.234C80.0118 81.9817 80.1348 81.7498 80.3257 81.5817C80.5165 81.4136 80.7621 81.3209 81.0164 81.3208L117.788 81.5237L124.136 81.5722C124.373 81.5577 124.61 81.574 124.842 81.6207C125.071 81.6956 125.265 81.8528 125.385 82.0619C125.499 82.2562 125.548 82.4818 125.526 82.706C125.526 82.9134 125.526 83.1163 125.526 83.3193C125.526 84.1178 125.526 84.8501 125.526 85.5251C125.526 86.2001 125.526 86.7692 125.526 87.2898C125.526 87.5412 125.526 87.7751 125.526 87.9912C125.542 88.1885 125.51 88.3868 125.433 88.5692C125.376 88.6909 125.293 88.7988 125.19 88.8856C125.088 88.9724 124.967 89.036 124.838 89.0721C124.741 89.0801 124.644 89.0711 124.551 89.0456Z" fill="white"/>
<path d="M91.4125 96.0812L80.0657 96.0297L80.0563 98.112L91.403 98.1635L91.4125 96.0812Z" fill="#FE7743"/>
<path opacity="0.1" d="M91.4125 96.0812L80.0657 96.0297L80.0563 98.112L91.403 98.1635L91.4125 96.0812Z" fill="#273F4F"/>
<path d="M124.463 108.859C124.552 108.848 124.64 108.832 124.727 108.81C124.85 108.771 124.963 108.706 125.059 108.62C125.155 108.535 125.231 108.429 125.283 108.312C125.352 108.133 125.38 107.942 125.363 107.751C125.363 107.535 125.363 107.31 125.363 107.05C125.363 106.542 125.363 105.956 125.363 105.285V102.484C125.384 102.281 125.339 102.077 125.235 101.901C125.123 101.725 124.953 101.593 124.754 101.531C124.534 101.49 124.311 101.477 124.088 101.491H117.739L80.9678 101.354C80.7701 101.355 80.5792 101.427 80.4307 101.558C80.2822 101.688 80.1862 101.868 80.1605 102.065C80.1605 102.506 80.1605 102.947 80.1605 103.388C80.1605 104.27 80.1605 105.153 80.1605 106.035C80.1605 106.476 80.1605 106.917 80.1605 107.359C80.1441 107.563 80.153 107.769 80.187 107.972C80.2398 108.152 80.3537 108.308 80.509 108.413C80.671 108.519 80.8632 108.568 81.0561 108.554H82.9752L92.7382 108.607L109.269 108.709L120.413 108.797L123.444 108.832H120.413H109.269L92.7382 108.784L82.9752 108.744H81.0561C80.8173 108.76 80.5799 108.696 80.3811 108.563C80.1803 108.424 80.0338 108.22 79.9664 107.985C79.9268 107.761 79.915 107.533 79.9311 107.306C79.9311 106.864 79.9311 106.423 79.9311 105.982C79.9311 105.1 79.9311 104.217 79.9311 103.335C79.9311 102.894 79.9311 102.453 79.9311 101.99C79.9623 101.738 80.0844 101.506 80.2745 101.338C80.4646 101.169 80.7096 101.077 80.9634 101.076L117.735 101.279L124.083 101.328C124.32 101.313 124.557 101.33 124.789 101.376C125.018 101.451 125.212 101.608 125.332 101.817C125.446 102.012 125.495 102.237 125.473 102.462C125.473 102.669 125.473 102.876 125.473 103.075C125.473 103.873 125.473 104.606 125.473 105.281C125.473 105.956 125.473 106.525 125.473 107.045C125.473 107.297 125.473 107.531 125.473 107.747C125.49 107.944 125.458 108.143 125.38 108.325C125.323 108.446 125.24 108.554 125.137 108.641C125.035 108.728 124.914 108.792 124.785 108.828C124.681 108.863 124.571 108.874 124.463 108.859Z" fill="white"/>
<path d="M103.947 84.3105L83.1941 84.2163L83.1853 86.1618L103.938 86.256L103.947 84.3105Z" fill="#FE7743"/>
<path opacity="0.2" d="M103.947 84.3105L83.1941 84.2163L83.1853 86.1618L103.938 86.256L103.947 84.3105Z" fill="white"/>
<path d="M85.0707 105.259C85.0577 105.436 84.9929 105.606 84.8843 105.747C84.7757 105.888 84.6281 105.994 84.4598 106.052C84.2916 106.109 84.11 106.117 83.9377 106.072C83.7654 106.028 83.6099 105.934 83.4905 105.802C83.3711 105.67 83.2931 105.506 83.2661 105.33C83.239 105.154 83.2643 104.974 83.3386 104.813C83.4129 104.651 83.533 104.515 83.6841 104.421C83.8352 104.327 84.0105 104.279 84.1884 104.284C84.4341 104.297 84.6646 104.407 84.8298 104.59C84.995 104.772 85.0815 105.013 85.0707 105.259Z" fill="#FE7743"/>
<path d="M87.881 105.272C87.8896 105.396 87.8726 105.521 87.831 105.639C87.7894 105.756 87.724 105.864 87.639 105.955C87.5539 106.046 87.4511 106.119 87.3367 106.169C87.2224 106.218 87.099 106.244 86.9744 106.244C86.8497 106.244 86.7263 106.218 86.612 106.169C86.4977 106.119 86.3948 106.046 86.3097 105.955C86.2247 105.864 86.1593 105.756 86.1177 105.639C86.0761 105.521 86.0591 105.396 86.0678 105.272C86.0591 105.147 86.0761 105.023 86.1177 104.905C86.1593 104.788 86.2247 104.68 86.3097 104.589C86.3948 104.498 86.4977 104.425 86.612 104.375C86.7263 104.325 86.8497 104.3 86.9744 104.3C87.099 104.3 87.2224 104.325 87.3367 104.375C87.4511 104.425 87.5539 104.498 87.639 104.589C87.724 104.68 87.7894 104.788 87.831 104.905C87.8726 105.023 87.8896 105.147 87.881 105.272Z" fill="#FE7743"/>
<path d="M90.6956 105.285C90.6826 105.463 90.6178 105.632 90.5092 105.773C90.4006 105.914 90.253 106.02 90.0847 106.078C89.9165 106.136 89.7349 106.143 89.5626 106.099C89.3903 106.054 89.2348 105.96 89.1154 105.828C88.996 105.696 88.918 105.532 88.891 105.357C88.864 105.181 88.8892 105.001 88.9635 104.839C89.0378 104.677 89.1579 104.541 89.309 104.447C89.4601 104.353 89.6354 104.305 89.8133 104.31C90.0586 104.325 90.2884 104.435 90.4534 104.618C90.6183 104.8 90.7053 105.039 90.6956 105.285Z" fill="#FE7743"/>
<path d="M93.5059 105.298C93.4928 105.476 93.428 105.645 93.3194 105.786C93.2108 105.927 93.0632 106.033 92.895 106.091C92.7267 106.149 92.5452 106.156 92.3728 106.112C92.2005 106.068 92.045 105.974 91.9256 105.842C91.8062 105.71 91.7282 105.546 91.7012 105.37C91.6742 105.194 91.6994 105.014 91.7737 104.852C91.848 104.691 91.9682 104.554 92.1192 104.46C92.2703 104.366 92.4456 104.319 92.6235 104.323C92.8689 104.338 93.0987 104.449 93.2636 104.631C93.4286 104.813 93.5155 105.053 93.5059 105.298Z" fill="#FE7743"/>
<path d="M96.3161 105.307C96.3039 105.485 96.2398 105.655 96.1317 105.797C96.0236 105.938 95.8762 106.045 95.708 106.103C95.5397 106.162 95.358 106.17 95.1853 106.126C95.0127 106.082 94.8568 105.988 94.737 105.856C94.6171 105.725 94.5387 105.56 94.5114 105.384C94.484 105.208 94.5091 105.028 94.5833 104.866C94.6575 104.704 94.7777 104.568 94.9289 104.474C95.0801 104.379 95.2557 104.332 95.4338 104.337C95.6783 104.351 95.9075 104.461 96.0723 104.642C96.2371 104.824 96.3246 105.062 96.3161 105.307Z" fill="#FE7743"/>
<path d="M99.1308 105.32C99.1187 105.497 99.0553 105.667 98.9482 105.808C98.8411 105.949 98.695 106.056 98.528 106.115C98.361 106.174 98.1803 106.184 98.0082 106.141C97.8361 106.099 97.68 106.008 97.5592 105.878C97.4384 105.749 97.3581 105.586 97.3282 105.412C97.2984 105.237 97.3203 105.057 97.3912 104.895C97.4621 104.733 97.5789 104.594 97.7273 104.498C97.8757 104.401 98.0492 104.349 98.2264 104.35C98.4749 104.359 98.7096 104.466 98.8791 104.648C99.0486 104.83 99.1391 105.072 99.1308 105.32Z" fill="#FE7743"/>
<path d="M101.941 105.334C101.95 105.458 101.933 105.583 101.891 105.7C101.849 105.818 101.784 105.926 101.699 106.017C101.614 106.108 101.511 106.181 101.397 106.23C101.282 106.28 101.159 106.306 101.034 106.306C100.91 106.306 100.786 106.28 100.672 106.23C100.558 106.181 100.455 106.108 100.37 106.017C100.285 105.926 100.219 105.818 100.178 105.7C100.136 105.583 100.119 105.458 100.128 105.334C100.119 105.209 100.136 105.084 100.178 104.967C100.219 104.849 100.285 104.742 100.37 104.65C100.455 104.559 100.558 104.487 100.672 104.437C100.786 104.387 100.91 104.362 101.034 104.362C101.159 104.362 101.282 104.387 101.397 104.437C101.511 104.487 101.614 104.559 101.699 104.65C101.784 104.742 101.849 104.849 101.891 104.967C101.933 105.084 101.95 105.209 101.941 105.334Z" fill="#FE7743"/>
<path d="M104.751 105.347C104.739 105.524 104.676 105.693 104.569 105.834C104.462 105.975 104.316 106.082 104.149 106.142C103.982 106.201 103.801 106.21 103.629 106.168C103.457 106.126 103.3 106.034 103.18 105.905C103.059 105.775 102.979 105.613 102.949 105.438C102.919 105.263 102.941 105.084 103.012 104.921C103.083 104.759 103.199 104.621 103.348 104.524C103.496 104.427 103.67 104.376 103.847 104.376C104.095 104.385 104.33 104.493 104.5 104.675C104.669 104.857 104.76 105.098 104.751 105.347Z" fill="#FE7743"/>
<path d="M107.562 105.36C107.549 105.538 107.485 105.708 107.377 105.85C107.269 105.991 107.122 106.098 106.953 106.156C106.785 106.215 106.603 106.223 106.431 106.179C106.258 106.135 106.102 106.041 105.982 105.909C105.863 105.777 105.784 105.613 105.757 105.437C105.729 105.261 105.754 105.081 105.829 104.919C105.903 104.757 106.023 104.621 106.174 104.527C106.326 104.432 106.501 104.385 106.679 104.39C106.924 104.404 107.153 104.514 107.318 104.695C107.483 104.877 107.57 105.115 107.562 105.36Z" fill="#FE7743"/>
<g opacity="0.2">
<path d="M85.0707 105.259C85.0577 105.436 84.9929 105.606 84.8843 105.747C84.7757 105.888 84.6281 105.994 84.4598 106.052C84.2916 106.109 84.11 106.117 83.9377 106.072C83.7654 106.028 83.6099 105.934 83.4905 105.802C83.3711 105.67 83.2931 105.506 83.2661 105.33C83.239 105.154 83.2643 104.974 83.3386 104.813C83.4129 104.651 83.533 104.515 83.6841 104.421C83.8352 104.327 84.0105 104.279 84.1884 104.284C84.4341 104.297 84.6646 104.407 84.8298 104.59C84.995 104.772 85.0815 105.013 85.0707 105.259Z" fill="white"/>
<path d="M87.8809 105.272C87.8896 105.396 87.8726 105.521 87.831 105.639C87.7893 105.756 87.724 105.864 87.6389 105.955C87.5539 106.046 87.451 106.119 87.3367 106.169C87.2223 106.218 87.099 106.244 86.9743 106.244C86.8496 106.244 86.7263 106.218 86.612 106.169C86.4976 106.119 86.3947 106.046 86.3097 105.955C86.2247 105.864 86.1593 105.756 86.1177 105.639C86.076 105.521 86.059 105.396 86.0677 105.272C86.059 105.147 86.076 105.023 86.1177 104.905C86.1593 104.788 86.2247 104.68 86.3097 104.589C86.3947 104.498 86.4976 104.425 86.612 104.375C86.7263 104.325 86.8496 104.3 86.9743 104.3C87.099 104.3 87.2223 104.325 87.3367 104.375C87.451 104.425 87.5539 104.498 87.6389 104.589C87.724 104.68 87.7893 104.788 87.831 104.905C87.8726 105.023 87.8896 105.147 87.8809 105.272Z" fill="white"/>
<path d="M90.6956 105.285C90.6826 105.463 90.6178 105.632 90.5092 105.773C90.4006 105.914 90.253 106.02 90.0847 106.078C89.9165 106.136 89.7349 106.143 89.5626 106.099C89.3903 106.054 89.2348 105.96 89.1154 105.828C88.996 105.696 88.918 105.532 88.891 105.357C88.864 105.181 88.8892 105.001 88.9635 104.839C89.0378 104.677 89.1579 104.541 89.309 104.447C89.4601 104.353 89.6354 104.305 89.8133 104.31C90.0586 104.325 90.2884 104.435 90.4534 104.618C90.6183 104.8 90.7053 105.039 90.6956 105.285Z" fill="white"/>
<path d="M93.5059 105.298C93.4928 105.476 93.428 105.646 93.3194 105.786C93.2108 105.927 93.0632 106.033 92.895 106.091C92.7267 106.149 92.5452 106.156 92.3728 106.112C92.2005 106.068 92.045 105.974 91.9256 105.842C91.8062 105.71 91.7282 105.546 91.7012 105.37C91.6742 105.194 91.6994 105.014 91.7737 104.852C91.848 104.691 91.9682 104.554 92.1192 104.46C92.2703 104.366 92.4456 104.319 92.6235 104.323C92.8689 104.338 93.0987 104.449 93.2636 104.631C93.4286 104.813 93.5155 105.053 93.5059 105.298Z" fill="white"/>
<path d="M96.3161 105.307C96.3039 105.485 96.2398 105.655 96.1317 105.797C96.0236 105.938 95.8762 106.045 95.708 106.103C95.5397 106.162 95.358 106.17 95.1853 106.126C95.0127 106.082 94.8568 105.988 94.737 105.856C94.6171 105.725 94.5387 105.56 94.5114 105.384C94.484 105.208 94.5091 105.028 94.5833 104.866C94.6575 104.704 94.7777 104.568 94.9289 104.474C95.0801 104.379 95.2557 104.332 95.4338 104.337C95.6783 104.351 95.9075 104.461 96.0723 104.642C96.2371 104.824 96.3246 105.062 96.3161 105.307Z" fill="white"/>
<path d="M99.1308 105.32C99.1187 105.497 99.0553 105.667 98.9482 105.808C98.8411 105.949 98.695 106.056 98.528 106.115C98.361 106.174 98.1803 106.184 98.0082 106.141C97.8361 106.099 97.68 106.008 97.5592 105.878C97.4384 105.749 97.3581 105.586 97.3282 105.412C97.2984 105.237 97.3203 105.057 97.3912 104.895C97.4621 104.733 97.5789 104.594 97.7273 104.498C97.8757 104.401 98.0492 104.349 98.2264 104.35C98.4749 104.359 98.7096 104.466 98.8791 104.648C99.0486 104.83 99.1391 105.072 99.1308 105.32Z" fill="white"/>
<path d="M101.941 105.334C101.95 105.458 101.933 105.583 101.891 105.7C101.849 105.818 101.784 105.926 101.699 106.017C101.614 106.108 101.511 106.181 101.397 106.23C101.282 106.28 101.159 106.306 101.034 106.306C100.91 106.306 100.786 106.28 100.672 106.23C100.558 106.181 100.455 106.108 100.37 106.017C100.285 105.926 100.219 105.818 100.178 105.7C100.136 105.583 100.119 105.458 100.128 105.334C100.119 105.209 100.136 105.084 100.178 104.967C100.219 104.849 100.285 104.742 100.37 104.65C100.455 104.559 100.558 104.487 100.672 104.437C100.786 104.387 100.91 104.362 101.034 104.362C101.159 104.362 101.282 104.387 101.397 104.437C101.511 104.487 101.614 104.559 101.699 104.65C101.784 104.742 101.849 104.849 101.891 104.967C101.933 105.084 101.95 105.209 101.941 105.334Z" fill="white"/>
<path d="M104.751 105.347C104.739 105.524 104.676 105.693 104.569 105.834C104.462 105.975 104.316 106.082 104.149 106.142C103.982 106.201 103.801 106.21 103.629 106.168C103.457 106.126 103.3 106.034 103.18 105.905C103.059 105.775 102.979 105.613 102.949 105.438C102.919 105.263 102.941 105.084 103.012 104.921C103.083 104.759 103.199 104.621 103.348 104.524C103.496 104.427 103.67 104.376 103.847 104.376C104.095 104.385 104.33 104.493 104.5 104.675C104.669 104.857 104.76 105.098 104.751 105.347Z" fill="white"/>
<path d="M107.562 105.36C107.549 105.538 107.485 105.708 107.377 105.85C107.269 105.991 107.122 106.098 106.953 106.156C106.785 106.215 106.603 106.223 106.431 106.179C106.258 106.135 106.102 106.041 105.982 105.909C105.863 105.778 105.784 105.613 105.757 105.437C105.729 105.261 105.754 105.081 105.829 104.919C105.903 104.757 106.023 104.621 106.174 104.527C106.326 104.432 106.501 104.385 106.679 104.39C106.924 104.404 107.153 104.514 107.318 104.695C107.483 104.877 107.57 105.115 107.562 105.36Z" fill="white"/>
</g>
<path d="M103.569 41.6729C103.875 41.5379 104.135 41.3158 104.317 41.0342C104.498 40.7526 104.592 40.4239 104.588 40.0891C104.599 39.8714 104.566 39.6537 104.491 39.4492C104.416 39.2447 104.299 39.0577 104.149 38.8996C103.999 38.7414 103.819 38.6155 103.618 38.5295C103.418 38.4434 103.202 38.3991 102.984 38.3991C102.766 38.3991 102.551 38.4434 102.35 38.5295C102.15 38.6155 101.97 38.7414 101.82 38.8996C101.669 39.0577 101.553 39.2447 101.478 39.4492C101.402 39.6537 101.369 39.8714 101.381 40.0891C101.374 40.4273 101.468 40.7599 101.65 41.0449C101.832 41.3299 102.095 41.5546 102.404 41.6905C99.9337 42.0611 100.044 44.7434 100.044 44.7434L105.885 44.7699C105.885 44.7699 106.022 42.039 103.569 41.6729Z" fill="#FE7743"/>
<path opacity="0.1" d="M103.569 41.6729C103.875 41.5379 104.135 41.3158 104.317 41.0342C104.498 40.7526 104.592 40.4239 104.588 40.0891C104.599 39.8714 104.566 39.6537 104.491 39.4492C104.416 39.2447 104.299 39.0577 104.149 38.8996C103.999 38.7414 103.819 38.6155 103.618 38.5295C103.418 38.4434 103.202 38.3991 102.984 38.3991C102.766 38.3991 102.551 38.4434 102.35 38.5295C102.15 38.6155 101.97 38.7414 101.82 38.8996C101.669 39.0577 101.553 39.2447 101.478 39.4492C101.402 39.6537 101.369 39.8714 101.381 40.0891C101.374 40.4273 101.468 40.7599 101.65 41.0449C101.832 41.3299 102.095 41.5546 102.404 41.6905C99.9337 42.0611 100.044 44.7434 100.044 44.7434L105.885 44.7699C105.885 44.7699 106.022 42.039 103.569 41.6729Z" fill="#273F4F"/>
<path d="M113.06 46.4999L92.2419 46.4054L92.2306 48.8936L113.049 48.9881L113.06 46.4999Z" fill="#FE7743"/>
<path opacity="0.2" d="M113.06 46.4999L92.2419 46.4054L92.2306 48.8936L113.049 48.9881L113.06 46.4999Z" fill="white"/>
<path d="M36.5244 59.3946H36.3171L35.7171 59.4388C35.3924 59.4583 35.0695 59.501 34.7509 59.5667C34.5446 59.5957 34.3399 59.6354 34.1377 59.6858L33.4539 59.8755C32.29 60.2326 31.1919 60.7764 30.2025 61.4858C28.8952 62.4346 27.8037 63.6495 26.9996 65.0504C26.527 65.858 26.1509 66.7183 25.879 67.6136C25.5933 68.5867 25.4289 69.5914 25.3893 70.6048C25.363 71.1371 25.3719 71.6706 25.4158 72.2018C25.4158 72.4709 25.4908 72.74 25.5261 73.0135C25.5558 73.2893 25.6074 73.5622 25.6805 73.8297C26.0772 75.6 26.8821 77.2531 28.0311 78.6571C29.18 80.0611 30.6412 81.1772 32.298 81.9163C33.4972 82.4338 34.7824 82.7225 36.0877 82.7678C37.4358 82.8419 38.7852 82.6485 40.0582 82.1987L40.4464 82.0531H40.4994L40.5435 82.0796L46.1066 84.9031L45.9434 85.0442C45.3478 83.2001 44.7743 81.4134 44.2184 79.6973V79.6311L44.267 79.5826C45.6165 78.2233 46.6183 76.5586 47.1875 74.7297C47.703 73.0576 47.8535 71.2944 47.6287 69.5592C47.4287 68.0171 46.9329 66.5281 46.1684 65.174C45.5094 64.0107 44.6593 62.9668 43.6537 62.0858C42.8241 61.3885 41.9058 60.804 40.9229 60.3476C40.1791 60.0268 39.4045 59.7829 38.6112 59.6196L37.7288 59.4741L37.0891 59.4255L36.7009 59.3991H36.5685C36.6125 59.3942 36.6569 59.3942 36.7009 59.3991H37.0935L37.7332 59.4255L38.6156 59.5535C39.4188 59.7047 40.204 59.9399 40.9582 60.2549C41.958 60.7059 42.8928 61.2891 43.7375 61.9887C44.7616 62.8658 45.6297 63.9099 46.3052 65.0769C47.0913 66.4456 47.6024 67.9547 47.8095 69.5195C48.053 71.2815 47.913 73.0753 47.3992 74.7782C46.8264 76.6452 45.809 78.3452 44.4346 79.7326L44.4611 79.6178C45.0169 81.334 45.5949 83.1207 46.1949 84.9604L46.2787 85.2295L46.0272 85.1016L40.4641 82.2825H40.5611L40.1641 82.4281C38.8666 82.8847 37.4922 83.0825 36.1186 83.0104C34.7852 82.9597 33.473 82.6604 32.2495 82.1281C29.9156 81.1285 27.9738 79.3913 26.7216 77.1826C26.1454 76.1625 25.7246 75.0622 25.4731 73.9179C25.4043 73.6435 25.3527 73.365 25.3187 73.0841C25.2834 72.8062 25.2261 72.5327 25.2128 72.2591C25.0934 70.6894 25.2594 69.111 25.7025 67.6004C25.9812 66.6927 26.3678 65.8218 26.854 65.0063C27.6773 63.5926 28.7916 62.3701 30.1231 61.4196C31.1288 60.7084 32.2453 60.1688 33.4274 59.8226L34.1201 59.6461C34.3239 59.5988 34.5301 59.562 34.7377 59.5358C35.0596 59.4762 35.3855 59.4408 35.7127 59.4299L36.3171 59.4079C36.3858 59.3986 36.4551 59.3942 36.5244 59.3946Z" fill="#FE7743"/>
<path d="M39.0391 69.6827H38.2229L36.4582 67.2033V65.5754C36.4582 65.5754 35.1965 65.496 35.3465 67.6269C35.4965 69.7577 35.3465 69.2151 35.3465 69.2151C35.3465 69.2151 32.6686 69.2151 32.448 69.4577C32.2274 69.7004 32.2142 72.2856 32.1833 73.7282C32.1664 74.076 32.2662 74.4194 32.4668 74.704C32.6674 74.9886 32.9574 75.1979 33.2906 75.2988C33.384 75.3247 33.4805 75.338 33.5774 75.3385C34.248 75.3385 37.6582 74.7959 37.6582 74.7959H39.0655L39.0391 69.6827Z" fill="#FE7743"/>
<path d="M41.3729 69.2459L40.8699 74.8223H39.4758V69.3607L41.3729 69.2459Z" fill="#FE7743"/>
<path d="M58.0006 182.772V179L51.2374 178.952L51.1801 184.656L51.5992 184.687C53.4653 184.806 61.0932 184.982 62.3461 184.594C63.7402 184.162 58.0006 182.772 58.0006 182.772Z" fill="#FE7743"/>
<path d="M62.5049 184.241C62.5049 184.303 59.9726 184.356 56.8535 184.356C53.7344 184.356 51.2021 184.303 51.2021 184.241C51.2021 184.179 53.7344 184.126 56.8535 184.126C59.9726 184.126 62.5049 184.179 62.5049 184.241Z" fill="#273F4F"/>
<path d="M58.1197 183.544C58.0623 183.513 58.1197 183.315 58.2564 183.103C58.3932 182.891 58.5785 182.803 58.6226 182.847C58.6667 182.891 58.5741 183.059 58.4417 183.24C58.3094 183.421 58.177 183.575 58.1197 183.544Z" fill="#273F4F"/>
<path d="M58.552 183.791C58.4902 183.791 58.5211 183.544 58.6535 183.31C58.7858 183.076 58.9623 182.935 59.0108 182.971C59.0593 183.006 58.9799 183.204 58.8564 183.412C58.7329 183.619 58.6093 183.813 58.552 183.791Z" fill="#273F4F"/>
<path d="M53.2403 184.224C53.2139 184.224 53.1124 184.144 52.9668 183.976C52.7891 183.761 52.5911 183.563 52.3756 183.385C52.1637 183.216 51.9113 183.105 51.6433 183.063C51.4359 183.037 51.3036 183.063 51.2904 183.037C51.2771 183.01 51.4051 182.918 51.6477 182.9C51.9679 182.893 52.2803 182.999 52.53 183.2C52.764 183.391 52.9614 183.622 53.1124 183.884C53.2139 184.078 53.2668 184.206 53.2403 184.224Z" fill="#273F4F"/>
<path d="M58.1417 182.834C58.1726 182.887 58.0579 183.019 57.8638 183.09C57.6697 183.16 57.4976 183.134 57.4888 183.09C57.48 183.046 57.6167 182.953 57.7844 182.891C57.952 182.829 58.1064 182.781 58.1417 182.834Z" fill="#273F4F"/>
<path d="M58.0358 182.468C58.0358 182.534 57.8594 182.587 57.63 182.591C57.4005 182.596 57.2197 182.543 57.2241 182.481C57.2285 182.419 57.4094 182.362 57.63 182.357C57.8505 182.353 58.027 182.406 58.0358 182.468Z" fill="#273F4F"/>
<path d="M74.6547 182.772V179L67.8916 178.952L67.8342 184.599L68.2533 184.629C70.1195 184.749 77.7517 184.982 79.0002 184.594C80.3943 184.162 74.6547 182.772 74.6547 182.772Z" fill="#FE7743"/>
<path d="M79.159 184.25C79.159 184.312 76.6311 184.365 73.5077 184.365C70.3842 184.365 67.8607 184.312 67.8607 184.25C67.8607 184.188 70.3886 184.135 73.5077 184.135C76.6267 184.135 79.159 184.188 79.159 184.25Z" fill="#273F4F"/>
<path d="M74.7738 183.544C74.7209 183.513 74.7738 183.315 74.9106 183.103C75.0473 182.891 75.2326 182.803 75.2767 182.847C75.3209 182.891 75.2282 183.059 75.0959 183.24C74.9635 183.421 74.8312 183.575 74.7738 183.544Z" fill="#273F4F"/>
<path d="M75.2062 183.791C75.1488 183.791 75.1753 183.544 75.312 183.31C75.4488 183.076 75.6209 182.935 75.6694 182.971C75.7179 183.006 75.6341 183.204 75.5106 183.412C75.387 183.619 75.2679 183.813 75.2062 183.791Z" fill="#273F4F"/>
<path d="M69.8945 184.224C69.868 184.224 69.7709 184.144 69.621 183.976C69.4432 183.761 69.2453 183.563 69.0298 183.385C68.8179 183.216 68.5654 183.105 68.2974 183.063C68.0945 183.037 67.9577 183.063 67.9445 183.037C67.9313 183.01 68.0592 182.918 68.3019 182.9C68.6221 182.893 68.9345 182.999 69.1842 183.2C69.4194 183.389 69.6169 183.621 69.7665 183.884C69.868 184.078 69.9209 184.206 69.8945 184.224Z" fill="#273F4F"/>
<path d="M74.7959 182.834C74.8267 182.887 74.712 183.019 74.5179 183.09C74.3238 183.16 74.1517 183.134 74.1429 183.09C74.1341 183.046 74.2709 182.953 74.4385 182.891C74.6061 182.829 74.7606 182.781 74.7959 182.834Z" fill="#273F4F"/>
<path d="M74.6988 182.468C74.6988 182.534 74.5223 182.587 74.2929 182.591C74.0635 182.596 73.8871 182.543 73.8915 182.481C73.8959 182.419 74.0723 182.362 74.2929 182.357C74.5135 182.353 74.6988 182.406 74.6988 182.468Z" fill="#273F4F"/>
<path d="M99.572 70.7592C99.3955 70.5783 98.9587 70.6665 98.9587 70.6665C99.0025 70.4125 99.0025 70.1529 98.9587 69.8989C98.8793 69.6518 98.3234 69.7004 98.3234 69.7004C98.2978 69.4923 98.2978 69.2819 98.3234 69.0739C98.3279 69.0278 98.318 68.9814 98.2951 68.9412C98.2722 68.9009 98.2374 68.8687 98.1955 68.8489C97.9325 68.7417 97.65 68.6906 97.3661 68.6989C97.0264 68.4563 98.4029 66.5284 98.9146 65.9107C99.4264 65.2931 99.3337 64.8122 98.8793 64.8122C98.5661 64.8122 96.9602 66.6651 96.4661 67.2872C95.972 67.9092 94.6617 69.6386 94.6176 68.2577C94.5735 66.8769 94.0176 65.8357 93.6691 65.6593C93.3206 65.4828 92.95 65.8975 93.1397 66.2813C93.3064 66.7174 93.4103 67.1748 93.4485 67.6401C93.4964 68.0107 93.48 68.3868 93.4 68.7518C93.2537 69.431 93.0546 70.0978 92.8044 70.7459H92.7691C92.7691 70.7459 83.1428 79.9796 82.4458 80.637C81.8237 81.2281 69.3121 79.9355 66.8019 79.6708C65.9489 79.546 65.0875 79.487 64.2255 79.4943C63.1358 79.5429 62.9417 79.6973 61.8564 79.7105C59.1156 79.7409 56.3812 79.9813 53.6771 80.4296C52.4527 80.6378 51.309 81.1782 50.3707 81.992C49.4325 82.8057 48.7358 83.8616 48.3566 85.0442C45.8287 92.9412 40.1023 111.634 39.092 122.133C38.3286 123.518 37.6394 124.942 37.0274 126.399C36.3171 128.332 36.4891 128.398 36.7274 128.442C37.3715 128.561 38.1038 125.094 38.3773 125.932C38.6509 126.77 36.9877 130.066 37.6626 130.163C38.545 130.286 39.2464 126.633 39.3303 126.342C39.4141 126.051 39.8508 126.144 39.7714 126.417C39.6435 126.805 38.4038 130.921 39.2685 131.054C39.745 131.124 39.7979 130.255 39.7979 130.255C39.7979 130.255 40.6802 126.316 41.0817 126.395C41.4832 126.474 41.0552 128.799 40.8523 129.576C40.6494 130.352 40.9317 130.745 41.3464 130.555C41.6288 130.423 42.3037 128.063 42.489 127.295C42.6743 126.527 43.1376 124.401 43.7596 125.632C44.3817 126.863 45.3258 127.577 45.714 127.595C45.8015 127.585 45.8839 127.549 45.9508 127.492C46.0176 127.434 46.0657 127.358 46.089 127.273C46.1122 127.188 46.1095 127.098 46.0812 127.015C46.0529 126.932 46.0003 126.859 45.9302 126.805C45.5962 126.479 45.3096 126.108 45.0787 125.702C44.8729 125.386 44.7236 125.037 44.6375 124.67C44.4598 123.938 44.3563 123.19 44.3287 122.438L44.2581 121.997C45.2463 117.104 48.0919 102.744 52.1992 93.572L53.8844 97.0396L54.6168 99.6072L50.1257 110.694L69.2813 110.442L66.4225 99.4396L69.8945 87.9692C73.6488 88.053 83.2884 88.1942 84.8942 87.4663C86.9148 86.5839 97.3661 73.3841 97.3661 73.3841C98.0474 72.8548 98.6998 72.2893 99.3205 71.69C99.3205 71.69 99.9558 71.1562 99.572 70.7592Z" fill="#FFBE9D"/>
<path d="M49.283 102.501C49.8389 100.604 52.6933 91.225 52.6933 91.225C52.6933 91.225 54.0962 98.8705 53.7256 99.7925C53.3847 100.582 52.982 101.343 52.5212 102.069C49.283 106.997 49.7066 109.463 49.7066 109.463L69.2724 108.867C69.3165 106.132 67.6974 99.7705 67.3622 98.7558C67.0269 97.7411 68.143 94.4191 68.143 94.4191C68.143 94.4191 70.3489 92.1735 70.2695 91.0177C70.2276 89.9794 70.0992 88.9464 69.8856 87.9295L81.7972 88.3707L81.4222 80.2972L64.3137 78.5855C63.7181 80.2664 58.3314 79.4414 58.3314 79.4414C52.5168 79.6355 52.155 80.7031 49.7374 82.5825C47.3198 84.4619 43.3184 100.591 43.3184 100.591L49.283 102.501Z" fill="#FE7743"/>
<path d="M60.8505 100.591C60.5114 100.652 60.1661 100.669 59.8226 100.644C59.1829 100.644 58.3049 100.6 57.3388 100.503C56.3726 100.406 55.4991 100.269 54.8771 100.145C54.5341 100.101 54.1978 100.015 53.8756 99.8896C54.2205 99.8897 54.5647 99.9222 54.9035 99.9866C55.53 100.066 56.3991 100.176 57.3608 100.273C58.3226 100.37 59.1961 100.437 59.827 100.481C60.1709 100.485 60.5136 100.522 60.8505 100.591Z" fill="#273F4F"/>
<path d="M62.1916 98.9278C61.8524 99.094 61.4938 99.217 61.124 99.294C59.3639 99.7565 57.548 99.9718 55.7285 99.9337C55.352 99.946 54.9755 99.9104 54.6079 99.8278C54.9795 99.7809 55.3541 99.7617 55.7285 99.7705C56.4211 99.7484 57.3741 99.6999 58.4241 99.5764C59.474 99.4528 60.4093 99.2764 61.0711 99.1352C61.4386 99.037 61.8133 98.9677 62.1916 98.9278Z" fill="#273F4F"/>
<path d="M68.7739 91.5074C68.765 91.8437 68.7191 92.1781 68.6371 92.5044C68.5224 93.1176 68.346 93.9558 68.121 94.8735C67.896 95.7911 67.6798 96.6382 67.4857 97.2117C67.4076 97.54 67.2922 97.8582 67.1416 98.1602C67.1662 97.8249 67.2283 97.4934 67.3269 97.172C67.4945 96.4837 67.6842 95.6896 67.896 94.8205C68.1077 93.9514 68.3107 93.1573 68.4783 92.4691C68.538 92.1379 68.6373 91.815 68.7739 91.5074Z" fill="#273F4F"/>
<path d="M49.4904 101.376C48.4698 101.219 47.4625 100.984 46.4772 100.675C45.4704 100.439 44.4824 100.13 43.5214 99.7484C44.5415 99.9086 45.5486 100.143 46.5346 100.45C47.5416 100.684 48.5296 100.994 49.4904 101.376Z" fill="#273F4F"/>
<path d="M70.0974 87.8324C69.931 87.8611 69.7609 87.8611 69.5945 87.8324C69.1337 87.7852 68.6812 87.6769 68.2489 87.5104C67.5272 87.2392 66.8702 86.82 66.3201 86.2798C65.7701 85.7396 65.3391 85.0903 65.0548 84.3737C64.7407 83.5853 64.6065 82.7367 64.6622 81.8899C64.6819 81.1914 64.8908 80.5113 65.2666 79.9223C65.531 79.5254 65.9258 79.2336 66.3828 79.0973C66.5049 79.0636 66.6311 79.0472 66.7578 79.0487C66.846 79.0487 66.8901 79.0487 66.8901 79.0487C66.8901 79.0487 66.7048 79.0487 66.4092 79.1679C65.99 79.3227 65.6345 79.6131 65.399 79.9928C64.799 80.9369 64.6313 82.6619 65.271 84.2722C65.5687 85.0314 66.0348 85.7132 66.6342 86.2663C67.1254 86.7188 67.691 87.083 68.3063 87.3427C68.8836 87.5709 69.4843 87.7351 70.0974 87.8324Z" fill="#273F4F"/>
<path d="M80.3811 88.2118C80.2707 86.859 80.2353 85.501 80.2752 84.1442C80.2406 82.7886 80.2819 81.4321 80.3987 80.0811C80.5091 81.4325 80.5445 82.7889 80.5046 84.1442C80.5417 85.5014 80.5004 86.8595 80.3811 88.2118Z" fill="#273F4F"/>
<path d="M64.199 79.0796C64.2475 78.0958 64.349 76.9841 64.349 76.9841C64.349 76.9841 66.7842 76.715 66.9298 74.2003C67.0754 71.6856 66.9298 65.8842 66.9298 65.8842L62.5181 63.6255L57.6211 67.4769L58.3755 80.0502L62.8666 80.337C63.2099 80.3465 63.543 80.2194 63.7927 79.9837C64.0425 79.748 64.1886 79.4229 64.199 79.0796Z" fill="#FFBE9D"/>
<path d="M64.6357 72.2106C64.6357 72.2106 64.6357 72.2591 64.596 72.3165C64.5632 72.3581 64.5207 72.3911 64.4723 72.4126C64.4239 72.4341 64.371 72.4435 64.3181 72.44C64.0357 72.44 63.7622 72.1136 63.6652 71.7341C63.619 71.5502 63.619 71.3578 63.6652 71.1739C63.6742 71.0936 63.7032 71.0168 63.7494 70.9506C63.7956 70.8843 63.8576 70.8307 63.9299 70.7945C63.9892 70.7699 64.0558 70.7699 64.1151 70.7945C64.1591 70.8163 64.1948 70.8519 64.2166 70.8959C64.2475 70.9709 64.2166 71.0195 64.2166 71.015C64.2166 71.0106 64.2166 70.9709 64.1725 70.9268C64.1494 70.8952 64.1155 70.8732 64.0773 70.8651C64.039 70.857 63.9991 70.8632 63.9651 70.8827C63.911 70.9154 63.8661 70.9613 63.8344 71.0161C63.8028 71.0708 63.7856 71.1327 63.7843 71.1959C63.7471 71.36 63.7471 71.5303 63.7843 71.6944C63.8725 72.0386 64.1107 72.3165 64.3225 72.343C64.3639 72.3486 64.4061 72.3456 64.4463 72.3342C64.4865 72.3228 64.524 72.3033 64.5563 72.2768C64.6093 72.2415 64.6269 72.2062 64.6357 72.2106Z" fill="#EB996E"/>
<path d="M68.443 64.5254C68.1033 63.3696 66.8725 62.7961 65.7519 62.4784C64.0446 61.9931 62.2005 61.7814 60.5329 62.3946C58.8652 63.0078 56.8623 64.0843 56.8623 65.9239C55.8785 65.8445 55.3138 66.7048 54.9256 67.7724C54.6774 68.4229 54.5287 69.107 54.4844 69.8018C54.3609 72.2106 53.6859 75.537 52.1242 77.3017C51.2418 78.2855 50.0198 78.9649 49.5169 80.1914C49.0757 81.2546 49.3051 82.5163 48.8948 83.5928C48.5286 84.5413 47.7213 85.2163 47.1301 86.0413C46.5279 86.9772 46.1734 88.0508 46.1001 89.1613C46.0268 90.2718 46.237 91.3828 46.711 92.3897C47.1884 93.3708 47.8606 94.2445 48.6866 94.9574C49.5126 95.6704 50.475 96.2077 51.5154 96.5367C53.5761 97.1636 55.7736 97.1851 57.8461 96.5985C59.4016 96.2265 60.8526 95.5071 62.0902 94.4941C63.3565 93.46 64.2262 92.0198 64.5519 90.4177C64.8652 88.6177 64.3622 86.7869 63.9872 84.9957C62.8137 79.3355 63.149 79.0399 64.6313 73.7856C64.6666 73.6929 64.6843 73.5959 64.7107 73.5032C64.7372 73.4106 64.7505 73.3665 64.7681 73.2959C64.8102 73.0882 64.8324 72.8769 64.8343 72.665C64.6178 72.7455 64.3828 72.7626 64.1569 72.7141C63.931 72.6657 63.7237 72.5537 63.5593 72.3915C63.3945 72.2185 63.2796 72.0041 63.2268 71.7711C63.1739 71.5381 63.1852 71.2951 63.2593 71.068C63.3634 70.8196 63.5185 70.5958 63.7146 70.4111C63.9106 70.2264 64.1433 70.085 64.3975 69.9959C64.8872 69.793 65.4122 69.6871 65.8931 69.4621C66.9122 68.9768 67.618 67.971 68.0989 66.9166C68.4943 66.1858 68.6163 65.338 68.443 64.5254Z" fill="#273F4F"/>
<path d="M64.8122 72.3297C64.9054 72.4674 64.9824 72.6155 65.0416 72.7709C65.1739 73.0488 65.3504 73.4415 65.5445 73.8959L65.5798 73.9797H65.4872L65.046 74.0194C64.7416 74.0194 64.4857 74.0768 64.1857 74.0723C64.1596 74.0665 64.1354 74.0541 64.1153 74.0364C64.0953 74.0186 64.08 73.9961 64.071 73.9709C64.0579 73.9307 64.0579 73.8875 64.071 73.8474C64.0812 73.7879 64.0945 73.729 64.1107 73.6709L64.1901 73.3577C64.23 73.1487 64.2921 72.9446 64.3754 72.7488C64.3672 72.9618 64.3361 73.1733 64.2828 73.3797L64.221 73.6929C64.1989 73.7988 64.1592 73.9621 64.221 73.9488C64.4416 73.9488 64.7548 73.9003 65.046 73.8826L65.4872 73.8429L65.4298 73.94C65.2401 73.4988 65.0813 73.0841 64.9886 72.7974C64.9074 72.6509 64.8479 72.4934 64.8122 72.3297Z" fill="#FE7743"/>
<path d="M49.7066 109.463L69.2724 108.867L77.787 142.105L76.2208 180.231H65.8754L67.1416 142.917L59.5755 119.778L60.7402 181.709L50.2845 181.863L49.186 123.651C49.1374 122.032 48.608 118.383 48.8066 116.778L49.7066 109.463Z" fill="#273F4F"/>
<path d="M62.1784 120.25C61.8582 120.27 61.5366 120.25 61.2211 120.192C60.6299 120.122 59.8226 119.998 58.9358 119.822C58.0491 119.645 57.255 119.442 56.6814 119.279C56.3749 119.212 56.0783 119.105 55.7991 118.961C55.7991 118.895 57.2373 119.239 59.002 119.597C60.7667 119.954 62.1872 120.183 62.1784 120.25Z" fill="#455A64"/>
<path d="M76.115 178.14C76.115 178.202 73.7723 178.255 70.8827 178.255C67.993 178.255 65.646 178.202 65.646 178.14C65.646 178.078 67.9886 178.025 70.8827 178.025C73.7768 178.025 76.115 178.074 76.115 178.14Z" fill="#455A64"/>
<path d="M60.6476 180.099C60.6476 180.165 58.3711 180.213 55.5653 180.213C52.7595 180.213 50.4874 180.165 50.4874 180.099C50.4874 180.032 52.7639 179.984 55.5653 179.984C58.3667 179.984 60.6476 180.037 60.6476 180.099Z" fill="#455A64"/>
<path d="M59.2976 179.94C59.2358 179.94 58.9623 166.409 58.6843 149.72C58.4064 133.03 58.2432 119.491 58.3005 119.491C58.3579 119.491 58.6402 133.017 58.9137 149.715C59.1873 166.414 59.3637 179.94 59.2976 179.94Z" fill="#455A64"/>
<path d="M74.7253 178.14C74.7204 178.08 74.7204 178.019 74.7253 177.959V177.43C74.7253 176.953 74.7606 176.269 74.787 175.4C74.8488 173.635 74.937 171.072 75.0473 167.931C75.2856 161.614 75.6209 152.905 75.987 143.292C75.987 143.199 75.987 143.111 75.987 143.032V143.062C73.6709 133.798 71.5753 125.389 70.0533 119.305L68.2886 112.11C68.0857 111.267 67.9313 110.61 67.821 110.151C67.768 109.935 67.7328 109.767 67.7019 109.639C67.6847 109.582 67.6743 109.523 67.671 109.463C67.6939 109.519 67.7116 109.576 67.7239 109.635C67.7592 109.759 67.8033 109.926 67.8651 110.138C67.9842 110.579 68.1563 111.25 68.3769 112.088C68.818 113.791 69.4401 116.244 70.2165 119.266C71.7518 125.345 73.8694 133.732 76.2164 143.009V143.04C76.2164 143.12 76.2164 143.212 76.2164 143.301C75.8238 152.914 75.4664 161.618 75.2062 167.936C75.0694 171.081 74.9547 173.627 74.8753 175.4C74.8312 176.282 74.7959 176.953 74.7738 177.43C74.7738 177.655 74.7473 177.831 74.7429 177.959C74.7436 178.02 74.7377 178.08 74.7253 178.14Z" fill="#455A64"/>
<path d="M71.3503 142.255C70.6072 142.499 69.8417 142.669 69.0651 142.762C68.1121 142.926 67.3004 143.04 66.9342 143.058V142.97C67.0533 143.005 67.1151 143.027 67.1151 143.045C67.1151 143.062 67.0401 143.045 66.9166 143.045H66.6519L66.9166 142.965C67.2607 142.864 68.0724 142.696 69.0253 142.524C69.7896 142.358 70.5684 142.268 71.3503 142.255Z" fill="#455A64"/>
<path d="M71.1694 143.521C70.4813 143.553 69.7917 143.522 69.1092 143.429C68.4201 143.414 67.7335 143.339 67.0577 143.204C68.4365 143.091 69.8243 143.198 71.1694 143.521Z" fill="#455A64"/>
<path opacity="0.2" d="M49.6227 110.164C49.8545 110.462 50.1463 110.707 50.4793 110.884C50.8122 111.062 51.1788 111.166 51.5551 111.192C52.3431 111.286 53.1402 111.271 53.9241 111.148C58.9755 110.588 64.3269 110.072 69.2724 108.867C62.8711 109.225 56.1079 109.106 49.7066 109.463L49.6404 110.01" fill="#273F4F"/>
<g opacity="0.2">
<path d="M56.2182 119.186L59.827 133.189L59.5755 119.777L56.2182 119.186Z" fill="#273F4F"/>
</g>
</svg>
