<svg width="182" height="118" viewBox="0 0 182 118" fill="none" xmlns="http://www.w3.org/2000/svg">
<path d="M39.9947 8.98558H7.89076V63.1889H39.9947V8.98558Z" fill="#FAFAFA"/>
<path d="M17.8922 63.7073C17.8922 63.7073 14.3716 39.323 12.5319 36.6419C12.5319 36.6419 23.0503 29.022 23.3709 8.36684H7.41135V63.7073H17.8922Z" fill="#F5F5F5"/>
<path d="M29.9904 63.6014C29.9904 63.6014 33.5052 39.2143 35.3478 36.536C35.3478 36.536 24.8323 28.9133 24.5088 8.26093H40.4684V63.6014H29.9904Z" fill="#F5F5F5"/>
<path d="M40.8381 6.92034H4.91608V64.981H42.3283V6.92034H40.8381ZM14.3428 37.085V50.8923H7.8908V37.085H14.3428ZM7.8908 36.0872V21.7978H14.3428V36.0872H7.8908ZM24.1652 36.0872V21.7978H32.2518V36.0872H24.1652ZM32.2518 37.085V50.8923H24.1652V37.085H32.2518ZM14.6345 36.0872V21.7978H23.1341V36.0872H14.6345ZM23.1341 37.085V50.8923H14.6316V37.085H23.1341ZM14.6316 21.5414V8.99951H23.1312V21.5414H14.6316ZM23.1312 51.1403V63.1945H14.6316V51.1403H23.1312ZM24.1652 51.1403H32.2518V63.1945H24.1652V51.1403ZM24.1652 21.5498V8.99951H32.2518V21.5414L24.1652 21.5498ZM32.5233 37.085H39.3507V50.8923H32.5233V37.085ZM32.5233 36.0872V21.7978H39.3507V36.0872H32.5233ZM39.3507 21.5414H32.5233V8.99951H39.3507V21.5414ZM14.3428 8.99951V21.5414H7.8908V8.99951H14.3428ZM7.8908 51.1403H14.3428V63.1945H7.8908V51.1403ZM32.5233 63.1945V51.1403H39.3507V63.1945H32.5233Z" fill="#EBEBEB"/>
<path d="M149.303 19.7242H51.625V82.8574H149.303V19.7242Z" fill="#F5F5F5"/>
<path d="M149.303 19.7242H51.625V26.0314H149.303V19.7242Z" fill="#EBEBEB"/>
<path d="M55.8561 22.8764C55.8677 23.0295 55.8313 23.1823 55.7515 23.3151C55.6718 23.4479 55.5525 23.5544 55.4091 23.6207C55.2657 23.6871 55.105 23.7102 54.9478 23.6871C54.7906 23.664 54.6442 23.5958 54.5278 23.4913C54.4114 23.3867 54.3303 23.2508 54.2951 23.1012C54.26 22.9515 54.2723 22.7951 54.3306 22.6523C54.3888 22.5096 54.4903 22.387 54.6218 22.3007C54.7533 22.2144 54.9086 22.1684 55.0676 22.1685C55.2694 22.1617 55.4657 22.2325 55.6135 22.3652C55.7613 22.4979 55.8486 22.6817 55.8561 22.8764Z" fill="#FAFAFA"/>
<path d="M58.4034 22.8764C58.415 23.0295 58.3785 23.1823 58.2988 23.3151C58.2191 23.4479 58.0998 23.5544 57.9564 23.6207C57.813 23.6871 57.6523 23.7102 57.4951 23.6871C57.3379 23.664 57.1915 23.5958 57.0751 23.4913C56.9587 23.3867 56.8776 23.2508 56.8424 23.1012C56.8072 22.9515 56.8196 22.7951 56.8779 22.6523C56.9361 22.5096 57.0376 22.387 57.1691 22.3007C57.3006 22.2144 57.4559 22.1684 57.6149 22.1685C57.8167 22.1617 58.013 22.2325 58.1608 22.3652C58.3086 22.4979 58.3958 22.6817 58.4034 22.8764Z" fill="#FAFAFA"/>
<path d="M60.9507 22.8764C60.9623 23.0295 60.9258 23.1823 60.8461 23.3151C60.7664 23.4479 60.647 23.5544 60.5037 23.6207C60.3603 23.6871 60.1995 23.7102 60.0424 23.6871C59.8852 23.664 59.7388 23.5958 59.6224 23.4913C59.506 23.3867 59.4249 23.2508 59.3897 23.1012C59.3545 22.9515 59.3669 22.7951 59.4251 22.6523C59.4834 22.5096 59.5849 22.387 59.7164 22.3007C59.8478 22.2144 60.0032 22.1684 60.1622 22.1685C60.364 22.1617 60.5603 22.2325 60.7081 22.3652C60.8559 22.4979 60.9431 22.6817 60.9507 22.8764Z" fill="#FAFAFA"/>
<path d="M179.206 32.1992H159.582V56.8956L179.206 57.3722V32.1992Z" fill="#EBEBEB"/>
<path d="M177.915 33.08H160.743V55.477L177.915 56.0372V33.08Z" fill="#FAFAFA"/>
<path d="M174.909 37.1491L163.512 36.7311V52.3861H174.909V37.1491Z" fill="#EBEBEB"/>
<path d="M163.512 52.3861L174.909 44.3426L163.512 36.7311V52.3861Z" fill="#F5F5F5"/>
<path d="M177.043 14.8217L166.12 14.4929V28.2388L177.043 28.5036V14.8217Z" fill="#EBEBEB"/>
<path d="M176.324 15.421L166.767 14.9834V27.4473L176.324 27.7594V15.421Z" fill="#FAFAFA"/>
<path d="M174.652 17.2465L168.309 17.0152V25.7276H174.652V17.2465Z" fill="#EBEBEB"/>
<path d="M168.309 25.7276L174.652 21.2516L168.309 17.0152V25.7276Z" fill="#F5F5F5"/>
<path d="M101.898 3.18007L100.852 12.5503H114.256L115.368 3.18007H101.898Z" fill="#EBEBEB"/>
<path d="M102.45 3.79602L101.43 11.9956H113.528L114.507 3.79602H102.45Z" fill="#FAFAFA"/>
<path d="M104.486 5.23137L103.859 10.6746H111.492L111.885 5.23137H104.486Z" fill="#EBEBEB"/>
<path d="M119.388 0L117.985 12.5503H135.943L137.433 0H119.388Z" fill="#EBEBEB"/>
<path d="M120.125 0.824978L118.761 11.8089H134.969L136.281 0.824978H120.125Z" fill="#FAFAFA"/>
<path d="M122.854 2.74807L122.013 10.0363H132.24L132.766 2.74807H122.854Z" fill="#EBEBEB"/>
<path d="M144.136 12.5503H91.8387V13.994H144.136V12.5503Z" fill="#EBEBEB"/>
<path d="M100.786 17.5057L98.4958 13.994H101.898V17.5057H100.786Z" fill="#EBEBEB"/>
<path d="M99.6019 13.994L101.626 17.5057H101.898V13.994H99.6019Z" fill="white"/>
<path d="M130.961 17.5057L128.67 13.994H132.073V17.5057H130.961Z" fill="#EBEBEB"/>
<path d="M129.777 13.994L131.801 17.5057H132.073V13.994H129.777Z" fill="white"/>
<path d="M29.2799 98.3787C34.0944 95.3408 35.316 89.5185 35.2612 84.2621C35.2612 83.3842 35.3767 82.4616 34.9579 81.6812C34.5391 80.9009 33.5312 80.3546 32.6965 80.703C32.0063 80.9956 31.6886 81.7453 31.29 82.3752C30.7555 83.2018 29.9895 83.8656 29.0807 84.29C28.4886 84.5687 27.7579 84.7247 27.1861 84.407C26.4034 83.9722 26.337 82.9243 26.363 82.0519L26.5189 77.1773C26.597 76.3061 26.5257 75.4285 26.3081 74.5797C26.0453 73.7436 25.4417 72.9632 24.5752 72.7096C23.7088 72.456 22.62 72.9103 22.415 73.7603C22.3715 74.121 22.3541 74.4843 22.363 74.8473C22.3283 75.2068 22.1406 75.6054 21.7854 75.6834C21.4301 75.7615 21.0576 75.5218 20.789 75.2598C19.8677 74.3568 19.2525 73.2085 18.6836 72.0658C18.1146 70.9231 17.5485 69.7581 16.711 68.777C15.8734 67.796 14.7124 67.0072 13.4012 66.9069C12.0901 66.8065 10.6749 67.5451 10.3283 68.7631C9.98175 69.981 10.6864 71.252 11.4836 72.2665C12.6644 73.7726 14.0641 75.1064 15.6395 76.2269C15.9475 76.3978 16.1905 76.6596 16.3326 76.9739C16.5175 77.5591 15.9254 78.1221 15.316 78.3005C14.6287 78.5012 13.8893 78.4176 13.1731 78.4789C12.4568 78.5402 11.6771 78.8245 11.3911 79.4627C10.9926 80.3462 11.7521 81.2966 12.5059 81.9265C14.0216 83.1913 15.7506 84.1962 17.6178 84.8975C18.285 85.1456 18.9868 85.3686 19.5182 85.8312C20.0496 86.2939 20.3586 87.0882 20.015 87.693C19.6713 88.2978 18.8251 88.479 18.1204 88.3368C17.4157 88.1947 16.7976 87.8184 16.1305 87.5592C14.8828 87.077 13.2424 87.1244 12.4251 88.1417C12.1701 88.4909 12.0036 88.8929 11.9389 89.3155C11.8742 89.7381 11.9131 90.1694 12.0525 90.5748C12.341 91.383 12.7947 92.127 13.3868 92.7627C15.3322 95.096 17.8817 96.892 20.7774 97.969C23.6655 99.0002 26.3716 99.3235 29.2973 98.3787" fill="#FE7743"/>
<path d="M11.6655 67.5981L11.7521 67.6817L12.0178 67.9214C12.2546 68.1276 12.5954 68.4342 13.0344 68.8383C14.2635 69.9795 15.4017 71.2083 16.4395 72.5145C17.1008 73.3506 17.7853 74.2704 18.5016 75.2849C19.2178 76.2994 19.9745 77.3863 20.7225 78.5597C21.5152 79.7805 22.2383 81.0421 22.8886 82.339C23.2236 83.0135 23.5211 83.7186 23.8243 84.4377L24.7398 86.6227C25.9218 89.3881 26.9401 92.2159 27.7896 95.0927C28.4737 97.443 28.9244 99.8507 29.1355 102.283C29.2717 103.925 29.2581 105.575 29.0951 107.214C29.0344 107.793 28.9766 108.242 28.9247 108.546C28.9044 108.691 28.8871 108.805 28.8727 108.892C28.8701 108.931 28.8701 108.97 28.8727 109.009C28.888 108.972 28.8977 108.934 28.9016 108.894L28.9709 108.552C29.0315 108.248 29.1008 107.799 29.173 107.219C29.3613 105.577 29.3923 103.922 29.2655 102.275C29.0691 99.8323 28.6271 97.4138 27.9456 95.0537C27.1027 92.1692 26.0863 89.3346 24.9016 86.5642L23.986 84.3764C23.6828 83.6601 23.3824 82.9494 23.0416 82.2721C22.3896 80.9699 21.6616 79.7044 20.8611 78.4816C20.1045 77.3083 19.3449 76.2213 18.6229 75.2068C17.9008 74.1923 17.2106 73.2559 16.5406 72.4448C15.4889 71.1399 14.3299 69.9189 13.0749 68.7937C12.633 68.3952 12.2806 68.0942 12.038 67.8963L11.7492 67.6705C11.7238 67.6438 11.6958 67.6195 11.6655 67.5981Z" fill="#273F4F"/>
<path d="M22.9897 82.2637C23.0368 82.1441 23.0697 82.0198 23.0878 81.8931C23.1427 81.6534 23.2091 81.305 23.2842 80.873C23.4344 80.0062 23.6019 78.805 23.781 77.4783C23.9601 76.1517 24.142 74.956 24.3066 74.0948C24.3875 73.6628 24.4568 73.3172 24.5088 73.0747C24.5432 72.9518 24.5635 72.8256 24.5694 72.6984C24.5138 72.8142 24.4722 72.9358 24.4453 73.0608C24.3759 73.2977 24.2864 73.6433 24.1911 74.0725C23.9947 74.9309 23.7925 76.1293 23.6135 77.456C23.4344 78.7827 23.2842 79.9505 23.1658 80.8535C23.1081 81.2632 23.0619 81.606 23.0243 81.8819C22.9972 82.0074 22.9856 82.1356 22.9897 82.2637Z" fill="#273F4F"/>
<path d="M11.2669 79.8975C11.4205 79.9325 11.5771 79.954 11.7348 79.9616C12.0236 79.995 12.4741 80.0396 13.0113 80.1093C14.0857 80.2459 15.5673 80.4828 17.1846 80.8117C18.8019 81.1405 20.2575 81.5056 21.3001 81.7955C21.8229 81.9349 22.2416 82.0603 22.5333 82.1467C22.6809 82.2006 22.8338 82.2399 22.9897 82.2637C22.8499 82.1922 22.704 82.1325 22.5536 82.0854C22.2648 81.9822 21.8546 81.8401 21.3348 81.684C20.298 81.3663 18.8453 80.9872 17.2193 80.6528C15.5933 80.3183 14.1088 80.0954 13.0258 79.995C12.4857 79.9393 12.0438 79.9114 11.7406 79.8975C11.583 79.8831 11.4245 79.8831 11.2669 79.8975Z" fill="#273F4F"/>
<path d="M27.8012 94.8419C27.8361 94.8007 27.8643 94.7547 27.885 94.7053L28.0958 94.304C28.2806 93.9556 28.529 93.4455 28.8294 92.8073C29.4301 91.5364 30.2012 89.7554 31.0243 87.7905C31.8474 85.8256 32.6012 84.028 33.1759 82.7459C33.4647 82.1216 33.6842 81.6088 33.8575 81.2297L34.0395 80.8145C34.063 80.7672 34.0814 80.7177 34.0943 80.6667C34.0593 80.7074 34.0302 80.7524 34.0077 80.8005C33.9528 80.9092 33.8806 81.043 33.7969 81.2019C33.6149 81.5502 33.3665 82.0631 33.0662 82.6985C32.4655 83.9694 31.6943 85.7643 30.8684 87.7292C30.0424 89.6941 29.2915 91.4918 28.7196 92.7738L28.038 94.2845L27.8561 94.6969C27.8309 94.7426 27.8124 94.7913 27.8012 94.8419Z" fill="#273F4F"/>
<path d="M12.2778 89.6802C12.3253 89.7086 12.3769 89.7302 12.4308 89.7443L12.8814 89.9004L14.5449 90.4578C15.9485 90.9288 17.8778 91.5977 20.0092 92.3419C22.1406 93.086 24.0814 93.7354 25.4965 94.1785C26.2041 94.4015 26.7788 94.5743 27.1774 94.6858L27.6366 94.814C27.69 94.8311 27.7452 94.8423 27.8012 94.8474C27.7535 94.8187 27.702 94.7962 27.6481 94.7806L27.1976 94.6273L25.5341 94.0698C24.1305 93.6016 22.2012 92.9327 20.0669 92.1886C17.9326 91.4444 15.9976 90.795 14.5796 90.3491C13.872 90.1289 13.2973 89.9561 12.8987 89.8418L12.4395 89.7164C12.3876 89.6972 12.3331 89.685 12.2778 89.6802Z" fill="#273F4F"/>
<path d="M160.39 108.936C160.39 108.978 128.003 109.009 88.0582 109.009C48.1131 109.009 15.7204 108.978 15.7204 108.936C15.7204 108.894 48.1016 108.864 88.0582 108.864C128.015 108.864 160.39 108.897 160.39 108.936Z" fill="#273F4F"/>
<path d="M133.713 25.0922H35.394C34.991 25.0922 34.5919 25.1688 34.2196 25.3177C33.8473 25.4667 33.509 25.6849 33.2242 25.9601C32.9393 26.2352 32.7135 26.5619 32.5595 26.9213C32.4055 27.2807 32.3265 27.6659 32.3269 28.0548V95.0704C32.3265 95.4594 32.4055 95.8445 32.5595 96.204C32.7135 96.5634 32.9393 96.89 33.2242 97.1652C33.509 97.4403 33.8473 97.6586 34.2196 97.8075C34.5919 97.9564 34.991 98.0331 35.394 98.0331H73.1297C73.1297 98.0331 75.5297 105.196 68.0871 108.903H103.371C103.371 108.903 94.9723 106.116 97.1326 98.0331H133.713C134.527 98.0331 135.308 97.721 135.884 97.1653C136.46 96.6097 136.783 95.8562 136.783 95.0704V28.0548C136.783 27.2691 136.46 26.5155 135.884 25.9599C135.308 25.4043 134.527 25.0922 133.713 25.0922Z" fill="#273F4F"/>
<path d="M85.9701 90.9595C87.3073 92.8045 85.2135 94.8251 83.3016 93.5347C83.2377 93.4912 83.182 93.4375 83.1369 93.3759C81.8026 91.5308 83.8936 89.513 85.8055 90.8006C85.8694 90.8441 85.9251 90.8978 85.9701 90.9595Z" fill="#455A64"/>
<path d="M133.517 28.4785H35.5904C35.0688 28.4785 34.646 28.8865 34.646 29.3899V84.7024C34.646 85.2058 35.0688 85.6138 35.5904 85.6138H133.517C134.038 85.6138 134.461 85.2058 134.461 84.7024V29.3899C134.461 28.8865 134.038 28.4785 133.517 28.4785Z" fill="white"/>
<path d="M134.461 32.6647H34.646V85.6138H134.461V32.6647Z" fill="#FAFAFA"/>
<path d="M42.8337 30.6831C42.8337 30.8352 42.7869 30.9839 42.6994 31.1104C42.6118 31.2369 42.4873 31.3355 42.3416 31.3937C42.196 31.452 42.0357 31.4672 41.8811 31.4375C41.7265 31.4078 41.5844 31.3346 41.4729 31.227C41.3615 31.1194 41.2855 30.9824 41.2548 30.8331C41.224 30.6839 41.2398 30.5292 41.3001 30.3887C41.3605 30.2481 41.4626 30.128 41.5937 30.0435C41.7248 29.9589 41.8789 29.9138 42.0366 29.9138C42.248 29.9138 42.4507 29.9949 42.6002 30.1391C42.7497 30.2834 42.8337 30.4791 42.8337 30.6831Z" fill="#FE7743"/>
<path d="M38.0019 30.6831C38.0019 30.8352 37.9552 30.9839 37.8676 31.1104C37.78 31.2369 37.6555 31.3355 37.5099 31.3937C37.3642 31.452 37.2039 31.4672 37.0493 31.4375C36.8947 31.4078 36.7527 31.3346 36.6412 31.227C36.5297 31.1194 36.4538 30.9824 36.423 30.8331C36.3923 30.6839 36.4081 30.5292 36.4684 30.3887C36.5287 30.2481 36.6309 30.128 36.762 30.0435C36.8931 29.9589 37.0472 29.9138 37.2048 29.9138C37.4162 29.9138 37.619 29.9949 37.7685 30.1391C37.918 30.2834 38.0019 30.4791 38.0019 30.6831Z" fill="#FE7743"/>
<path d="M40.3211 30.6831C40.3211 30.8352 40.2743 30.9839 40.1867 31.1104C40.0991 31.2369 39.9747 31.3355 39.829 31.3937C39.6833 31.452 39.5231 31.4672 39.3684 31.4375C39.2138 31.4078 39.0718 31.3346 38.9603 31.227C38.8488 31.1194 38.7729 30.9824 38.7422 30.8331C38.7114 30.6839 38.7272 30.5292 38.7875 30.3887C38.8479 30.2481 38.95 30.128 39.0811 30.0435C39.2122 29.9589 39.3663 29.9138 39.524 29.9138C39.7354 29.9138 39.9381 29.9949 40.0876 30.1391C40.2371 30.2834 40.3211 30.4791 40.3211 30.6831Z" fill="#FE7743"/>
<path d="M83.8272 57.3193C83.8272 57.3611 80.1709 57.3973 75.6626 57.3973C71.1543 57.3973 67.4951 57.3611 67.4951 57.3193C67.4951 57.2775 71.1514 57.2412 75.6626 57.2412C80.1738 57.2412 83.8272 57.2747 83.8272 57.3193Z" fill="#455A64"/>
<path d="M83.8272 59.4291C83.8272 59.4709 80.1709 59.5071 75.6626 59.5071C71.1543 59.5071 67.4951 59.4709 67.4951 59.4291C67.4951 59.3873 71.1514 59.3483 75.6626 59.3483C80.1738 59.3483 83.8272 59.3845 83.8272 59.4291Z" fill="#455A64"/>
<path d="M77.2828 61.5362C77.2828 61.5807 75.0936 61.617 72.3904 61.617C69.6871 61.617 67.4951 61.5807 67.4951 61.5362C67.4951 61.4916 69.6871 61.4581 72.3904 61.4581C75.0936 61.4581 77.2828 61.4943 77.2828 61.5362Z" fill="#455A64"/>
<path d="M75.2611 35.7639H67.4951V36.7143H75.2611V35.7639Z" fill="#455A64"/>
<path d="M84.5608 38.8269H67.4951V54.7607H84.5608V38.8269Z" fill="white"/>
<path d="M68.8178 53.3951L73.5398 45.1954L77.4012 50.438L79.7463 47.6537L83.238 53.3951H68.8178Z" fill="#FE7743"/>
<path d="M77.8171 44.7857C78.495 44.7857 79.0445 44.2554 79.0445 43.6012C79.0445 42.947 78.495 42.4167 77.8171 42.4167C77.1392 42.4167 76.5896 42.947 76.5896 43.6012C76.5896 44.2554 77.1392 44.7857 77.8171 44.7857Z" fill="#FE7743"/>
<path d="M83.238 53.4397C83.2349 53.4184 83.2349 53.3968 83.238 53.3756C83.238 53.3254 83.238 53.2669 83.238 53.1888C83.238 53.0188 83.238 52.7791 83.238 52.4725C83.238 51.8399 83.238 50.9257 83.2207 49.7663C83.2207 47.4391 83.2005 44.1252 83.186 40.1452L83.2553 40.2121H68.838C68.8178 40.2289 68.9882 40.0644 68.916 40.1369V43.7099C68.916 44.8805 68.916 46.0288 68.916 47.1436C68.916 49.3733 68.916 51.4859 68.916 53.4257L68.8438 53.356L79.2698 53.3923L82.2099 53.409H82.9896H83.1918H82.9983H82.2301L79.3073 53.4257L68.8351 53.4619H68.7658V53.3923C68.7658 51.4413 68.7658 49.3426 68.7658 47.1102C68.7658 45.9953 68.7658 44.8471 68.7658 43.6765V40.1508C68.6936 40.2177 68.864 40.0505 68.8496 40.07H83.2669H83.3362V40.1369C83.3218 44.1336 83.3102 47.4613 83.3015 49.7997C83.3015 50.9536 83.2871 51.8622 83.2813 52.492C83.2813 52.793 83.2813 53.0272 83.2813 53.1944C83.2813 53.2696 83.2813 53.3282 83.2813 53.3728C83.2689 53.3962 83.2544 53.4186 83.238 53.4397Z" fill="#455A64"/>
<path d="M104.633 57.3193C104.633 57.3611 100.977 57.3973 96.4654 57.3973C91.9543 57.3973 88.3008 57.3611 88.3008 57.3193C88.3008 57.2775 91.9543 57.2412 96.4654 57.2412C100.977 57.2412 104.633 57.2747 104.633 57.3193Z" fill="#455A64"/>
<path d="M104.633 59.4291C104.633 59.4709 100.977 59.5071 96.4654 59.5071C91.9543 59.5071 88.3008 59.4709 88.3008 59.4291C88.3008 59.3873 91.9543 59.3483 96.4654 59.3483C100.977 59.3483 104.633 59.3845 104.633 59.4291Z" fill="#455A64"/>
<path d="M98.0885 61.5362C98.0885 61.5807 95.8965 61.617 93.1932 61.617C90.49 61.617 88.3066 61.5807 88.3066 61.5362C88.3066 61.4916 90.4958 61.4581 93.199 61.4581C95.9023 61.4581 98.0885 61.4943 98.0885 61.5362Z" fill="#455A64"/>
<path d="M96.0669 35.7639H88.3008V36.7143H96.0669V35.7639Z" fill="#455A64"/>
<path d="M105.367 38.8269H88.3008V54.7607H105.367V38.8269Z" fill="white"/>
<path d="M89.6236 53.3951L94.3427 45.1954L98.2041 50.438L100.552 47.6537L104.041 53.3951H89.6236Z" fill="#FE7743"/>
<path d="M99.8589 43.6012C99.8595 43.8363 99.7878 44.0662 99.6528 44.2619C99.5178 44.4576 99.3257 44.6102 99.1008 44.7004C98.8758 44.7906 98.6282 44.8144 98.3893 44.7686C98.1504 44.7229 97.9309 44.6098 97.7586 44.4436C97.5864 44.2773 97.4692 44.0655 97.4218 43.835C97.3744 43.6044 97.399 43.3654 97.4925 43.1484C97.586 42.9313 97.7441 42.7459 97.9469 42.6156C98.1497 42.4854 98.3879 42.4162 98.6315 42.4167C98.957 42.4167 99.2692 42.5415 99.4994 42.7636C99.7296 42.9858 99.8589 43.2871 99.8589 43.6012Z" fill="#FE7743"/>
<path d="M104.041 53.4397C104.041 53.4397 104.041 53.4174 104.041 53.3756C104.041 53.3337 104.041 53.2669 104.041 53.1888C104.041 53.0188 104.041 52.7791 104.041 52.4725C104.041 51.8399 104.041 50.9257 104.024 49.7663C104.024 47.4391 104 44.1252 103.986 40.1452L104.055 40.2121H89.638C89.6178 40.2289 89.7911 40.0644 89.7189 40.1369V43.7099C89.7189 44.8805 89.7189 46.0288 89.7189 47.1436C89.7189 49.3733 89.7189 51.4859 89.7189 53.4257L89.6496 53.356L100.076 53.3923L103.016 53.409H103.795H103.998H103.801H103.036L100.11 53.4257L89.6409 53.4619H89.5687V53.3923C89.5687 51.4413 89.5687 49.3426 89.5687 47.1102V40.1508C89.4936 40.2177 89.6669 40.0505 89.6496 40.07H104.067H104.139V40.1369C104.122 44.1336 104.11 47.4613 104.102 49.7997C104.102 50.9536 104.087 51.8622 104.084 52.492C104.084 52.793 104.084 53.0272 104.084 53.1944C104.084 53.2696 104.084 53.3282 104.084 53.3728C104.074 53.3972 104.059 53.4198 104.041 53.4397Z" fill="#455A64"/>
<path d="M75.807 64.4765H68.0409V65.4269H75.807V64.4765Z" fill="#455A64"/>
<path d="M85.1066 67.5368H68.0409V83.4706H85.1066V67.5368Z" fill="white"/>
<path d="M69.3636 82.1077L74.0857 73.9081L77.947 79.1478L80.2922 76.3663L83.7839 82.1077H69.3636Z" fill="#FE7743"/>
<path d="M79.5932 72.3138C79.5932 72.5487 79.5211 72.7782 79.3859 72.9735C79.2507 73.1687 79.0586 73.3209 78.8337 73.4107C78.6089 73.5006 78.3616 73.5241 78.1229 73.4783C77.8842 73.4325 77.665 73.3194 77.493 73.1534C77.3209 72.9873 77.2037 72.7758 77.1562 72.5455C77.1088 72.3151 77.1331 72.0764 77.2263 71.8595C77.3194 71.6425 77.4771 71.4571 77.6794 71.3266C77.8817 71.1962 78.1196 71.1265 78.3629 71.1265C78.5246 71.1262 78.6848 71.1566 78.8342 71.2162C78.9836 71.2757 79.1194 71.3631 79.2337 71.4735C79.3481 71.5838 79.4387 71.7148 79.5004 71.859C79.5621 72.0032 79.5936 72.1578 79.5932 72.3138Z" fill="#FE7743"/>
<path d="M83.7839 82.1522C83.7839 82.1522 83.7839 82.1272 83.7839 82.0854C83.7839 82.0436 83.7839 81.9767 83.7839 81.8986C83.7839 81.7314 83.7839 81.4917 83.7839 81.1823C83.7839 80.5525 83.7839 79.6383 83.7636 78.4761C83.7636 76.1489 83.7434 72.835 83.729 68.8578L83.7983 68.9247H69.381L69.4618 68.8467V69.7581C69.4618 70.0591 69.4618 70.3601 69.4618 70.6583V75.8674C69.4618 78.097 69.4618 80.2069 69.4618 82.1495L69.3896 82.0798L79.8156 82.116L82.7557 82.1327H83.5384H83.7405C83.7636 82.1305 83.7868 82.1305 83.8099 82.1327H83.5528H82.7875L79.8618 82.1522L69.3896 82.1857H69.3203V82.1188C69.3203 80.1678 69.3203 78.0664 69.3203 75.8367C69.3203 74.7219 69.3203 73.5773 69.3203 72.403V68.8578L69.4041 68.777H83.8214H83.8907V68.8467C83.8763 72.8434 83.8647 76.1712 83.8561 78.5095C83.8561 79.6634 83.8561 80.572 83.8387 81.1991C83.8387 81.5029 83.8387 81.737 83.8387 81.9042C83.8387 81.9767 83.8387 82.0352 83.8387 82.0826C83.8264 82.1097 83.8076 82.1335 83.7839 82.1522Z" fill="#455A64"/>
<path d="M96.6272 64.4765H88.8611V65.4269H96.6272V64.4765Z" fill="#455A64"/>
<path d="M105.927 67.5368H88.8611V83.4706H105.927V67.5368Z" fill="white"/>
<path d="M90.1839 82.1077L94.9059 73.9081L98.7672 79.1478L101.112 76.3663L104.604 82.1077H90.1839Z" fill="#FE7743"/>
<path d="M100.411 72.3138C100.41 72.548 100.338 72.7767 100.202 72.9711C100.067 73.1656 99.8752 73.317 99.6509 73.4062C99.4265 73.4954 99.1798 73.5185 98.9419 73.4725C98.704 73.4264 98.4856 73.3134 98.3142 73.1476C98.1428 72.9819 98.0262 72.7708 97.9791 72.5411C97.9319 72.3114 97.9564 72.0734 98.0494 71.8571C98.1424 71.6408 98.2997 71.456 98.5015 71.326C98.7033 71.1959 98.9405 71.1265 99.1831 71.1265C99.3446 71.1265 99.5044 71.1573 99.6535 71.217C99.8026 71.2767 99.9381 71.3642 100.052 71.4744C100.166 71.5847 100.256 71.7156 100.318 71.8597C100.379 72.0037 100.411 72.158 100.411 72.3138Z" fill="#FE7743"/>
<path d="M104.604 82.1522C104.602 82.13 104.602 82.1076 104.604 82.0854C104.604 82.038 104.604 81.9767 104.604 81.8986C104.604 81.7314 104.604 81.4917 104.604 81.1823C104.604 80.5525 104.604 79.6383 104.587 78.4761C104.587 76.1489 104.567 72.835 104.552 68.8578L104.621 68.9247H90.2012L90.282 68.8467V72.4253C90.282 73.5959 90.282 74.7405 90.282 75.859C90.282 78.0887 90.282 80.1985 90.282 82.1411L90.2098 82.0714L100.636 82.1077L103.576 82.1244H104.356H104.558H104.63H104.373H103.605L100.682 82.1439L90.2098 82.1773H90.1376V82.1104C90.1376 80.1595 90.1376 78.058 90.1376 75.8283C90.1376 74.7135 90.1376 73.5689 90.1376 72.3946V68.8578L90.2185 68.777H104.639H104.708V68.8467C104.694 72.8434 104.682 76.1712 104.673 78.5095C104.673 79.6634 104.659 80.572 104.653 81.1991C104.653 81.5029 104.653 81.737 104.653 81.9042C104.653 81.9767 104.653 82.0352 104.653 82.0826C104.639 82.1072 104.623 82.1305 104.604 82.1522Z" fill="#455A64"/>
<path d="M118.109 64.4765H110.343V65.4269H118.109V64.4765Z" fill="#455A64"/>
<path d="M127.408 67.5368H110.343V83.4706H127.408V67.5368Z" fill="white"/>
<path d="M111.665 82.1077L116.387 73.9081L120.249 79.1478L122.594 76.3663L126.086 82.1077H111.665Z" fill="#FE7743"/>
<path d="M121.895 72.3138C121.895 72.5487 121.823 72.7782 121.688 72.9735C121.552 73.1687 121.36 73.3209 121.136 73.4107C120.911 73.5006 120.663 73.5241 120.425 73.4783C120.186 73.4325 119.967 73.3194 119.795 73.1534C119.623 72.9873 119.505 72.7758 119.458 72.5455C119.411 72.3151 119.435 72.0764 119.528 71.8595C119.621 71.6425 119.779 71.4571 119.981 71.3266C120.183 71.1962 120.421 71.1265 120.665 71.1265C120.826 71.1262 120.987 71.1566 121.136 71.2162C121.285 71.2757 121.421 71.3631 121.536 71.4735C121.65 71.5838 121.74 71.7148 121.802 71.859C121.864 72.0032 121.895 72.1578 121.895 72.3138Z" fill="#FE7743"/>
<path d="M126.086 82.1522C126.086 82.1522 126.086 82.1272 126.086 82.0854C126.086 82.0436 126.086 81.9767 126.086 81.8986C126.086 81.7314 126.086 81.4917 126.086 81.1823C126.086 80.5525 126.086 79.6383 126.065 78.4761C126.065 76.1489 126.045 72.835 126.031 68.8578L126.1 68.9247H111.683L111.764 68.8467V75.859C111.764 78.0887 111.764 80.1985 111.764 82.1411L111.691 82.0714L122.117 82.1077L125.057 82.1244H125.84H126.039C126.063 82.1221 126.088 82.1221 126.112 82.1244H125.855H125.089L122.164 82.1439L111.691 82.1773H111.622V82.1104C111.622 80.1595 111.622 78.058 111.622 75.8283C111.622 74.7135 111.622 73.5689 111.622 72.3946V68.8578L111.706 68.777H126.123H126.192V68.8467C126.178 72.8434 126.167 76.1712 126.158 78.5095C126.158 79.6634 126.143 80.572 126.141 81.1991C126.141 81.5029 126.141 81.737 126.141 81.9042C126.141 81.9767 126.141 82.0352 126.141 82.0826C126.128 82.1097 126.109 82.1335 126.086 82.1522Z" fill="#455A64"/>
<path d="M125.811 54.7579C126.432 54.6809 127.058 54.6548 127.683 54.6799L127.602 54.7579V54.5796C127.602 54.5183 127.602 54.4597 127.602 54.4012C127.602 54.2841 127.602 54.1727 127.602 54.0612C127.602 53.8633 127.602 53.671 127.619 53.487C127.61 53.3087 127.63 53.1301 127.677 52.9575C127.72 53.1308 127.739 53.3089 127.732 53.487C127.732 53.671 127.732 53.8633 127.749 54.0612C127.749 54.1727 127.749 54.2841 127.749 54.4012V54.7579L127.665 54.8388C127.046 54.8646 126.426 54.8375 125.811 54.7579Z" fill="#455A64"/>
<path d="M117.3 54.7579C118.717 54.6539 120.14 54.6539 121.557 54.7579C120.14 54.8657 118.717 54.8657 117.3 54.7579Z" fill="#455A64"/>
<path d="M111.172 52.9519C111.253 53.5505 111.28 54.1548 111.252 54.7579L111.172 54.6799H111.902L112.497 54.6966C112.682 54.692 112.866 54.7107 113.046 54.7524C112.867 54.7975 112.682 54.8163 112.497 54.8081L111.902 54.8248H111.55H111.172L111.091 54.744C111.066 54.1455 111.093 53.546 111.172 52.9519Z" fill="#455A64"/>
<path d="M111.172 44.7384C111.254 45.42 111.281 46.1068 111.253 46.7924C111.281 47.4772 111.254 48.163 111.172 48.8437C111.092 48.1629 111.065 47.4772 111.091 46.7924C111.065 46.1068 111.092 45.4202 111.172 44.7384Z" fill="#455A64"/>
<path d="M113.046 38.8214C112.425 38.9 111.798 38.9261 111.172 38.8994L111.252 38.8214V39.1809C111.252 39.2952 111.252 39.4094 111.252 39.5209C111.252 39.7188 111.252 39.9083 111.235 40.0951C111.244 40.2734 111.224 40.4519 111.177 40.6246C111.131 40.4519 111.111 40.2734 111.12 40.0951C111.12 39.9083 111.12 39.7188 111.102 39.5209C111.102 39.4094 111.102 39.2952 111.102 39.1809C111.102 39.1224 111.102 39.0611 111.102 38.9997V38.8214L111.183 38.7433C111.805 38.7189 112.428 38.745 113.046 38.8214Z" fill="#455A64"/>
<path d="M121.557 38.8214C120.14 38.9254 118.717 38.9254 117.3 38.8214C118.717 38.7173 120.14 38.7173 121.557 38.8214Z" fill="#455A64"/>
<path d="M127.686 40.633C127.602 40.0336 127.574 39.4283 127.602 38.8242C127.767 38.9802 127.648 38.8687 127.683 38.9022H127.296H126.943L126.348 38.8855C126.164 38.8936 125.979 38.8748 125.8 38.8297C125.979 38.7846 126.164 38.7658 126.348 38.774L126.943 38.7573H127.671L127.755 38.8353C127.784 39.4353 127.761 40.0367 127.686 40.633Z" fill="#455A64"/>
<path d="M127.686 48.8549C127.602 48.1743 127.574 47.4884 127.602 46.8036C127.574 46.1178 127.602 45.431 127.686 44.7495C127.766 45.4313 127.793 46.1179 127.766 46.8036C127.793 47.4883 127.766 48.174 127.686 48.8549Z" fill="#455A64"/>
<path d="M127.446 57.297C127.446 57.3388 123.787 57.375 119.278 57.375C114.77 57.375 111.111 57.3388 111.111 57.297C111.111 57.2552 114.767 57.2189 119.278 57.2189C123.79 57.2189 127.446 57.2524 127.446 57.297Z" fill="#455A64"/>
<path d="M127.446 59.4068C127.446 59.4486 123.787 59.4849 119.278 59.4849C114.77 59.4849 111.122 59.4458 111.122 59.4068C111.122 59.3678 114.779 59.326 119.29 59.326C123.801 59.326 127.446 59.3622 127.446 59.4068Z" fill="#455A64"/>
<path d="M118.877 35.7416H111.111V36.692H118.877V35.7416Z" fill="#455A64"/>
<path d="M59.5557 48.1414C59.5557 49.74 59.0645 51.3027 58.1442 52.6318C57.2239 53.961 55.9158 54.997 54.3854 55.6087C52.855 56.2205 51.171 56.3805 49.5463 56.0686C47.9216 55.7568 46.4293 54.987 45.2579 53.8566C44.0866 52.7263 43.2889 51.2861 42.9658 49.7182C42.6426 48.1504 42.8084 46.5252 43.4424 45.0483C44.0763 43.5714 45.1498 42.3091 46.5271 41.421C47.9045 40.5329 49.5238 40.0588 51.1803 40.0588C53.4016 40.0588 55.5319 40.9104 57.1026 42.4262C58.6733 43.9419 59.5557 45.9978 59.5557 48.1414Z" fill="white"/>
<path d="M61.2106 65.7447C61.2106 65.7865 56.9131 65.8227 51.6135 65.8227C46.3138 65.8227 42.0135 65.7865 42.0135 65.7447C42.0135 65.7029 46.311 65.6638 51.6135 65.6638C56.916 65.6638 61.2106 65.7001 61.2106 65.7447Z" fill="#455A64"/>
<path d="M61.2106 67.8071C61.2106 67.8517 56.9131 67.8851 51.6135 67.8851C46.3138 67.8851 42.0135 67.8517 42.0135 67.8071C42.0135 67.7625 46.311 67.7291 51.6135 67.7291C56.916 67.7291 61.2106 67.7486 61.2106 67.8071Z" fill="#455A64"/>
<path d="M61.2106 69.8417C61.2106 69.8863 56.9131 69.9197 51.6135 69.9197C46.3138 69.9197 42.0135 69.8863 42.0135 69.8417C42.0135 69.7971 46.311 69.7581 51.6279 69.7581C56.9449 69.7581 61.2106 69.7999 61.2106 69.8417Z" fill="#455A64"/>
<path d="M53.0431 71.9348C53.0431 71.9794 50.5507 72.0128 47.4777 72.0128C44.4048 72.0128 41.9095 71.9794 41.9095 71.9348C41.9095 71.8902 44.4019 71.8567 47.4777 71.8567C50.5535 71.8567 53.0431 71.893 53.0431 71.9348Z" fill="#455A64"/>
<path d="M42.0135 62.4949H55.2409V61.5612H42.0135V62.4949Z" fill="#455A64"/>
<path d="M45.9413 54.3092C47.4153 55.5408 49.2998 56.2187 51.2496 56.2187C53.1993 56.2187 55.0838 55.5408 56.5579 54.3092C56.1131 52.8488 55.033 51.1152 52.4077 50.7306C52.9963 50.4803 53.4958 50.0688 53.8444 49.5471C54.193 49.0254 54.3753 48.4165 54.3687 47.7958C54.3687 46.0399 52.9998 44.6129 51.2958 44.6046C49.5918 44.5962 48.2055 46.0148 48.1969 47.7679C48.1849 48.3943 48.3652 49.0102 48.7152 49.5379C49.0652 50.0656 49.5692 50.4816 50.1637 50.7334C47.4951 51.1152 46.3947 52.8571 45.9413 54.3092Z" fill="#FE7743"/>
<path d="M49.4301 75.1344H42.0135V76.0067H49.4301V75.1344Z" fill="#FE7743"/>
<path d="M153.04 44.8582L154.305 48.9524C154.373 49.1363 154.41 49.3289 154.418 49.5238C154.418 50.1007 153.84 50.555 153.263 50.6609C152.666 50.7232 152.063 50.6546 151.498 50.4603C151.342 51.0483 150.631 51.2964 150.011 51.4079C147.244 51.9045 144.387 51.5607 141.831 50.424C142.922 48.9172 143.808 47.2818 144.468 45.5578L150.92 45.8365C151.3 45.8762 151.685 45.845 152.052 45.7445C152.235 45.691 152.399 45.5885 152.523 45.4488C152.648 45.3092 152.729 45.1382 152.757 44.9558" fill="#FE7743"/>
<path d="M145.647 52.8544C145.728 52.3973 145.534 50.4742 145.534 50.4742C145.534 50.4742 143.717 50.2875 143.608 48.5483C143.498 46.8092 143.608 42.7958 143.608 42.7958L146.917 41.235L150.562 43.8967L150.011 52.5952L146.068 55.9898L145.647 52.8544Z" fill="#FFBE9D"/>
<path d="M143.969 45.7194C143.968 45.7636 143.981 45.807 144.006 45.844C144.031 45.8811 144.067 45.9101 144.109 45.9274C144.151 45.9447 144.198 45.9495 144.243 45.9412C144.288 45.9329 144.329 45.9119 144.362 45.8809C144.395 45.8498 144.417 45.8101 144.426 45.7667C144.435 45.7234 144.431 45.6784 144.413 45.6375C144.396 45.5966 144.366 45.5616 144.328 45.537C144.29 45.5124 144.246 45.4992 144.2 45.4992C144.17 45.4989 144.14 45.5043 144.112 45.5152C144.084 45.5261 144.058 45.5423 144.037 45.5627C144.015 45.5832 143.998 45.6076 143.986 45.6345C143.975 45.6614 143.969 45.6903 143.969 45.7194Z" fill="#273F4F"/>
<path d="M143.758 45.4769C143.79 45.5076 143.96 45.3682 144.208 45.3543C144.457 45.3404 144.642 45.4574 144.668 45.424C144.694 45.3905 144.65 45.3571 144.569 45.3041C144.459 45.2341 144.328 45.2008 144.197 45.2094C144.066 45.2157 143.941 45.2638 143.842 45.3459C143.758 45.41 143.729 45.4658 143.758 45.4769Z" fill="#273F4F"/>
<path d="M146.646 45.7194C146.645 45.7637 146.659 45.8072 146.684 45.8443C146.709 45.8814 146.745 45.9104 146.787 45.9276C146.83 45.9449 146.876 45.9495 146.921 45.941C146.966 45.9325 147.008 45.9112 147.04 45.8798C147.073 45.8485 147.095 45.8085 147.104 45.765C147.113 45.7215 147.108 45.6764 147.09 45.6356C147.072 45.5947 147.042 45.5599 147.004 45.5357C146.965 45.5114 146.92 45.4987 146.874 45.4992C146.814 45.4992 146.756 45.5224 146.713 45.5637C146.67 45.605 146.646 45.661 146.646 45.7194Z" fill="#273F4F"/>
<path d="M146.499 45.4769C146.528 45.5076 146.698 45.3682 146.946 45.3543C147.195 45.3404 147.382 45.4574 147.408 45.424C147.434 45.3905 147.391 45.3571 147.307 45.3041C147.198 45.2351 147.068 45.2019 146.938 45.2095C146.807 45.217 146.683 45.2648 146.582 45.346C146.507 45.4101 146.484 45.4658 146.499 45.4769Z" fill="#273F4F"/>
<path d="M146.424 47.7401C146.044 47.9269 145.64 48.062 145.222 48.1414C145.314 48.2613 145.445 48.3485 145.594 48.3893C145.743 48.4302 145.901 48.4224 146.045 48.3672C146.114 48.3517 146.178 48.3229 146.235 48.2825C146.292 48.2422 146.339 48.1911 146.375 48.1323C146.41 48.0736 146.433 48.0085 146.441 47.9411C146.449 47.8736 146.443 47.8052 146.424 47.7401Z" fill="#FAFAFA"/>
<path d="M145.534 50.4742C146.391 50.44 147.219 50.1702 147.922 49.6966C147.922 49.6966 147.382 50.9731 145.574 50.9006L145.534 50.4742Z" fill="#EB996E"/>
<path d="M155.807 48.8995C155.58 48.9078 155.355 48.8588 155.154 48.7573C154.857 48.6016 154.611 48.3702 154.441 48.0884C154.23 47.7374 154.053 47.369 153.909 46.9875C153.572 46.1793 153.332 45.4268 153.144 44.8805C153.118 44.7941 153.092 44.7161 153.069 44.6408C153.058 44.5602 153.043 44.4801 153.023 44.4011C152.038 40.7779 148.734 40.0979 148.081 40.0979C147.379 40.0979 146.152 39.7244 144.364 41.5193C144.094 41.7868 143.865 42.091 143.686 42.4223C143.292 42.901 143.019 43.4623 142.891 44.0611C142.813 44.3419 142.799 44.6358 142.851 44.9223C142.886 44.9223 142.891 44.5962 143.03 44.0862C143.113 43.7897 143.229 43.5028 143.377 43.2305C143.221 43.9006 143.285 44.6007 143.559 45.2345L144.2 45.0617L146.51 44.3091C146.299 43.6235 146.608 42.7707 146.782 42.3582H146.799C147.325 44.9613 150.296 45.2345 150.296 45.2345L150.149 50.176C153.202 49.5461 153.242 46.3298 153.222 45.5299C153.361 45.9814 153.54 46.4998 153.765 47.0433C153.916 47.4307 154.104 47.8039 154.325 48.1581C154.513 48.4587 154.788 48.6992 155.117 48.8493C155.338 48.9505 155.585 48.9855 155.827 48.9497C155.917 48.9416 156.002 48.9109 156.076 48.8605C155.985 48.8678 155.895 48.8809 155.807 48.8995Z" fill="#FE7743"/>
<path d="M145.603 47.5032C145.472 47.474 145.337 47.46 145.202 47.4613C145.138 47.4613 145.075 47.4613 145.063 47.4056C145.054 47.3387 145.066 47.2707 145.098 47.2105C145.153 47.0544 145.208 46.89 145.268 46.7144C145.387 46.3604 145.488 46.0399 145.557 45.8058C145.605 45.6821 145.635 45.5527 145.647 45.4212C145.579 45.537 145.527 45.6606 145.491 45.7891C145.404 46.0176 145.291 46.3465 145.173 46.6921L145.008 47.191C144.973 47.27 144.964 47.358 144.985 47.4418C144.995 47.4629 145.01 47.4816 145.029 47.4965C145.047 47.5114 145.069 47.5223 145.092 47.5282C145.128 47.5321 145.163 47.5321 145.199 47.5282C145.334 47.5356 145.47 47.5272 145.603 47.5032Z" fill="#273F4F"/>
<path d="M149.794 46.0873C149.234 45.9814 148.76 45.9062 148.598 45.895C148.62 45.8035 148.631 45.7101 148.633 45.6163C148.63 45.3152 148.529 45.0226 148.344 44.7802C148.174 44.5544 147.936 44.3842 147.663 44.2924C147.417 44.2082 147.153 44.189 146.897 44.2367C146.674 44.2801 146.466 44.3758 146.291 44.5154C146.033 44.7078 145.852 44.9807 145.78 45.2874C145.759 45.3696 145.748 45.4538 145.748 45.5383C145.743 45.5669 145.743 45.596 145.748 45.6247C145.748 45.6247 145.748 45.5048 145.811 45.2986C145.895 45.0065 146.077 44.7495 146.328 44.5683C146.498 44.4446 146.696 44.3615 146.906 44.3259C147.175 44.2788 147.452 44.3106 147.702 44.417C147.952 44.5234 148.164 44.6997 148.309 44.9231C148.455 45.1464 148.527 45.4067 148.518 45.6703C148.509 45.9339 148.418 46.1888 148.257 46.4023C148.099 46.6146 147.877 46.7759 147.622 46.8649C147.393 46.9466 147.146 46.9677 146.906 46.9262C146.696 46.8897 146.498 46.8056 146.328 46.681C146.076 46.5012 145.894 46.2451 145.811 45.9535C145.787 45.8714 145.771 45.7875 145.762 45.7027C145.805 45.7027 145.834 45.6804 145.834 45.6693C145.834 45.6581 145.8 45.6414 145.751 45.633C145.693 45.628 145.635 45.628 145.577 45.633C145.507 45.6326 145.438 45.6401 145.369 45.6553V45.6386C145.368 45.3373 145.267 45.0442 145.081 44.8025C144.911 44.5774 144.674 44.4073 144.402 44.3147C144.155 44.2306 143.89 44.2113 143.634 44.259C143.364 44.3116 143.116 44.4374 142.918 44.6215C142.72 44.8057 142.58 45.0406 142.516 45.2986C142.496 45.3807 142.485 45.4649 142.484 45.5494C142.48 45.578 142.48 45.6072 142.484 45.6358C142.484 45.6358 142.484 45.516 142.548 45.3097C142.631 45.0176 142.813 44.7607 143.065 44.5795C143.235 44.4557 143.433 44.3726 143.642 44.337C143.84 44.3023 144.042 44.3099 144.236 44.3591C144.43 44.4083 144.61 44.4981 144.764 44.622C144.918 44.7458 145.042 44.9009 145.127 45.0761C145.212 45.2512 145.257 45.4423 145.257 45.6358C145.257 45.906 145.171 46.1697 145.011 46.3914C144.851 46.6131 144.624 46.7822 144.361 46.8761C144.132 46.9577 143.883 46.9789 143.642 46.9374C143.432 46.9009 143.234 46.8168 143.065 46.6921C142.813 46.5124 142.631 46.2562 142.548 45.9647C142.49 45.7584 142.496 45.6358 142.484 45.6358C142.48 45.6654 142.48 45.6954 142.484 45.725C142.485 45.8086 142.496 45.8918 142.516 45.973C142.588 46.2807 142.769 46.5546 143.027 46.7479C143.204 46.8855 143.412 46.981 143.634 47.0266C143.89 47.0742 144.155 47.055 144.402 46.9708C144.674 46.8773 144.91 46.7074 145.081 46.4831C145.253 46.2605 145.353 45.9939 145.369 45.7166C145.439 45.7333 145.511 45.7408 145.583 45.7389C145.639 45.7424 145.695 45.7424 145.751 45.7389C145.751 45.8225 145.762 45.9058 145.782 45.987C145.845 46.2463 145.983 46.4826 146.182 46.6676C146.38 46.8525 146.629 46.9782 146.9 47.0293C147.156 47.077 147.42 47.0578 147.665 46.9736C147.938 46.8806 148.176 46.7106 148.347 46.4859C148.466 46.33 148.549 46.1513 148.59 45.9619C148.743 46.0093 149.211 46.1152 149.777 46.2211C150.191 46.3152 150.612 46.3795 151.036 46.4134C150.632 46.2713 150.217 46.1622 149.794 46.0873Z" fill="#273F4F"/>
<path d="M150.753 47.4307C150.724 47.1411 150.758 46.8489 150.851 46.5723C150.899 46.4345 150.984 46.3116 151.098 46.2165C151.212 46.1214 151.35 46.0575 151.498 46.0316C151.669 46.0233 151.838 46.0752 151.973 46.1777C152.108 46.2801 152.2 46.4262 152.231 46.589C152.252 46.7556 152.221 46.9245 152.141 47.0736C152.061 47.2227 151.937 47.3452 151.784 47.4251C151.63 47.5021 151.46 47.5446 151.286 47.5494C151.113 47.5543 150.94 47.5213 150.782 47.453" fill="#FFBE9D"/>
<path d="M151.267 47.1826C151.267 47.1631 151.365 47.2049 151.492 47.1826C151.571 47.1558 151.64 47.1056 151.688 47.0391C151.736 46.9725 151.762 46.8931 151.761 46.812C151.769 46.7713 151.767 46.7294 151.756 46.6894C151.745 46.6494 151.725 46.6122 151.697 46.5806C151.642 46.5378 151.571 46.5177 151.501 46.5249C151.365 46.5249 151.27 46.5695 151.264 46.5472C151.258 46.5249 151.325 46.4664 151.486 46.4245C151.536 46.4126 151.587 46.4114 151.637 46.4211C151.687 46.4307 151.734 46.4509 151.775 46.4803C151.823 46.5237 151.859 46.5775 151.88 46.6371C151.902 46.6968 151.909 46.7605 151.899 46.8231C151.895 46.9424 151.848 47.0566 151.766 47.1464C151.699 47.2221 151.604 47.2708 151.501 47.283C151.345 47.2802 151.267 47.1826 151.267 47.1826Z" fill="#EB996E"/>
<path d="M158.262 113.412L156.087 111.988L158.828 108.042L162.031 110.093L161.878 110.346C161.185 111.478 158.27 116.043 157.546 116.626C156.72 117.272 158.262 113.412 158.262 113.412Z" fill="#FE7743"/>
<path d="M157.274 116.581C157.234 116.556 158.236 115.065 159.512 113.253C160.789 111.442 161.852 109.99 161.892 110.015C161.933 110.04 160.928 111.531 159.651 113.359C158.374 115.188 157.312 116.612 157.274 116.581Z" fill="#273F4F"/>
<path d="M158.657 113.772C158.657 113.816 158.522 113.841 158.369 113.853C158.216 113.864 158.08 113.853 158.065 113.808C158.051 113.763 158.184 113.699 158.354 113.691C158.525 113.683 158.663 113.727 158.657 113.772Z" fill="#273F4F"/>
<path d="M158.626 114.117C158.626 114.162 158.467 114.168 158.291 114.156C158.115 114.145 157.967 114.123 157.964 114.076C157.961 114.028 158.112 113.984 158.299 113.995C158.487 114.006 158.634 114.073 158.626 114.117Z" fill="#273F4F"/>
<path d="M161.043 111.197C161.023 111.197 160.968 111.121 160.902 110.979C160.812 110.789 160.76 110.583 160.748 110.374C160.737 110.157 160.802 109.943 160.933 109.767C161.04 109.633 161.144 109.597 161.156 109.613C161.167 109.63 161.101 109.7 161.031 109.828C160.947 109.996 160.908 110.182 160.916 110.369C160.93 110.563 160.963 110.755 161.014 110.943C161.052 111.091 161.066 111.188 161.043 111.197Z" fill="#273F4F"/>
<path d="M158.242 113.515C158.221 113.476 158.299 113.398 158.406 113.323C158.513 113.248 158.611 113.198 158.646 113.228C158.681 113.259 158.626 113.368 158.504 113.454C158.383 113.54 158.259 113.557 158.242 113.515Z" fill="#273F4F"/>
<path d="M158.074 113.317C158.037 113.29 158.074 113.164 158.172 113.039C158.27 112.913 158.372 112.83 158.409 112.852C158.447 112.874 158.409 113 158.311 113.131C158.213 113.262 158.109 113.345 158.074 113.317Z" fill="#273F4F"/>
<path d="M132.63 116.656V114.12L137.54 114.09L137.58 117.802L137.274 117.821C135.917 117.902 130.366 118.142 129.453 117.883C128.451 117.593 132.63 116.656 132.63 116.656Z" fill="#FE7743"/>
<path d="M129.352 117.649C129.352 117.604 131.195 117.568 133.465 117.568C135.735 117.568 137.577 117.604 137.577 117.649C137.577 117.693 135.738 117.732 133.465 117.732C131.192 117.732 129.352 117.696 129.352 117.649Z" fill="#273F4F"/>
<path d="M132.543 117.175C132.503 117.197 132.408 117.105 132.309 116.983C132.211 116.86 132.145 116.748 132.177 116.704C132.208 116.659 132.338 116.74 132.442 116.874C132.546 117.008 132.584 117.153 132.543 117.175Z" fill="#273F4F"/>
<path d="M132.229 117.342C132.185 117.359 132.099 117.245 132.009 117.097C131.92 116.949 131.856 116.818 131.894 116.79C131.931 116.762 132.055 116.857 132.154 117.016C132.252 117.175 132.272 117.325 132.229 117.342Z" fill="#273F4F"/>
<path d="M136.093 117.632C136.076 117.632 136.116 117.529 136.2 117.398C136.313 117.22 136.459 117.063 136.63 116.935C136.811 116.805 137.031 116.737 137.257 116.74C137.43 116.74 137.522 116.815 137.514 116.832C137.505 116.849 137.407 116.832 137.26 116.854C137.068 116.883 136.887 116.956 136.731 117.066C136.572 117.186 136.426 117.32 136.295 117.467C136.188 117.579 136.113 117.646 136.093 117.632Z" fill="#273F4F"/>
<path d="M132.529 116.698C132.552 116.659 132.665 116.679 132.786 116.721C132.907 116.762 133.011 116.815 133.003 116.86C132.994 116.904 132.873 116.921 132.731 116.874C132.59 116.826 132.494 116.737 132.529 116.698Z" fill="#273F4F"/>
<path d="M132.607 116.453C132.607 116.408 132.743 116.372 132.896 116.375C133.049 116.378 133.185 116.417 133.185 116.461C133.185 116.506 133.057 116.539 132.896 116.539C132.734 116.539 132.601 116.498 132.607 116.453Z" fill="#273F4F"/>
<path d="M145.049 58.0941L139.715 56.38C139.715 56.38 137.361 62.9241 136.639 62.9882C132.642 63.3394 128.364 62.0601 126.863 61.5557C126.712 61.3912 126.539 61.1933 126.346 60.9509C126.179 60.7421 126.051 60.5074 125.967 60.2569C125.852 59.9499 125.78 59.6293 125.754 59.3037C125.76 59.2409 125.746 59.1779 125.713 59.1233C125.68 59.0686 125.631 59.0251 125.572 58.9988C125.512 58.9724 125.446 58.9646 125.382 58.9763C125.318 58.9879 125.259 59.0186 125.213 59.064C125.043 59.2814 124.997 60.1064 125.393 60.9982C125.788 61.8901 124.39 61.1794 123.876 60.9286C123.362 60.6777 121.736 59.981 121.531 60.0729C121.242 60.2095 121.326 60.5439 121.846 60.7809C122.366 61.0178 123.868 61.8344 123.72 62.0908C123.573 62.3472 120.974 61.04 120.974 61.04C120.974 61.04 120.465 60.6749 120.283 60.9648C119.954 61.486 122.819 62.6761 123.096 62.782C123.287 62.8544 123.137 63.1387 122.935 63.0607C122.733 62.9827 120.376 61.7034 120.032 62.2246C119.772 62.6287 122.383 63.2223 122.721 63.7463C123.059 64.2703 120.786 63.1025 120.555 63.501C120.468 63.6488 120.422 63.7798 121.826 64.2591C122.856 64.5677 123.903 64.8217 124.962 65.02V65.0339C124.962 65.0339 138.984 71.0847 142.002 65.2541C145.202 59.0668 145.049 58.0941 145.049 58.0941Z" fill="#FFBE9D"/>
<path d="M141.785 72.4755C141.785 72.4755 138.386 94.2761 138.874 95.3296C139.362 96.3831 156.844 114.282 156.844 114.282L160.933 107.52C160.933 107.52 147.143 92.6652 147.247 92.2666C147.351 91.868 152.133 70.6667 152.133 70.6667L141.785 72.4755Z" fill="#455A64"/>
<path d="M142.528 99.4015L145.401 93.3118L148.275 87.222L143.434 95.3185L142.528 99.4015Z" fill="#273F4F"/>
<path d="M144.24 93.9695C144.253 94.0488 144.259 94.129 144.257 94.2092C144.257 94.382 144.257 94.6133 144.275 94.9004V94.8781C145.369 96.071 147.795 98.78 150.597 101.946L155.463 107.481L156.925 109.173C157.086 109.363 157.213 109.519 157.315 109.636C157.364 109.687 157.406 109.744 157.442 109.806C157.386 109.761 157.335 109.712 157.289 109.658L156.876 109.212C156.506 108.808 156.009 108.245 155.374 107.557L150.464 102.052C147.665 98.8887 145.265 96.1518 144.217 94.9227C144.217 94.644 144.217 94.4043 144.231 94.2315C144.222 94.1442 144.225 94.056 144.24 93.9695Z" fill="#273F4F"/>
<path d="M159.622 106.121C159.663 106.146 158.707 107.61 157.491 109.388C156.275 111.166 155.258 112.59 155.221 112.565C155.183 112.54 156.136 111.077 157.352 109.299C158.568 107.52 159.585 106.096 159.622 106.121Z" fill="#273F4F"/>
<path d="M140.555 80.6639C140.587 80.4354 143.302 74.5323 143.302 74.5323L141.985 72.7403L141.751 72.6901L140.555 80.6639Z" fill="#273F4F"/>
<path d="M144.448 72.2664L141.751 72.7012L143.302 74.5435C140.798 80.0118 135.625 91.5893 135.004 95.3212C134.178 100.266 131.068 115.709 131.38 115.946C131.691 116.183 138.863 115.946 138.863 115.946L143.434 95.3212L153.543 78.4259C154.8 76.322 155.167 73.831 154.568 71.4721L154.366 70.6694" fill="#455A64"/>
<path d="M136.367 113.655C136.369 113.616 136.374 113.578 136.382 113.54C136.382 113.457 136.411 113.345 136.434 113.203L136.656 111.913C136.861 110.784 137.153 109.165 137.522 107.175C137.892 105.185 138.334 102.791 138.822 100.148C139.076 98.8274 139.342 97.4394 139.616 96.0013C139.686 95.6445 139.761 95.2822 139.833 94.9171C139.87 94.7332 139.905 94.552 139.948 94.3597C139.972 94.2677 139.989 94.173 140.018 94.081L140.125 93.8023C140.413 93.0944 140.743 92.4087 141.066 91.6869C143.68 86.0207 146.112 80.9204 147.87 77.2302L149.97 72.8629C150.216 72.3556 150.412 71.9599 150.548 71.6811C150.611 71.5529 150.663 71.4498 150.704 71.3746C150.719 71.3383 150.738 71.3038 150.761 71.2714L150.718 71.3829L150.579 71.6951L150.028 72.8907C149.534 73.9387 148.829 75.4437 147.969 77.2832C146.236 80.9872 143.821 86.0932 141.211 91.7593C140.887 92.4673 140.561 93.1696 140.272 93.8636L140.168 94.12C140.139 94.2092 140.125 94.3012 140.102 94.3987C140.058 94.5771 140.024 94.7638 139.983 94.9561C139.911 95.3212 139.839 95.6836 139.767 96.0403C139.478 97.4757 139.221 98.8636 138.964 100.182C138.461 102.824 138.008 105.199 137.626 107.203C137.245 109.207 136.936 110.809 136.722 111.941C136.613 112.498 136.526 112.922 136.468 113.226C136.437 113.365 136.413 113.476 136.396 113.56C136.39 113.592 136.38 113.624 136.367 113.655Z" fill="#273F4F"/>
<path d="M139.29 113.961C139.29 114.006 137.557 114.011 135.446 113.961C133.335 113.911 131.602 113.858 131.602 113.814C131.602 113.769 133.335 113.763 135.449 113.8C137.563 113.836 139.293 113.917 139.29 113.961Z" fill="#273F4F"/>
<path d="M141.751 72.6984L141.855 72.9353L154.813 71.9236L154.357 70.6667L141.751 72.6984Z" fill="#273F4F"/>
<path d="M147.102 52.3248L146.236 55.7028L146.204 53.2724L146.27 52.7345L146.348 52.3248L145.193 51.9486L144.598 52.8432H144.425C144.425 52.8432 139.761 52.3945 138.129 58.3422L136.636 61.8678L141.156 64.0417V64.3205L141.444 72.7347L154.499 70.6945C154.551 68.8049 152.552 65.3823 152.994 63.6711L154.499 57.8182L152.526 52.3638L151.16 52.4056L150.4 51.5389L147.117 52.3248" fill="#273F4F"/>
<path d="M141.237 63.9916C141.131 63.9633 141.033 63.9149 140.948 63.8494C140.707 63.6897 140.502 63.485 140.344 63.2474C140.105 62.8915 139.996 62.4687 140.035 62.0462C140.057 61.5295 140.234 61.03 140.543 60.6081C140.784 60.2772 141.1 60.0044 141.468 59.8109L141.427 59.8611C141.537 59.0891 141.635 58.4258 141.716 57.9547C141.744 57.7034 141.792 57.4546 141.86 57.2106C141.861 57.4643 141.841 57.7177 141.803 57.9687C141.754 58.4397 141.676 59.1086 141.577 59.8806V59.9141L141.543 59.9336C141.15 60.1491 140.821 60.4563 140.583 60.8269C140.346 61.1974 140.209 61.6196 140.185 62.0545C140.142 62.4517 140.233 62.8517 140.445 63.1945C140.59 63.4265 140.776 63.6321 140.994 63.8021C141.159 63.9247 141.239 63.9804 141.237 63.9916Z" fill="#455A64"/>
<path d="M141.736 58.331C141.699 58.3477 141.572 58.1693 141.447 57.9297C141.323 57.69 141.257 57.4809 141.294 57.4642C141.332 57.4475 141.459 57.6259 141.583 57.8655C141.707 58.1052 141.765 58.2975 141.736 58.331Z" fill="#455A64"/>
<path d="M128.382 55.9397L169.444 63.5512C172.373 64.0947 174.216 66.6755 173.883 69.6159C173.879 69.6573 173.871 69.6983 173.86 69.7386C173.724 70.4336 173.445 71.0956 173.041 71.6859C172.637 72.2762 172.115 72.783 171.506 73.1769C170.897 73.5709 170.213 73.8441 169.494 73.9806C168.774 74.1171 168.034 74.1142 167.316 73.9721L127.073 66.1348L118.198 59.2898L128.382 55.9397Z" fill="#FE7743"/>
<path d="M128.382 55.9397C128.382 55.9397 130.623 56.7507 130.161 58.8243C129.699 60.8979 127.53 60.8115 127.53 60.8115C127.53 60.8115 129.638 61.263 129.055 64.17C128.676 66.0429 127.073 66.1404 127.073 66.1404L118.198 59.2898L128.382 55.9397Z" fill="white"/>
<path d="M120.128 60.7781C120.994 60.3628 121.297 59.2563 120.994 58.3728L118.207 59.2898L120.128 60.7781Z" fill="#455A64"/>
<path d="M168.884 68.8996L168.777 68.8857L168.46 68.8355L167.25 68.6265C166.198 68.4426 164.682 68.1666 162.805 67.8183C159.05 67.1215 153.883 66.1209 148.177 64.9838L133.569 62.0518L129.141 61.1571L127.94 60.9091L127.628 60.8394C127.591 60.8343 127.555 60.8249 127.521 60.8115C127.558 60.8129 127.595 60.8175 127.631 60.8254L127.946 60.8784L129.153 61.1014L133.598 61.9542L148.217 64.8444C153.921 65.9816 159.091 66.9988 162.837 67.7207L167.27 68.5736L168.474 68.8105L168.789 68.8746C168.822 68.8791 168.854 68.8875 168.884 68.8996Z" fill="#455A64"/>
<path d="M167.316 73.9721C168.034 74.1142 168.774 74.1171 169.494 73.9806C170.213 73.8441 170.897 73.5709 171.506 73.1769C172.115 72.783 172.637 72.2762 173.041 71.6859C173.445 71.0956 173.724 70.4337 173.86 69.7386C173.871 69.6983 173.879 69.6573 173.883 69.6159C174.216 66.6755 172.373 64.0947 169.444 63.5512L167.316 73.9721Z" fill="#455A64"/>
<path d="M150.995 57.5255C150.995 57.5255 148.497 65.1315 147.801 65.2987C143.908 66.2575 139.475 65.6471 137.912 65.3768C137.736 65.2374 137.528 65.0646 137.3 64.8584C137.103 64.677 136.939 64.465 136.815 64.2313C136.649 63.9463 136.526 63.6405 136.448 63.3227C136.445 63.2585 136.421 63.1969 136.38 63.1467C136.338 63.0965 136.281 63.0603 136.217 63.0432C136.153 63.0262 136.085 63.0292 136.023 63.0519C135.96 63.0746 135.907 63.1157 135.87 63.1694C135.735 63.4091 135.827 64.2313 136.361 65.0507C136.361 65.0507 133.231 66.9682 132.546 66.9515C131.862 66.9347 129.901 66.8874 130.106 67.1494C130.311 67.4113 132.546 67.7709 132.546 67.7709L136.59 69.0947C136.59 69.0947 151.423 72.9465 153.453 66.7257C154.695 62.913 155.556 60.6694 155.749 59.758L150.995 57.5255Z" fill="#FFBE9D"/>
<path d="M152.546 52.375C152.546 52.375 155.81 52.9324 155.937 58.0885C155.997 61.2241 155.297 64.3298 153.892 67.1577L148.151 64.248C149.44 61.7577 150.41 59.1249 151.039 56.4079L152.529 52.3722L152.546 52.375Z" fill="#273F4F"/>
<path d="M150.871 56.695C150.871 56.8019 150.859 56.9085 150.834 57.0127C150.802 57.2134 150.747 57.5032 150.666 57.8488C150.454 58.7761 150.187 59.6909 149.866 60.5885C149.543 61.4861 149.166 62.3646 148.737 63.2196C148.572 63.5484 148.431 63.8104 148.327 63.986C148.279 64.0846 148.221 64.178 148.154 64.2647C148.18 64.1614 148.221 64.062 148.275 63.9693C148.373 63.7547 148.497 63.4927 148.642 63.1861C148.948 62.5228 149.346 61.5947 149.725 60.5495C150.103 59.5044 150.377 58.5372 150.562 57.8321C150.647 57.5032 150.719 57.2245 150.779 56.996C150.797 56.8924 150.828 56.7913 150.871 56.695Z" fill="#455A64"/>
</svg>
